<?xml version="1.0" encoding="UTF-8"?>
<svg id="Capa_2" data-name="Capa 2" xmlns="http://www.w3.org/2000/svg" viewBox="0 0 1530.08 1184.07">
  <defs>
    <style>
      .cls-1 {
        fill: #003787;
      }

      .cls-2 {
        fill: #ff7300;
      }
    </style>
  </defs>
  <g id="Layer_1" data-name="Layer 1">
    <g>
      <g>
        <path class="cls-1" d="m388.4,570.64c.06-.14.12-.29.18-.44-2.4,4.84-.75,1.82-.18.44Z"/>
        <path class="cls-1" d="m1197.61,428.84h0c-12.85-27.99-36.1-42.36-67.21-41.57-43.9,1.11-81.93,17.14-113.02,47.65-11.92,11.7-23.89,23.71-35.46,35.32-15.58,15.63-31.68,31.79-47.81,47.33-2.24,2.16-6.37,3.91-8.5,4.24-1.26-1.74-2.92-5.87-3-8.96-.7-27.58-.55-55.72-.4-82.93.02-4.71.05-9.41.07-14.12.02-5.19-.34-11.87-3.39-17.52-3.66-6.79-10.43-10.55-19.05-10.58h-.11c-6.46,0-11.71,1.98-15.61,5.88-6.1,6.11-6.85,15.04-6.81,22.14.02,4.35.04,8.69.07,13.04.15,27.58.3,56.1-.15,84.09-.42,25.58,9.84,42.98,30.49,51.73,10.97,4.65,21.8,5.39,32.19,2.21,8.99-2.75,17.49-8.32,25.99-17.01,16.86-17.23,34.24-34.54,51.04-51.29,9.66-9.63,19.65-19.58,29.44-29.42,10.48-10.53,22.19-18.94,34.8-25.01,12.57-6.04,26.44-9.94,41.2-11.58,22.76-2.52,30.1,5.93,33.95,13.59,4.93,9.79,4.91,18.95-10.39,34.3-92.35,92.66-175.62,176.17-259.61,259.84-15.88,15.82-32.48,28.59-49.35,37.95-18.48,10.26-37.81,16.72-57.45,19.22-43.68,5.54-89.09,5.59-129.15,5.64h-.24c-41.03,0-80.38-12.61-113.8-36.48-16.35-11.68-30.82-25.75-43.01-41.85-12.42-16.4-22.27-34.62-29.26-54.15-3.6-10.06-6.13-20.18-7.91-30.37-.07-.06-.14-.12-.2-.18-3.42-3.14-5.45-8.59-5.45-13.16,0-5.17,2.11-8.81,5.09-12.69.05-.06.1-.13.15-.21.43-.59.88-1.17,1.31-1.75.96-1.3,1.91-2.62,2.84-3.94,1.71-2.43,3.36-4.9,4.94-7.41,3-4.77,5.65-9.71,8.02-14.82.06-.14.11-.27.16-.41.52-1.37,1.01-2.76,1.45-4.16.7-2.2,1.28-4.43,1.74-6.68-.08-.78.32-2.79.34-3.27.05-1.49-.02-2.96-.12-4.44-.06-.43-.13-.88-.22-1.25-.19-.8-.41-1.58-.66-2.37-.35-.71-.68-1.72-.88-2.1-.57-1.05-1.19-2.06-1.86-3.05-.3-.45-.64-.87-.93-1.33-.96-1.5,1.64,2.47,1.65,2.13.01-1.2-3.94-4.26-4.8-5.05-.91-.83-1.95-1.56-2.84-2.41.5.47.89.84,1.19,1.13.89.78,1.43,1.34,0,0-.45-.39-.98-.83-1.4-1.11-2.22-1.49-4.52-2.84-6.88-4.09-1.53-.81-3.09-1.58-4.67-2.31-.59-.27-1.25-.51-1.84-.8-3.36-1.39-6.69-2.87-10.01-4.37-.53-.22-1.06-.43-1.6-.65-1.28-.51-2.57-1-3.87-1.47-2.82-1.02-5.67-1.95-8.56-2.72-1.73-.46-3.47-.87-5.23-1.21-.35-.07-.69-.13-1.04-.18-1.29-.06-2.57-.19-3.86-.2-1.03,0-2.78.41-3.96.31-.26.06-.51.13-.76.2-.07.18-.51.45-1.51.63-2.65,2.5-4.97,5.3-7.27,8.11-.14.19-.28.37-.42.56-.72.98-1.44,1.98-2.14,2.98-1.35,1.92-2.66,3.87-3.94,5.84-2.6,4.01-5.06,8.12-7.31,12.33-1.12,2.1-2.2,4.22-3.2,6.38-.11.25-.23.5-.34.74-.07.23-.12.42-.17.54-.21.58-.38,1.17-.54,1.76.68-1.3,1.36-2.59,2.02-3.89.71-1.76,1.5-3.83,2.41-5.57,1.82-3.49,4.84-6.6,8.22-8.61,4.11-2.45,8.56-3.31,13-2.98,5.01-5.83,11.9-9.67,20.69-9.66,15.51.02,27.89,12.59,27.51,28.11-.07,2.9-.43,5.91-1.05,8.9.92,2.18,1.47,4.56,1.58,7.04.36,8.06-5.57,15.16-12.96,17.65-.11.94-.23,1.87-.39,2.8-.96,5.55-5.88,9.99-10.77,12.06-5.73,2.42-11.05,1.74-16.56-.94-1.03-.5-2.01-1.07-2.94-1.68.52,3.65,1.01,7.31,1.34,10.99.57,6.3-2.87,11.69-7.8,15.01,6.51,41.54,23.94,81.29,50.62,114.56,16.88,21.04,36.82,38.8,59.27,52.8,23.27,14.51,48.56,24.53,75.15,29.77,33.74,6.65,68.8,7.45,103.18,7.45,5.42,0,10.82-.02,16.2-.04,6.8-.03,13.84-.05,20.71-.03.23,0,.45,0,.68,0,33.59,0,65.42-5.9,94.61-17.53,29.77-11.86,57-29.76,80.93-53.21,73.15-71.67,146.57-145.47,217.57-216.85,17.42-17.51,35.43-35.62,53.16-53.41,10.91-10.95,17.73-23.41,20.26-37.03,2.48-13.36.55-27.51-5.61-40.9Z"/>
        <path class="cls-1" d="m465.56,344.41c5.41-9.17,14.45-14.33,25.46-14.51,11.37-.19,20.73,4.96,26.37,14.52l2.44,4.13h45.84l-.21-8.6c-.24-9.67-.39-17.67-.48-25.17-.13-11.18,3.56-21.43,10.39-28.88,6.69-7.3,16.03-11.47,26.28-11.73,10.28-.27,19.85,3.41,26.94,10.34,7.23,7.08,11.42,17.11,11.8,28.25.28,8.34.57,17.38.88,27.65l.25,8.14h43.21l-.4-14.08c-.45-15.78-.91-32.1-1.15-48.13-.18-12.23,3.82-23.18,11.27-30.85,6.75-6.94,15.69-10.68,25.88-10.82,21.45-.3,37.56,16.18,38.3,39.17.59,18.16,1.15,37.18,1.67,56.54l.22,8.17h43.02l-.24-8.63c-.9-32.55-1.68-65.66-2.44-97.68-.52-22.27-1.07-45.3-1.65-67.95-.23-9.15-.51-18.45-.77-27.45-.62-21.29-1.27-43.31-1.45-64.92-.08-9.63,3.29-18.86,9.48-25.99,6.09-7,14.38-11.42,23.36-12.42,18.87-2.11,37.11,10.82,41.51,29.44,1.03,4.34,1.14,9.22,1.26,14.38.02.65.03,1.31.05,1.96,2.32,87.3,4.03,154.04,5.54,216.4.16,6.78,1.18,16.45,8.1,22.13,2.86,2.35,7.88,4.86,15.56,3.53,9.83-1.71,19.26-16.03,19.11-25.47-1.38-92.22-3.14-163.1-5.71-229.83-.81-21.15-10.18-40.72-26.36-55.1-7.74-6.88-16.62-12.2-26.39-15.8-10.06-3.71-20.58-5.42-31.29-5.09-20.67.64-40.1,9.34-54.7,24.48-14.62,15.16-22.73,35.06-22.83,56.05-.07,14.73.41,29.63.87,44.04.2,6.23.41,12.67.57,18.99.46,18.2.93,36.39,1.4,54.88l.3,11.61c-24.09-8.83-42.73-10.55-59.3-5.65-17.42,5.15-32.58,17.63-48.47,40.07-10.98-6.67-22.58-10.94-34.58-12.73-14.06-2.09-28.3-.56-41.19,4.44-24.32,9.44-42.41,30.16-50.65,57.6-21.7-8.67-43.71-8.93-62.47-.64-18.45,8.16-32.2,23.93-38.71,44.41l-3.48,10.94h45.12l2.44-4.13Z"/>
        <path class="cls-1" d="m487.89,474.48c41.93,0,76.04-34.11,76.04-76.04,0-2.04-.08-4.13-.25-6.19l-.25-3.09h-45.18l.68,3.93c.3,1.75.46,3.55.46,5.34,0,17.36-14.13,31.49-31.49,31.49s-31.49-14.13-31.49-31.49c0-1.79.15-3.59.46-5.34l.68-3.93h-45.18l-.25,3.09c-.17,2.06-.25,4.14-.25,6.19,0,41.93,34.11,76.04,76.04,76.04Z"/>
        <path class="cls-1" d="m695.27,389.17h-45.18l-.25,3.09c-.17,2.06-.25,4.14-.25,6.19,0,41.93,34.11,76.04,76.04,76.04s76.04-34.11,76.04-76.04c0-2.04-.08-4.13-.25-6.19l-.25-3.09h-45.18l.68,3.93c.3,1.75.46,3.55.46,5.34,0,17.36-14.13,31.49-31.49,31.49s-31.49-14.13-31.49-31.49c0-1.79.15-3.59.46-5.34l.68-3.93Z"/>
        <path class="cls-1" d="m539.74,502.66c-.43,3.19-.65,6.45-.65,9.76,0,40.35,32.83,73.17,73.17,73.17s73.17-32.83,73.17-73.17c0-3.31-.23-6.57-.65-9.76h-45.27c1.1,3.05,1.7,6.34,1.7,9.76,0,15.96-12.99,28.95-28.95,28.95s-28.95-12.99-28.95-28.95c0-3.42.6-6.71,1.7-9.76h-45.27Z"/>
        <path class="cls-2" d="m428.59,644.14c-35.79,0-64.91-29.12-64.91-64.91s29.12-64.91,64.91-64.91,64.91,29.12,64.91,64.91-29.12,64.91-64.91,64.91Zm0-90.06c-13.87,0-25.15,11.28-25.15,25.15s11.28,25.15,25.15,25.15,25.15-11.28,25.15-25.15-11.28-25.15-25.15-25.15Z"/>
      </g>
      <g>
        <path d="m3.72,1161.5c-1.16,0-2.07-.35-2.73-1.05-.66-.7-.99-1.67-.99-2.92v-80.25c0-1.32.35-2.31,1.05-2.98.7-.66,1.63-.99,2.79-.99h29.15c9.26,0,16.37,2.23,21.33,6.7,4.96,4.47,7.44,10.83,7.44,19.1s-2.48,14.53-7.44,19.04c-4.96,4.51-12.07,6.76-21.33,6.76H7.57v32.62c0,1.24-.31,2.21-.93,2.92s-1.59,1.05-2.91,1.05Zm3.85-43.29h24.81c7.19,0,12.61-1.61,16.25-4.84,3.64-3.22,5.46-7.98,5.46-14.26s-1.82-11.06-5.46-14.33c-3.64-3.27-9.05-4.9-16.25-4.9H7.57v38.33Z"/>
        <path d="m93.27,1161.75c-5.54,0-9.82-1.74-12.84-5.21-3.02-3.47-4.53-8.39-4.53-14.76v-65.37c0-1.32.33-2.29.99-2.92.66-.62,1.61-.93,2.85-.93,1.16,0,2.07.31,2.73.93.66.62.99,1.59.99,2.92v64.5c0,4.8.95,8.37,2.85,10.73,1.9,2.36,4.67,3.53,8.31,3.53.83,0,1.53-.04,2.11-.12.58-.08,1.16-.12,1.74-.12.74-.08,1.3.06,1.67.43.37.37.56,1.14.56,2.29s-.29,2.03-.87,2.6c-.58.58-1.53.99-2.85,1.24-.58.08-1.18.14-1.8.19-.62.04-1.26.06-1.92.06Z"/>
        <path d="m129.86,1161.75c-4.05,0-7.67-.79-10.85-2.36-3.18-1.57-5.71-3.72-7.57-6.45-1.86-2.73-2.79-5.79-2.79-9.18,0-4.47,1.12-7.98,3.35-10.54,2.23-2.56,5.99-4.36,11.29-5.4,5.29-1.03,12.57-1.55,21.83-1.55h5.33v5.58h-5.21c-7.44,0-13.25.31-17.43.93-4.18.62-7.09,1.76-8.74,3.41-1.66,1.66-2.48,3.97-2.48,6.95,0,3.72,1.28,6.74,3.85,9.05,2.56,2.32,6.03,3.47,10.42,3.47,3.55,0,6.68-.85,9.36-2.54,2.69-1.69,4.82-4.03,6.39-7.01,1.57-2.98,2.36-6.37,2.36-10.17v-14.14c0-5.54-1.12-9.57-3.35-12.09-2.23-2.52-5.79-3.78-10.67-3.78-3.14,0-6.18.42-9.12,1.24-2.94.83-6.06,2.15-9.36,3.97-.91.5-1.72.66-2.42.5-.7-.16-1.24-.5-1.61-.99-.37-.5-.62-1.1-.74-1.8-.12-.7-.02-1.38.31-2.05.33-.66.91-1.2,1.74-1.61,3.47-1.9,7.01-3.33,10.6-4.28,3.6-.95,7.09-1.43,10.48-1.43,4.88,0,8.91.83,12.09,2.48,3.18,1.66,5.54,4.14,7.07,7.44,1.53,3.31,2.29,7.57,2.29,12.78v35.47c0,1.24-.29,2.19-.87,2.85-.58.66-1.45.99-2.6.99s-2.07-.33-2.73-.99c-.66-.66-.99-1.61-.99-2.85v-11.41h1.24c-.74,3.22-2.07,6-3.97,8.31-1.9,2.32-4.26,4.09-7.07,5.33-2.81,1.24-5.95,1.86-9.43,1.86Z"/>
        <path d="m198.7,1161.75c-4.47,0-8.19-.83-11.16-2.48-2.98-1.65-5.21-4.03-6.7-7.13-1.49-3.1-2.23-6.92-2.23-11.47v-33.99h-9.18c-1.08,0-1.94-.27-2.6-.81-.66-.54-.99-1.3-.99-2.29,0-.91.33-1.63.99-2.17.66-.54,1.53-.81,2.6-.81h9.18v-15.5c0-1.32.33-2.29.99-2.92.66-.62,1.61-.93,2.85-.93,1.16,0,2.07.31,2.73.93.66.62.99,1.59.99,2.92v15.5h16.75c1.16,0,2.03.27,2.6.81.58.54.87,1.26.87,2.17,0,.99-.29,1.76-.87,2.29-.58.54-1.45.81-2.6.81h-16.75v32.99c0,5.05,1.03,8.89,3.1,11.54,2.07,2.65,5.5,3.97,10.3,3.97,1.65,0,3.04-.19,4.16-.56,1.12-.37,2.05-.56,2.79-.56.58,0,1.1.25,1.55.74.45.5.68,1.28.68,2.36,0,.66-.15,1.32-.43,1.98-.29.66-.81,1.08-1.55,1.24-.91.33-2.15.64-3.72.93-1.57.29-3.02.43-4.34.43Z"/>
        <path d="m236.16,1161.75c-4.05,0-7.67-.79-10.85-2.36-3.18-1.57-5.71-3.72-7.57-6.45-1.86-2.73-2.79-5.79-2.79-9.18,0-4.47,1.12-7.98,3.35-10.54,2.23-2.56,5.99-4.36,11.29-5.4,5.29-1.03,12.57-1.55,21.83-1.55h5.33v5.58h-5.21c-7.44,0-13.25.31-17.43.93-4.18.62-7.09,1.76-8.74,3.41-1.65,1.66-2.48,3.97-2.48,6.95,0,3.72,1.28,6.74,3.85,9.05,2.56,2.32,6.04,3.47,10.42,3.47,3.55,0,6.68-.85,9.36-2.54,2.69-1.69,4.82-4.03,6.39-7.01,1.57-2.98,2.36-6.37,2.36-10.17v-14.14c0-5.54-1.12-9.57-3.35-12.09-2.23-2.52-5.79-3.78-10.67-3.78-3.14,0-6.18.42-9.12,1.24-2.94.83-6.06,2.15-9.37,3.97-.91.5-1.72.66-2.42.5-.7-.16-1.24-.5-1.61-.99s-.62-1.1-.74-1.8c-.12-.7-.02-1.38.31-2.05.33-.66.91-1.2,1.74-1.61,3.47-1.9,7.01-3.33,10.61-4.28,3.6-.95,7.09-1.43,10.48-1.43,4.88,0,8.91.83,12.09,2.48,3.18,1.66,5.54,4.14,7.07,7.44,1.53,3.31,2.29,7.57,2.29,12.78v35.47c0,1.24-.29,2.19-.87,2.85-.58.66-1.45.99-2.6.99s-2.07-.33-2.73-.99c-.66-.66-.99-1.61-.99-2.85v-11.41h1.24c-.74,3.22-2.07,6-3.97,8.31-1.9,2.32-4.26,4.09-7.07,5.33-2.81,1.24-5.95,1.86-9.43,1.86Z"/>
        <path d="m289,1161.5c-1.24,0-2.19-.33-2.85-.99-.66-.66-.99-1.61-.99-2.85v-50.98h-8.81c-1.08,0-1.92-.27-2.54-.81-.62-.54-.93-1.3-.93-2.29,0-.91.31-1.63.93-2.17.62-.54,1.47-.81,2.54-.81h10.79l-1.98,1.98v-4.96c0-7.61,1.82-13.44,5.46-17.49,3.64-4.05,9.05-6.41,16.25-7.07l3.35-.25c.91-.08,1.63.06,2.17.43.54.37.91.85,1.12,1.43.21.58.23,1.18.06,1.8-.17.62-.48,1.16-.93,1.61s-1.01.72-1.67.81l-3.47.37c-5.13.41-8.87,2.09-11.23,5.02-2.36,2.94-3.54,7.17-3.54,12.71v5.33l-1.12-1.74h15.88c1.16,0,2.03.27,2.6.81.58.54.87,1.26.87,2.17,0,.99-.29,1.76-.87,2.29-.58.54-1.45.81-2.6.81h-14.76v50.98c0,2.56-1.24,3.84-3.72,3.84Z"/>
        <path d="m343.95,1161.75c-5.62,0-10.5-1.28-14.64-3.85-4.14-2.56-7.34-6.16-9.61-10.79-2.28-4.63-3.41-10.13-3.41-16.5,0-4.71.64-8.97,1.92-12.78,1.28-3.8,3.14-7.09,5.58-9.86,2.44-2.77,5.37-4.88,8.81-6.33,3.43-1.45,7.21-2.17,11.35-2.17,5.71,0,10.62,1.28,14.76,3.85,4.13,2.56,7.34,6.18,9.61,10.85,2.27,4.67,3.41,10.15,3.41,16.43,0,4.8-.64,9.1-1.92,12.9-1.28,3.8-3.14,7.07-5.58,9.8-2.44,2.73-5.35,4.82-8.74,6.26-3.39,1.45-7.24,2.17-11.54,2.17Zm0-6.33c4.13,0,7.71-.97,10.73-2.92,3.02-1.94,5.33-4.78,6.95-8.5,1.61-3.72,2.42-8.19,2.42-13.4,0-7.85-1.8-13.93-5.4-18.23-3.6-4.3-8.5-6.45-14.7-6.45-4.05,0-7.59.97-10.6,2.92-3.02,1.94-5.33,4.76-6.95,8.43-1.61,3.68-2.42,8.12-2.42,13.33,0,7.94,1.82,14.06,5.46,18.36,3.64,4.3,8.48,6.45,14.51,6.45Z"/>
        <path d="m391.7,1161.5c-1.24,0-2.19-.33-2.85-.99-.66-.66-.99-1.61-.99-2.85v-53.96c0-1.32.33-2.31.99-2.98s1.61-.99,2.85-.99c1.16,0,2.05.33,2.67.99.62.66.93,1.65.93,2.98v11.04h-1.24c1.49-4.88,4.16-8.64,8-11.29,3.85-2.65,8.45-4.01,13.83-4.09.99-.08,1.82.12,2.48.62.66.5.99,1.28.99,2.36.08,1.16-.17,2.05-.74,2.67-.58.62-1.53,1.01-2.85,1.18l-1.74.12c-5.87.58-10.42,2.52-13.64,5.83-3.22,3.31-4.84,7.77-4.84,13.4v32.13c0,1.24-.31,2.19-.93,2.85-.62.66-1.59.99-2.92.99Z"/>
        <path d="m434.37,1161.5c-1.24,0-2.19-.33-2.85-.99-.66-.66-.99-1.61-.99-2.85v-53.96c0-1.32.33-2.31.99-2.98.66-.66,1.61-.99,2.85-.99,1.16,0,2.05.33,2.67.99.62.66.93,1.65.93,2.98v11.78l-1.36-.87c1.49-4.88,4.01-8.62,7.57-11.23,3.55-2.6,7.81-3.91,12.78-3.91,5.29,0,9.53,1.28,12.71,3.85,3.18,2.56,5.27,6.41,6.26,11.54h-1.86c1.41-4.63,4.03-8.35,7.88-11.16,3.85-2.81,8.37-4.22,13.58-4.22,4.47,0,8.17.87,11.1,2.61,2.93,1.74,5.15,4.32,6.64,7.75,1.49,3.43,2.23,7.75,2.23,12.96v34.85c0,1.24-.33,2.19-.99,2.85-.66.66-1.61.99-2.85.99-1.16,0-2.07-.33-2.73-.99-.66-.66-.99-1.61-.99-2.85v-34.23c0-6.03-1.05-10.44-3.16-13.21-2.11-2.77-5.64-4.16-10.6-4.16-5.29,0-9.51,1.84-12.65,5.52-3.14,3.68-4.71,8.66-4.71,14.95v31.13c0,1.24-.33,2.19-.99,2.85-.66.66-1.57.99-2.73.99-1.24,0-2.19-.33-2.85-.99-.66-.66-.99-1.61-.99-2.85v-34.23c0-6.03-1.05-10.44-3.16-13.21-2.11-2.77-5.6-4.16-10.48-4.16-5.38,0-9.63,1.84-12.78,5.52-3.14,3.68-4.71,8.66-4.71,14.95v31.13c0,2.56-1.24,3.84-3.72,3.84Z"/>
        <path d="m553.94,1161.75c-4.05,0-7.67-.79-10.85-2.36-3.18-1.57-5.71-3.72-7.57-6.45-1.86-2.73-2.79-5.79-2.79-9.18,0-4.47,1.12-7.98,3.35-10.54,2.23-2.56,5.99-4.36,11.29-5.4,5.29-1.03,12.57-1.55,21.83-1.55h5.33v5.58h-5.21c-7.44,0-13.25.31-17.43.93-4.18.62-7.09,1.76-8.74,3.41-1.66,1.66-2.48,3.97-2.48,6.95,0,3.72,1.28,6.74,3.85,9.05,2.56,2.32,6.03,3.47,10.42,3.47,3.55,0,6.68-.85,9.36-2.54,2.69-1.69,4.82-4.03,6.39-7.01,1.57-2.98,2.36-6.37,2.36-10.17v-14.14c0-5.54-1.12-9.57-3.35-12.09-2.23-2.52-5.79-3.78-10.67-3.78-3.14,0-6.18.42-9.12,1.24-2.94.83-6.06,2.15-9.36,3.97-.91.5-1.72.66-2.42.5-.7-.16-1.24-.5-1.61-.99-.37-.5-.62-1.1-.74-1.8-.12-.7-.02-1.38.31-2.05.33-.66.91-1.2,1.74-1.61,3.47-1.9,7.01-3.33,10.6-4.28,3.6-.95,7.09-1.43,10.48-1.43,4.88,0,8.91.83,12.09,2.48,3.18,1.66,5.54,4.14,7.07,7.44,1.53,3.31,2.29,7.57,2.29,12.78v35.47c0,1.24-.29,2.19-.87,2.85-.58.66-1.45.99-2.6.99s-2.07-.33-2.73-.99c-.66-.66-.99-1.61-.99-2.85v-11.41h1.24c-.74,3.22-2.07,6-3.97,8.31-1.9,2.32-4.26,4.09-7.07,5.33-2.81,1.24-5.95,1.86-9.43,1.86Z"/>
        <path d="m637.04,1160.76c-1.32,0-2.36-.37-3.1-1.12-.74-.74-1.12-1.82-1.12-3.22v-78.76c0-1.4.37-2.48,1.12-3.22.74-.74,1.78-1.12,3.1-1.12h23.94c13.89,0,24.62,3.72,32.19,11.16,7.57,7.44,11.35,18.28,11.35,32.5,0,7.11-.97,13.4-2.91,18.85-1.94,5.46-4.78,10.03-8.5,13.71-3.72,3.68-8.27,6.47-13.64,8.37-5.38,1.9-11.54,2.85-18.48,2.85h-23.94Zm3.35-6.7h19.97c6.04,0,11.31-.79,15.81-2.36,4.51-1.57,8.25-3.89,11.23-6.95,2.98-3.06,5.21-6.92,6.7-11.6,1.49-4.67,2.23-10.07,2.23-16.19,0-12.32-3-21.56-8.99-27.72-6-6.16-14.99-9.24-26.98-9.24h-19.97v74.05Z"/>
        <path d="m726.1,1085.09c-1.74,0-3.08-.45-4.03-1.36-.95-.91-1.43-2.19-1.43-3.85s.47-2.91,1.43-3.78c.95-.87,2.29-1.3,4.03-1.3s3.08.43,4.03,1.3c.95.87,1.43,2.13,1.43,3.78s-.48,2.94-1.43,3.85c-.95.91-2.29,1.36-4.03,1.36Zm0,76.16c-1.24,0-2.19-.37-2.85-1.12-.66-.74-.99-1.74-.99-2.98v-53.09c0-1.32.33-2.31.99-2.98s1.61-.99,2.85-.99c1.16,0,2.07.33,2.73.99.66.66.99,1.66.99,2.98v53.09c0,1.24-.31,2.23-.93,2.98-.62.74-1.55,1.12-2.79,1.12Z"/>
        <path d="m775.96,1184.07c-4.47,0-8.79-.56-12.96-1.67-4.18-1.12-7.96-2.92-11.35-5.4-.66-.41-1.1-.95-1.3-1.61-.21-.66-.23-1.3-.06-1.92.16-.62.47-1.18.93-1.67.45-.5.99-.79,1.61-.87.62-.08,1.26.04,1.92.37,3.64,2.4,7.13,4.07,10.48,5.02,3.35.95,6.84,1.43,10.48,1.43,6.04,0,10.62-1.67,13.77-5.02,3.14-3.35,4.71-8.12,4.71-14.33v-15.38h1.24c-1.24,5.13-3.89,9.14-7.94,12.03-4.05,2.9-8.85,4.34-14.39,4.34s-10.34-1.26-14.39-3.78c-4.05-2.52-7.17-6.03-9.37-10.54-2.19-4.51-3.29-9.74-3.29-15.69,0-4.47.62-8.52,1.86-12.16,1.24-3.64,3.04-6.78,5.4-9.43,2.36-2.65,5.19-4.69,8.5-6.14,3.31-1.45,7.07-2.17,11.29-2.17,5.54,0,10.34,1.47,14.39,4.4,4.05,2.94,6.66,6.88,7.81,11.85l-1.24.74v-12.78c0-1.32.33-2.31.99-2.98s1.57-.99,2.73-.99c1.24,0,2.17.33,2.79.99.62.66.93,1.65.93,2.98v53.58c0,8.85-2.15,15.52-6.45,20.03-4.3,4.51-10.67,6.76-19.1,6.76Zm-1.98-31.13c4.13,0,7.71-.97,10.73-2.91,3.02-1.94,5.35-4.67,7.01-8.19,1.65-3.51,2.48-7.67,2.48-12.47,0-7.19-1.82-12.9-5.46-17.12-3.64-4.22-8.56-6.33-14.76-6.33-4.14,0-7.73.95-10.79,2.85-3.06,1.9-5.4,4.61-7.01,8.12-1.61,3.52-2.42,7.67-2.42,12.47,0,7.19,1.82,12.92,5.46,17.18,3.64,4.26,8.56,6.39,14.76,6.39Z"/>
        <path d="m825.32,1085.09c-1.74,0-3.08-.45-4.03-1.36-.95-.91-1.43-2.19-1.43-3.85s.47-2.91,1.43-3.78c.95-.87,2.29-1.3,4.03-1.3s3.08.43,4.03,1.3c.95.87,1.43,2.13,1.43,3.78s-.48,2.94-1.43,3.85c-.95.91-2.29,1.36-4.03,1.36Zm0,76.16c-1.24,0-2.19-.37-2.85-1.12-.66-.74-.99-1.74-.99-2.98v-53.09c0-1.32.33-2.31.99-2.98s1.61-.99,2.85-.99c1.16,0,2.07.33,2.73.99.66.66.99,1.66.99,2.98v53.09c0,1.24-.31,2.23-.93,2.98-.62.74-1.55,1.12-2.79,1.12Z"/>
        <path d="m871.71,1161.75c-4.47,0-8.19-.83-11.16-2.48-2.98-1.65-5.21-4.03-6.7-7.13-1.49-3.1-2.23-6.92-2.23-11.47v-33.99h-9.18c-1.08,0-1.94-.27-2.6-.81-.66-.54-.99-1.3-.99-2.29,0-.91.33-1.63.99-2.17.66-.54,1.53-.81,2.6-.81h9.18v-15.5c0-1.32.33-2.29.99-2.92.66-.62,1.61-.93,2.85-.93,1.16,0,2.07.31,2.73.93.66.62.99,1.59.99,2.92v15.5h16.74c1.16,0,2.03.27,2.6.81.58.54.87,1.26.87,2.17,0,.99-.29,1.76-.87,2.29-.58.54-1.45.81-2.6.81h-16.74v32.99c0,5.05,1.03,8.89,3.1,11.54,2.07,2.65,5.5,3.97,10.29,3.97,1.65,0,3.04-.19,4.16-.56,1.12-.37,2.05-.56,2.79-.56.58,0,1.1.25,1.55.74.45.5.68,1.28.68,2.36,0,.66-.15,1.32-.43,1.98-.29.66-.81,1.08-1.55,1.24-.91.33-2.15.64-3.72.93-1.57.29-3.02.43-4.34.43Z"/>
        <path d="m909.17,1161.75c-4.05,0-7.67-.79-10.85-2.36-3.18-1.57-5.71-3.72-7.57-6.45s-2.79-5.79-2.79-9.18c0-4.47,1.12-7.98,3.35-10.54,2.23-2.56,5.99-4.36,11.29-5.4,5.29-1.03,12.57-1.55,21.83-1.55h5.33v5.58h-5.21c-7.44,0-13.25.31-17.43.93-4.18.62-7.09,1.76-8.74,3.41-1.66,1.66-2.48,3.97-2.48,6.95,0,3.72,1.28,6.74,3.85,9.05,2.56,2.32,6.04,3.47,10.42,3.47,3.55,0,6.68-.85,9.37-2.54,2.69-1.69,4.82-4.03,6.39-7.01,1.57-2.98,2.36-6.37,2.36-10.17v-14.14c0-5.54-1.12-9.57-3.35-12.09-2.23-2.52-5.79-3.78-10.67-3.78-3.14,0-6.18.42-9.12,1.24-2.94.83-6.06,2.15-9.36,3.97-.91.5-1.72.66-2.42.5-.7-.16-1.24-.5-1.61-.99-.37-.5-.62-1.1-.74-1.8-.12-.7-.02-1.38.31-2.05.33-.66.91-1.2,1.74-1.61,3.47-1.9,7.01-3.33,10.6-4.28,3.6-.95,7.09-1.43,10.48-1.43,4.88,0,8.91.83,12.09,2.48,3.18,1.66,5.54,4.14,7.07,7.44,1.53,3.31,2.29,7.57,2.29,12.78v35.47c0,1.24-.29,2.19-.87,2.85-.58.66-1.45.99-2.6.99s-2.07-.33-2.73-.99c-.66-.66-.99-1.61-.99-2.85v-11.41h1.24c-.74,3.22-2.07,6-3.97,8.31-1.9,2.32-4.26,4.09-7.07,5.33-2.81,1.24-5.95,1.86-9.43,1.86Z"/>
        <path d="m972.67,1161.75c-5.54,0-9.82-1.74-12.84-5.21-3.02-3.47-4.53-8.39-4.53-14.76v-65.37c0-1.32.33-2.29.99-2.92.66-.62,1.61-.93,2.85-.93,1.16,0,2.07.31,2.73.93.66.62.99,1.59.99,2.92v64.5c0,4.8.95,8.37,2.85,10.73,1.9,2.36,4.67,3.53,8.31,3.53.83,0,1.53-.04,2.11-.12.58-.08,1.16-.12,1.74-.12.74-.08,1.3.06,1.67.43.37.37.56,1.14.56,2.29s-.29,2.03-.87,2.6c-.58.58-1.53.99-2.85,1.24-.58.08-1.18.14-1.8.19-.62.04-1.26.06-1.92.06Z"/>
        <path d="m1027.62,1160.76c-1.32,0-2.36-.37-3.1-1.12-.74-.74-1.12-1.82-1.12-3.22v-78.76c0-1.4.37-2.48,1.12-3.22.74-.74,1.78-1.12,3.1-1.12h46.89c1.16,0,2.03.29,2.6.87.58.58.87,1.36.87,2.36,0,1.16-.29,2.01-.87,2.54-.58.54-1.45.81-2.6.81h-43.66v33.24h41.18c1.16,0,2.03.27,2.61.81.58.54.87,1.34.87,2.42s-.29,1.9-.87,2.48c-.58.58-1.45.87-2.61.87h-41.18v34.48h43.66c1.16,0,2.03.27,2.6.81.58.54.87,1.34.87,2.42s-.29,1.9-.87,2.48c-.58.58-1.45.87-2.6.87h-46.89Z"/>
        <path d="m1115.68,1161.75c-5.38,0-10.07-1.26-14.08-3.78-4.01-2.52-7.11-6.12-9.3-10.79-2.19-4.67-3.29-10.19-3.29-16.56s1.07-11.86,3.22-16.5c2.15-4.63,5.23-8.23,9.24-10.79,4.01-2.56,8.74-3.85,14.2-3.85s10.42,1.45,14.39,4.34c3.97,2.9,6.61,6.78,7.94,11.66h-1.36v-39.07c0-1.32.33-2.29.99-2.92.66-.62,1.57-.93,2.73-.93,1.24,0,2.19.31,2.85.93.66.62.99,1.59.99,2.92v81.24c0,1.24-.33,2.19-.99,2.85-.66.66-1.57.99-2.73.99-1.24,0-2.19-.33-2.85-.99-.66-.66-.99-1.61-.99-2.85v-12.78l1.36.87c-1.32,4.88-3.97,8.77-7.94,11.66-3.97,2.9-8.77,4.34-14.39,4.34Zm.99-6.33c4.13,0,7.71-.97,10.73-2.92,3.02-1.94,5.33-4.78,6.95-8.5,1.61-3.72,2.42-8.19,2.42-13.4,0-7.85-1.8-13.93-5.4-18.23-3.6-4.3-8.5-6.45-14.7-6.45-4.05,0-7.59.97-10.6,2.92-3.02,1.94-5.33,4.76-6.95,8.43-1.61,3.68-2.42,8.12-2.42,13.33,0,7.94,1.82,14.06,5.46,18.36,3.64,4.3,8.48,6.45,14.51,6.45Z"/>
        <path d="m1185.27,1161.75c-4.8,0-8.79-.87-11.97-2.6-3.18-1.74-5.56-4.34-7.13-7.81-1.57-3.47-2.36-7.77-2.36-12.9v-34.73c0-1.32.33-2.31.99-2.98s1.61-.99,2.85-.99c1.16,0,2.07.33,2.73.99.66.66.99,1.65.99,2.98v34.36c0,5.79,1.2,10.11,3.6,12.96,2.4,2.85,6.16,4.28,11.29,4.28,5.62,0,10.17-1.88,13.64-5.64,3.47-3.76,5.21-8.7,5.21-14.82v-31.13c0-1.32.33-2.31.99-2.98.66-.66,1.61-.99,2.85-.99,1.16,0,2.07.33,2.73.99.66.66.99,1.65.99,2.98v53.96c0,2.56-1.2,3.84-3.6,3.84-1.16,0-2.07-.33-2.73-.99-.66-.66-.99-1.61-.99-2.85v-12.28l1.49.87c-1.57,5.04-4.3,8.89-8.19,11.54-3.89,2.65-8.35,3.97-13.4,3.97Z"/>
        <path d="m1257.21,1161.75c-5.87,0-10.92-1.3-15.13-3.91-4.22-2.6-7.46-6.28-9.74-11.04-2.28-4.75-3.41-10.27-3.41-16.56,0-4.79.64-9.07,1.92-12.84,1.28-3.76,3.14-6.97,5.58-9.61,2.44-2.65,5.41-4.69,8.93-6.14,3.51-1.45,7.46-2.17,11.85-2.17,3.06,0,6.2.52,9.43,1.55,3.22,1.03,6.16,2.75,8.81,5.15.58.5.95,1.08,1.12,1.74.16.66.12,1.3-.12,1.92-.25.62-.62,1.12-1.12,1.49-.5.37-1.1.58-1.8.62-.7.04-1.43-.27-2.17-.93-2.32-1.9-4.65-3.2-7.01-3.91-2.36-.7-4.65-1.05-6.88-1.05-3.39,0-6.37.54-8.93,1.61-2.56,1.08-4.73,2.65-6.51,4.71-1.78,2.07-3.12,4.61-4.03,7.63-.91,3.02-1.36,6.47-1.36,10.36,0,7.77,1.8,13.87,5.4,18.3,3.6,4.42,8.74,6.64,15.44,6.64,2.23,0,4.53-.35,6.88-1.05,2.36-.7,4.69-2,7.01-3.91.74-.66,1.47-.97,2.17-.93.7.04,1.3.25,1.8.62.5.37.85.87,1.05,1.49.21.62.23,1.26.06,1.92-.17.66-.54,1.24-1.12,1.74-2.56,2.4-5.46,4.09-8.68,5.09s-6.37,1.49-9.43,1.49Z"/>
        <path d="m1307.57,1161.75c-4.05,0-7.67-.79-10.85-2.36-3.18-1.57-5.71-3.72-7.57-6.45s-2.79-5.79-2.79-9.18c0-4.47,1.12-7.98,3.35-10.54,2.23-2.56,5.99-4.36,11.29-5.4,5.29-1.03,12.57-1.55,21.83-1.55h5.33v5.58h-5.21c-7.44,0-13.25.31-17.43.93-4.18.62-7.09,1.76-8.74,3.41-1.65,1.66-2.48,3.97-2.48,6.95,0,3.72,1.28,6.74,3.85,9.05,2.56,2.32,6.04,3.47,10.42,3.47,3.55,0,6.68-.85,9.36-2.54,2.69-1.69,4.82-4.03,6.39-7.01,1.57-2.98,2.36-6.37,2.36-10.17v-14.14c0-5.54-1.12-9.57-3.35-12.09-2.23-2.52-5.79-3.78-10.67-3.78-3.14,0-6.18.42-9.12,1.24-2.94.83-6.06,2.15-9.36,3.97-.91.5-1.72.66-2.42.5-.7-.16-1.24-.5-1.61-.99-.37-.5-.62-1.1-.74-1.8-.12-.7-.02-1.38.31-2.05.33-.66.91-1.2,1.74-1.61,3.47-1.9,7.01-3.33,10.6-4.28,3.6-.95,7.09-1.43,10.48-1.43,4.88,0,8.91.83,12.09,2.48,3.18,1.66,5.54,4.14,7.07,7.44,1.53,3.31,2.29,7.57,2.29,12.78v35.47c0,1.24-.29,2.19-.87,2.85-.58.66-1.45.99-2.6.99s-2.07-.33-2.73-.99c-.66-.66-.99-1.61-.99-2.85v-11.41h1.24c-.74,3.22-2.07,6-3.97,8.31-1.9,2.32-4.26,4.09-7.07,5.33-2.81,1.24-5.95,1.86-9.43,1.86Z"/>
        <path d="m1376.41,1161.75c-4.47,0-8.19-.83-11.16-2.48-2.98-1.65-5.21-4.03-6.7-7.13-1.49-3.1-2.23-6.92-2.23-11.47v-33.99h-9.18c-1.08,0-1.94-.27-2.6-.81-.66-.54-.99-1.3-.99-2.29,0-.91.33-1.63.99-2.17.66-.54,1.53-.81,2.6-.81h9.18v-15.5c0-1.32.33-2.29.99-2.92.66-.62,1.61-.93,2.85-.93,1.16,0,2.07.31,2.73.93.66.62.99,1.59.99,2.92v15.5h16.74c1.16,0,2.03.27,2.6.81.58.54.87,1.26.87,2.17,0,.99-.29,1.76-.87,2.29-.58.54-1.45.81-2.6.81h-16.74v32.99c0,5.05,1.03,8.89,3.1,11.54,2.07,2.65,5.5,3.97,10.3,3.97,1.65,0,3.04-.19,4.16-.56,1.12-.37,2.05-.56,2.79-.56.58,0,1.09.25,1.55.74.45.5.68,1.28.68,2.36,0,.66-.15,1.32-.43,1.98-.29.66-.81,1.08-1.55,1.24-.91.33-2.15.64-3.72.93-1.57.29-3.02.43-4.34.43Z"/>
        <path d="m1399.48,1085.09c-1.74,0-3.08-.45-4.03-1.36-.95-.91-1.43-2.19-1.43-3.85s.47-2.91,1.43-3.78c.95-.87,2.29-1.3,4.03-1.3s3.08.43,4.03,1.3c.95.87,1.43,2.13,1.43,3.78s-.48,2.94-1.43,3.85c-.95.91-2.29,1.36-4.03,1.36Zm0,76.16c-1.24,0-2.19-.37-2.85-1.12-.66-.74-.99-1.74-.99-2.98v-53.09c0-1.32.33-2.31.99-2.98s1.61-.99,2.85-.99c1.16,0,2.07.33,2.73.99.66.66.99,1.66.99,2.98v53.09c0,1.24-.31,2.23-.93,2.98-.62.74-1.55,1.12-2.79,1.12Z"/>
        <path d="m1444.87,1161.5c-1.24,0-2.28-.33-3.1-.99-.83-.66-1.57-1.65-2.23-2.98l-22.33-52.1c-.41-.99-.56-1.92-.43-2.79.12-.87.5-1.57,1.12-2.11.62-.54,1.51-.81,2.67-.81,1.07,0,1.88.25,2.42.74.54.5,1.01,1.28,1.43,2.36l22.08,53.34h-3.1l22.2-53.34c.41-1.07.91-1.86,1.49-2.36.58-.5,1.4-.74,2.48-.74s1.88.27,2.42.81c.54.54.85,1.22.93,2.05.08.83-.08,1.74-.5,2.73l-22.33,52.22c-.5,1.32-1.2,2.32-2.11,2.98-.91.66-1.94.99-3.1.99Z"/>
        <path d="m1503.66,1161.75c-4.05,0-7.67-.79-10.85-2.36-3.18-1.57-5.71-3.72-7.57-6.45-1.86-2.73-2.79-5.79-2.79-9.18,0-4.47,1.12-7.98,3.35-10.54,2.23-2.56,5.99-4.36,11.29-5.4,5.29-1.03,12.57-1.55,21.83-1.55h5.33v5.58h-5.21c-7.44,0-13.25.31-17.43.93-4.18.62-7.09,1.76-8.74,3.41-1.65,1.66-2.48,3.97-2.48,6.95,0,3.72,1.28,6.74,3.85,9.05,2.56,2.32,6.04,3.47,10.42,3.47,3.55,0,6.68-.85,9.36-2.54,2.69-1.69,4.82-4.03,6.39-7.01,1.57-2.98,2.36-6.37,2.36-10.17v-14.14c0-5.54-1.12-9.57-3.35-12.09-2.23-2.52-5.79-3.78-10.67-3.78-3.14,0-6.18.42-9.12,1.24-2.94.83-6.06,2.15-9.36,3.97-.91.5-1.72.66-2.42.5-.7-.16-1.24-.5-1.61-.99-.37-.5-.62-1.1-.74-1.8-.12-.7-.02-1.38.31-2.05.33-.66.91-1.2,1.74-1.61,3.47-1.9,7.01-3.33,10.6-4.28,3.6-.95,7.09-1.43,10.48-1.43,4.88,0,8.91.83,12.09,2.48,3.18,1.66,5.54,4.14,7.07,7.44,1.53,3.31,2.29,7.57,2.29,12.78v35.47c0,1.24-.29,2.19-.87,2.85-.58.66-1.45.99-2.6.99s-2.07-.33-2.73-.99c-.66-.66-.99-1.61-.99-2.85v-11.41h1.24c-.74,3.22-2.07,6-3.97,8.31-1.9,2.32-4.26,4.09-7.07,5.33-2.81,1.24-5.95,1.86-9.43,1.86Z"/>
      </g>
      <g>
        <path class="cls-1" d="m6.59,988.74h17.05c2.16,0,3.92,1.75,3.92,3.92v38.48c0,2.16-1.75,3.92-3.92,3.92H6.6c-2.16,0-3.92-1.75-3.92-3.92v-38.48c0-1.04.41-2.04,1.15-2.77.73-.73,1.73-1.15,2.77-1.15Zm0-53.22h17.05c2.16,0,3.92,1.75,3.92,3.92v38.47c0,2.16-1.75,3.92-3.92,3.92H6.6c-2.16,0-3.92-1.75-3.92-3.92v-38.47c0-2.16,1.75-3.92,3.92-3.92Z"/>
        <path class="cls-1" d="m142.67,973.15v24.48c0,26.97-22.26,37.16-37.21,37.44h-27.43c-2.16,0-3.92-1.75-3.92-3.92v-17.05c0-2.16,1.75-3.92,3.92-3.92h26.95c4.84-.23,12.8-2.2,12.8-12.56v-24.67c-.11-2.57-.77-5.08-1.92-7.38-1.37-2.53-3.71-5.1-10.68-5.1-12.43,0-24.71-.01-34.04-.03-1.04,0-2.04.41-2.77,1.15-.74.73-1.15,1.73-1.15,2.77v66.78c0,2.16-1.76,3.92-3.92,3.92h-17.05c-2.16,0-3.92-1.75-3.92-3.92v-91.71c0-1.04.41-2.04,1.15-2.77.74-.73,1.74-1.15,2.78-1.14l8.54.02s24.87.05,50.38.05c13.79,0,22.21,5.63,26.85,10.36,10.34,10.54,10.66,24.9,10.65,27.2Z"/>
        <path class="cls-1" d="m161.34,988.74h17.05c2.16,0,3.92,1.75,3.92,3.92v38.48c0,2.16-1.75,3.92-3.92,3.92h-17.05c-2.16,0-3.92-1.75-3.92-3.92v-38.48c0-1.04.41-2.04,1.15-2.77.73-.73,1.73-1.15,2.77-1.15Zm0-53.22h17.05c2.16,0,3.92,1.75,3.92,3.92v38.47c0,2.16-1.75,3.92-3.92,3.92h-17.05c-2.16,0-3.92-1.75-3.92-3.92v-38.47c0-2.16,1.75-3.92,3.92-3.92Z"/>
        <path class="cls-1" d="m254.8,936.18c25.61,4.15,43.73,27.27,41.65,53.12-2.08,25.85-23.67,45.78-49.61,45.78s-47.53-19.92-49.61-45.78c-2.08-25.86,16.05-48.97,41.65-53.12,1.12-.18,2.26.13,3.12.86.86.73,1.36,1.8,1.37,2.93v17.57c-.02,1.77-1.24,3.31-2.96,3.74-10.88,2.91-18.45,12.75-18.47,24.01,0,19.4,22.32,33.69,42.63,18.53.32-.24.6-.52.83-.83,13.38-18.04,3.65-37.54-12.23-41.73-1.68-.41-2.87-1.91-2.89-3.64v-17.66c0-1.14.51-2.21,1.38-2.94.87-.73,2.02-1.04,3.14-.85h0Z"/>
        <path class="cls-1" d="m336.17,939.44v91.71c0,2.16-1.76,3.92-3.92,3.92h-17.05c-2.16,0-3.92-1.75-3.92-3.92v-91.7c0-2.16,1.75-3.92,3.92-3.92h17.05c2.16,0,3.91,1.75,3.92,3.91Zm73.85-2.76c.73.73,1.15,1.73,1.15,2.77v91.7c0,2.16-1.75,3.92-3.92,3.92h-17.05c-2.16,0-3.92-1.75-3.92-3.92v-43.79c0-.88-.59-1.65-1.43-1.89-.85-.24-1.75.12-2.2.88l-19.53,32.42c-.35.59-.99.94-1.68.94s-1.32-.36-1.68-.94l-16.11-26.51c-.37-.61-.57-1.32-.57-2.04v-39.82c0-.88.58-1.65,1.43-1.89s1.75.12,2.2.87l12.95,21.31c.36.59.99.94,1.68.94s1.32-.36,1.68-.94l20.04-33.27c.71-1.18,1.98-1.9,3.36-1.9h20.83c1.04,0,2.04.41,2.77,1.15Z"/>
        <path class="cls-1" d="m519.75,1033.41c-.74,1.04-1.93,1.66-3.2,1.66h-18.08c-1.66,0-3.14-1.05-3.69-2.61l-2.64-7.45c-.55-1.57-2.03-2.61-3.69-2.61h-20.37c-1.27,0-2.47-.62-3.2-1.66-.73-1.04-.92-2.37-.49-3.57l6.03-17.05c.55-1.57,2.03-2.61,3.69-2.61h2.77c1.27,0,2.47-.62,3.2-1.66.73-1.04.92-2.37.49-3.57l-3.67-10.37c-.55-1.57-2.03-2.61-3.69-2.61s-3.14,1.05-3.69,2.61l-5.52,15.6h0l-8.8,24.88h0l-3.56,10.06c-.55,1.57-2.03,2.61-3.69,2.61h-18.08c-1.27,0-2.46-.62-3.2-1.66s-.92-2.37-.49-3.57l32.43-91.7c.55-1.57,2.03-2.61,3.69-2.61h21.83c1.66,0,3.14,1.05,3.69,2.61l32.43,91.7c.42,1.2.24,2.53-.5,3.57Z"/>
        <path class="cls-1" d="m633.89,1003.03c0,23.5-18.88,32.03-31.57,32.03l-63.22.11c-1.04,0-2.04-.41-2.77-1.14-.74-.73-1.15-1.73-1.15-2.77l-.03-17.04c0-1.04.41-2.04,1.14-2.77.73-.74,1.73-1.15,2.77-1.15l63.11-.11c6.83-.28,6.83-4.12,6.83-6.35,0-2.66-1.2-5.96-5.51-6.14l-11.25.02c-1.04,0-2.04-.41-2.77-1.15-.74-.73-1.15-1.73-1.15-2.77v-17.01c0-2.16,1.75-3.92,3.92-3.92h11.07c3.18-.17,13.34-.07,21.37,7.16,4.2,3.79,9.22,10.86,9.22,23.02Zm.69-63.59v17.05c0,2.16-1.75,3.92-3.92,3.92h-64.04c-2.21.11-6.57.42-6.57,6.34,0,3.43,1.12,4.23,2.71,4.97,1.44.63,2.98,1.01,4.55,1.13h10.18c2.16,0,3.92,1.75,3.92,3.92v17.03c0,2.16-1.75,3.92-3.91,3.92h-10.19c-5.24-.1-10.39-1.29-15.15-3.49-10.8-5.09-16.99-15.1-16.99-27.49s5.76-22.15,16.21-27.44c4.62-2.31,9.69-3.6,14.85-3.77h64.43c2.16,0,3.92,1.76,3.92,3.92Z"/>
        <path class="cls-1" d="m799.16,939.45v17.05c0,2.16-1.75,3.92-3.92,3.92h-66.81c-1.04,0-2.04.41-2.77,1.15-.73.74-1.15,1.73-1.15,2.77v41.93c0,2.16,1.75,3.92,3.92,3.92h66.81c2.16,0,3.92,1.75,3.92,3.92v17.05c0,2.16-1.75,3.92-3.92,3.92h-91.7c-2.16,0-3.92-1.75-3.92-3.92v-91.7c0-2.16,1.75-3.92,3.92-3.92h91.7c2.16,0,3.92,1.75,3.92,3.92Zm-63.82,58.29c-2.16,0-3.92-1.75-3.92-3.92v-17.05c0-2.16,1.75-3.92,3.92-3.92h59.9c2.16,0,3.92,1.75,3.92,3.92v17.05c0,2.16-1.75,3.92-3.92,3.92h-59.9Z"/>
        <path class="cls-1" d="m838.73,984.15v47c0,2.16-1.76,3.92-3.92,3.92h-17.05c-2.16,0-3.92-1.75-3.92-3.92v-91.7c0-2.16,1.75-3.92,3.92-3.92h17.04c2.16,0,3.92,1.75,3.92,3.92v44.7Zm74.3-44.7v91.7c0,2.16-1.75,3.92-3.92,3.92h-22.08c-1.24,0-2.4-.58-3.14-1.57l-37.47-50.2c-.51-.68-.78-1.5-.78-2.34v-34.4c0-.84.54-1.59,1.34-1.86.8-.27,1.68.01,2.19.69l35.46,47.49c.5.68,1.39.95,2.19.69.8-.27,1.34-1.02,1.34-1.86v-52.25c0-2.16,1.75-3.92,3.92-3.92h17.05c2.16,0,3.92,1.75,3.92,3.92Z"/>
        <path class="cls-1" d="m1076.76,1003.03c0,23.5-18.88,32.03-31.57,32.03l-63.22.11c-1.04,0-2.04-.41-2.77-1.14-.74-.73-1.15-1.73-1.15-2.77l-.03-17.04c0-1.04.41-2.04,1.14-2.77.73-.74,1.73-1.15,2.77-1.15l63.11-.11c6.83-.28,6.83-4.12,6.83-6.35,0-2.66-1.2-5.96-5.51-6.14l-11.25.02c-1.04,0-2.04-.41-2.77-1.15s-1.15-1.73-1.15-2.77v-17.01c0-2.16,1.75-3.92,3.92-3.92h11.07c3.18-.17,13.34-.07,21.37,7.16,4.2,3.79,9.22,10.86,9.22,23.02Zm.69-63.59v17.05c0,2.16-1.75,3.92-3.92,3.92h-64.04c-2.21.11-6.57.42-6.57,6.34,0,3.43,1.12,4.23,2.71,4.97,1.44.63,2.98,1.01,4.55,1.13h10.18c2.16,0,3.92,1.75,3.92,3.92v17.03c0,2.16-1.75,3.92-3.91,3.92h-10.19c-5.24-.1-10.39-1.29-15.15-3.49-10.8-5.09-16.99-15.1-16.99-27.49s5.76-22.15,16.21-27.44c4.62-2.31,9.69-3.6,14.85-3.77h64.43c2.16,0,3.92,1.76,3.92,3.92Z"/>
        <path class="cls-1" d="m1191.77,939.45v17.05c0,2.16-1.75,3.92-3.92,3.92h-66.81c-1.04,0-2.04.41-2.77,1.15-.73.74-1.15,1.73-1.15,2.77v41.93c0,2.16,1.75,3.92,3.92,3.92h66.81c2.16,0,3.92,1.75,3.92,3.92v17.05c0,2.16-1.75,3.92-3.92,3.92h-91.7c-2.16,0-3.92-1.75-3.92-3.92v-91.7c0-2.16,1.75-3.92,3.92-3.92h91.7c2.16,0,3.92,1.75,3.92,3.92Zm-63.82,58.29c-2.16,0-3.92-1.75-3.92-3.92v-17.05c0-2.16,1.75-3.92,3.92-3.92h59.9c2.16,0,3.92,1.75,3.92,3.92v17.05c0,2.16-1.75,3.92-3.92,3.92h-59.9Z"/>
        <path class="cls-1" d="m1231.34,984.15v47c0,2.16-1.76,3.92-3.92,3.92h-17.05c-2.16,0-3.92-1.75-3.92-3.92v-91.7c0-2.16,1.75-3.92,3.92-3.92h17.04c2.16,0,3.92,1.75,3.92,3.92v44.7Zm73.16-47.47c.74.73,1.15,1.73,1.15,2.77v91.7c0,2.16-1.75,3.92-3.92,3.92h-22.08c-1.24,0-2.4-.58-3.14-1.57l-37.47-50.2c-.51-.68-.78-1.5-.78-2.34v-34.4c0-.84.54-1.59,1.34-1.86.8-.27,1.68.01,2.19.69l35.45,47.49c.5.68,1.39.95,2.19.69.8-.27,1.34-1.02,1.34-1.86v-52.25c0-2.16,1.75-3.92,3.92-3.92h17.05c1.04,0,2.04.41,2.77,1.15Zm-54.92-7.22c-.53.53-1.31.74-2.04.54-.73-.2-1.29-.78-1.46-1.52-.18-.73.06-1.5.61-2.02l4.75-4.58c1.23-1.36,3.07-1.99,4.88-1.68,1.73.47,3.1,1.79,3.63,3.5l.86,2.27c.26.7.55.9.64.92s.47-.04,1.04-.58l5.05-4.75c.84-.79,2.15-.75,2.94.09s.75,2.15-.09,2.94l-5.05,4.75c-1.02,1.04-2.39,1.66-3.85,1.72-.33,0-.66-.04-.98-.11-1.72-.47-3.08-1.79-3.61-3.5l-.86-2.27c-.27-.7-.56-.9-.65-.92-.08-.02-.49.04-1.08.62l-4.75,4.58h0Z"/>
        <path class="cls-1" d="m1414.19,1033.41c-.74,1.04-1.93,1.66-3.2,1.66h-18.08c-1.66,0-3.14-1.05-3.69-2.61l-2.64-7.45c-.55-1.57-2.03-2.61-3.69-2.61h-20.37c-1.27,0-2.47-.62-3.2-1.66-.73-1.04-.92-2.37-.49-3.57l6.03-17.05c.55-1.57,2.03-2.61,3.69-2.61h2.77c1.27,0,2.47-.62,3.2-1.66.73-1.04.92-2.37.49-3.57l-3.67-10.37c-.55-1.57-2.03-2.61-3.69-2.61s-3.14,1.05-3.69,2.61l-5.52,15.6h0l-8.8,24.88h0l-3.56,10.06c-.55,1.57-2.03,2.61-3.69,2.61h-18.08c-1.27,0-2.46-.62-3.2-1.66-.73-1.04-.92-2.37-.49-3.57l32.43-91.7c.55-1.57,2.03-2.61,3.69-2.61h21.83c1.66,0,3.14,1.05,3.69,2.61l32.43,91.7c.42,1.2.24,2.53-.5,3.57Z"/>
        <path class="cls-1" d="m1528.33,1003.03c0,23.5-18.88,32.03-31.57,32.03l-63.22.11c-1.04,0-2.04-.41-2.77-1.14-.74-.73-1.15-1.73-1.15-2.77l-.03-17.04c0-1.04.41-2.04,1.14-2.77.73-.74,1.73-1.15,2.77-1.15l63.11-.11c6.83-.28,6.83-4.12,6.83-6.35,0-2.66-1.2-5.96-5.51-6.14l-11.25.02c-1.04,0-2.04-.41-2.77-1.15s-1.15-1.73-1.15-2.77v-17.01c0-2.16,1.75-3.92,3.92-3.92h11.07c3.18-.17,13.34-.07,21.37,7.16,4.2,3.79,9.22,10.86,9.22,23.02Zm.69-63.59v17.05c0,2.16-1.75,3.92-3.92,3.92h-64.04c-2.21.11-6.57.42-6.57,6.34,0,3.43,1.12,4.23,2.71,4.97,1.44.63,2.98,1.01,4.55,1.13h10.18c2.16,0,3.92,1.75,3.92,3.92v17.03c0,2.16-1.75,3.92-3.91,3.92h-10.19c-5.24-.1-10.39-1.29-15.15-3.49-10.8-5.09-16.99-15.1-16.99-27.49s5.76-22.15,16.21-27.44c4.62-2.31,9.69-3.6,14.85-3.77h64.43c2.16,0,3.92,1.76,3.92,3.92Z"/>
      </g>
    </g>
  </g>
</svg>