<?xml version="1.0" encoding="utf-8"?>
<!-- Generator: Adobe Illustrator 27.1.0, SVG Export Plug-In . SVG Version: 6.00 Build 0)  -->
<svg version="1.1" id="Capa_2_00000082328966881092324000000007151016209573369765_"
	 xmlns="http://www.w3.org/2000/svg" xmlns:xlink="http://www.w3.org/1999/xlink" x="0px" y="0px" viewBox="0 0 2881 982.1"
	 style="enable-background:new 0 0 2881 982.1;" xml:space="preserve">
<style type="text/css">
	.st0{fill:#003787;}
	.st1{fill:#FF7300;}
</style>
<g id="Layer_1">
	<g>
		<g>
			<path class="st0" d="M62.9,621.2c0.1-0.1,0.1-0.3,0.2-0.4C60.7,625.6,62.3,622.6,62.9,621.2z"/>
			<path class="st0" d="M872.1,479.4L872.1,479.4c-12.8-28-36.1-42.4-67.2-41.6c-43.9,1.1-81.9,17.1-113,47.6
				c-11.9,11.7-23.9,23.7-35.5,35.3c-15.6,15.6-31.7,31.8-47.8,47.3c-2.2,2.2-6.4,3.9-8.5,4.2c-1.3-1.7-2.9-5.9-3-9
				c-0.7-27.6-0.5-55.7-0.4-82.9c0-4.7,0-9.4,0.1-14.1c0-5.2-0.3-11.9-3.4-17.5c-3.7-6.8-10.4-10.5-19-10.6h-0.1
				c-6.5,0-11.7,2-15.6,5.9c-6.1,6.1-6.8,15-6.8,22.1c0,4.4,0,8.7,0.1,13c0.2,27.6,0.3,56.1-0.2,84.1c-0.4,25.6,9.8,43,30.5,51.7
				c11,4.7,21.8,5.4,32.2,2.2c9-2.8,17.5-8.3,26-17c16.9-17.2,34.2-34.5,51-51.3c9.7-9.6,19.7-19.6,29.4-29.4
				c10.5-10.5,22.2-18.9,34.8-25c12.6-6,26.4-9.9,41.2-11.6c22.8-2.5,30.1,5.9,33.9,13.6c4.9,9.8,4.9,18.9-10.4,34.3
				c-92.3,92.7-175.6,176.2-259.6,259.8c-15.9,15.8-32.5,28.6-49.3,38C493,839,473.7,845.4,454,847.9c-43.7,5.5-89.1,5.6-129.1,5.6
				h-0.2c-41,0-80.4-12.6-113.8-36.5c-16.3-11.7-30.8-25.8-43-41.8c-12.4-16.4-22.3-34.6-29.3-54.2c-3.6-10.1-6.1-20.2-7.9-30.4
				c-0.1-0.1-0.1-0.1-0.2-0.2c-3.4-3.1-5.5-8.6-5.5-13.2c0-5.2,2.1-8.8,5.1-12.7c0-0.1,0.1-0.1,0.1-0.2c0.4-0.6,0.9-1.2,1.3-1.8
				c1-1.3,1.9-2.6,2.8-3.9c1.7-2.4,3.4-4.9,4.9-7.4c3-4.8,5.6-9.7,8-14.8c0.1-0.1,0.1-0.3,0.2-0.4c0.5-1.4,1-2.8,1.5-4.2
				c0.7-2.2,1.3-4.4,1.7-6.7c-0.1-0.8,0.3-2.8,0.3-3.3c0-1.5,0-3-0.1-4.4c-0.1-0.4-0.1-0.9-0.2-1.2c-0.2-0.8-0.4-1.6-0.7-2.4
				c-0.4-0.7-0.7-1.7-0.9-2.1c-0.6-1-1.2-2.1-1.9-3c-0.3-0.5-0.6-0.9-0.9-1.3c-1-1.5,1.6,2.5,1.6,2.1c0-1.2-3.9-4.3-4.8-5
				c-0.9-0.8-2-1.6-2.8-2.4c0.5,0.5,0.9,0.8,1.2,1.1c0.9,0.8,1.4,1.3,0,0c-0.5-0.4-1-0.8-1.4-1.1c-2.2-1.5-4.5-2.8-6.9-4.1
				c-1.5-0.8-3.1-1.6-4.7-2.3c-0.6-0.3-1.2-0.5-1.8-0.8c-3.4-1.4-6.7-2.9-10-4.4c-0.5-0.2-1.1-0.4-1.6-0.7c-1.3-0.5-2.6-1-3.9-1.5
				c-2.8-1-5.7-2-8.6-2.7c-1.7-0.5-3.5-0.9-5.2-1.2c-0.4-0.1-0.7-0.1-1-0.2c-1.3-0.1-2.6-0.2-3.9-0.2c-1,0-2.8,0.4-4,0.3
				c-0.3,0.1-0.5,0.1-0.8,0.2c-0.1,0.2-0.5,0.5-1.5,0.6c-2.6,2.5-5,5.3-7.3,8.1c-0.1,0.2-0.3,0.4-0.4,0.6c-0.7,1-1.4,2-2.1,3
				c-1.4,1.9-2.7,3.9-3.9,5.8c-2.6,4-5.1,8.1-7.3,12.3c-1.1,2.1-2.2,4.2-3.2,6.4c-0.1,0.2-0.2,0.5-0.3,0.7c-0.1,0.2-0.1,0.4-0.2,0.5
				c-0.2,0.6-0.4,1.2-0.5,1.8c0.7-1.3,1.4-2.6,2-3.9c0.7-1.8,1.5-3.8,2.4-5.6c1.8-3.5,4.8-6.6,8.2-8.6c4.1-2.5,8.6-3.3,13-3
				c5-5.8,11.9-9.7,20.7-9.7c15.5,0,27.9,12.6,27.5,28.1c-0.1,2.9-0.4,5.9-1,8.9c0.9,2.2,1.5,4.6,1.6,7c0.4,8.1-5.6,15.2-13,17.7
				c-0.1,0.9-0.2,1.9-0.4,2.8c-1,5.5-5.9,10-10.8,12.1c-5.7,2.4-11,1.7-16.6-0.9c-1-0.5-2-1.1-2.9-1.7c0.5,3.7,1,7.3,1.3,11
				c0.6,6.3-2.9,11.7-7.8,15c6.5,41.5,23.9,81.3,50.6,114.6c16.9,21,36.8,38.8,59.3,52.8c23.3,14.5,48.6,24.5,75.2,29.8
				c33.7,6.7,68.8,7.5,103.2,7.5c5.4,0,10.8,0,16.2,0c6.8,0,13.8,0,20.7,0c0.2,0,0.5,0,0.7,0c33.6,0,65.4-5.9,94.6-17.5
				c29.8-11.9,57-29.8,80.9-53.2c73.2-71.7,146.6-145.5,217.6-216.8c17.4-17.5,35.4-35.6,53.2-53.4c10.9-11,17.7-23.4,20.3-37
				C880.2,506.9,878.2,492.8,872.1,479.4L872.1,479.4z"/>
			<path class="st0" d="M140.1,395c5.4-9.2,14.5-14.3,25.5-14.5c11.4-0.2,20.7,5,26.4,14.5l2.4,4.1h45.8l-0.2-8.6
				c-0.2-9.7-0.4-17.7-0.5-25.2c-0.1-11.2,3.6-21.4,10.4-28.9c6.7-7.3,16-11.5,26.3-11.7c10.3-0.3,19.8,3.4,26.9,10.3
				c7.2,7.1,11.4,17.1,11.8,28.2c0.3,8.3,0.6,17.4,0.9,27.6l0.2,8.1h43.2l-0.4-14.1c-0.5-15.8-0.9-32.1-1.2-48.1
				c-0.2-12.2,3.8-23.2,11.3-30.9c6.8-6.9,15.7-10.7,25.9-10.8c21.5-0.3,37.6,16.2,38.3,39.2c0.6,18.2,1.2,37.2,1.7,56.5l0.2,8.2h43
				l-0.2-8.6c-0.9-32.5-1.7-65.7-2.4-97.7c-0.5-22.3-1.1-45.3-1.7-68c-0.2-9.1-0.5-18.4-0.8-27.4c-0.6-21.3-1.3-43.3-1.5-64.9
				c-0.1-9.6,3.3-18.9,9.5-26c6.1-7,14.4-11.4,23.4-12.4c18.9-2.1,37.1,10.8,41.5,29.4c1,4.3,1.1,9.2,1.3,14.4c0,0.7,0,1.3,0,2
				c2.3,87.3,4,154,5.5,216.4c0.2,6.8,1.2,16.5,8.1,22.1c2.9,2.4,7.9,4.9,15.6,3.5c9.8-1.7,19.3-16,19.1-25.5
				c-1.4-92.2-3.1-163.1-5.7-229.8c-0.8-21.2-10.2-40.7-26.4-55.1c-7.7-6.9-16.6-12.2-26.4-15.8c-10.1-3.7-20.6-5.4-31.3-5.1
				C485,51.3,465.6,60,451,75.1c-14.6,15.2-22.7,35.1-22.8,56.1c-0.1,14.7,0.4,29.6,0.9,44c0.2,6.2,0.4,12.7,0.6,19
				c0.5,18.2,0.9,36.4,1.4,54.9l0.3,11.6c-24.1-8.8-42.7-10.6-59.3-5.7c-17.4,5.2-32.6,17.6-48.5,40.1c-11-6.7-22.6-10.9-34.6-12.7
				c-14.1-2.1-28.3-0.6-41.2,4.4c-24.3,9.4-42.4,30.2-50.7,57.6c-21.7-8.7-43.7-8.9-62.5-0.6c-18.5,8.2-32.2,23.9-38.7,44.4
				l-3.5,10.9h45.1L140.1,395L140.1,395z"/>
			<path class="st0" d="M162.4,525c41.9,0,76-34.1,76-76c0-2-0.1-4.1-0.2-6.2l-0.2-3.1h-45.2l0.7,3.9c0.3,1.8,0.5,3.5,0.5,5.3
				c0,17.4-14.1,31.5-31.5,31.5s-31.5-14.1-31.5-31.5c0-1.8,0.1-3.6,0.5-5.3l0.7-3.9H86.9l-0.2,3.1c-0.2,2.1-0.2,4.1-0.2,6.2
				C86.4,490.9,120.5,525,162.4,525L162.4,525z"/>
			<path class="st0" d="M369.8,439.7h-45.2l-0.2,3.1c-0.2,2.1-0.2,4.1-0.2,6.2c0,41.9,34.1,76,76,76s76-34.1,76-76
				c0-2-0.1-4.1-0.2-6.2l-0.2-3.1h-45.2l0.7,3.9c0.3,1.8,0.5,3.5,0.5,5.3c0,17.4-14.1,31.5-31.5,31.5s-31.5-14.1-31.5-31.5
				c0-1.8,0.2-3.6,0.5-5.3L369.8,439.7L369.8,439.7z"/>
			<path class="st0" d="M214.2,553.2c-0.4,3.2-0.7,6.5-0.7,9.8c0,40.3,32.8,73.2,73.2,73.2s73.2-32.8,73.2-73.2
				c0-3.3-0.2-6.6-0.7-9.8H314c1.1,3,1.7,6.3,1.7,9.8c0,16-13,29-29,29s-29-13-29-29c0-3.4,0.6-6.7,1.7-9.8L214.2,553.2L214.2,553.2
				z"/>
			<path class="st1" d="M103.1,694.7c-35.8,0-64.9-29.1-64.9-64.9s29.1-64.9,64.9-64.9S168,594,168,629.8S138.9,694.7,103.1,694.7z
				 M103.1,604.6c-13.9,0-25.1,11.3-25.1,25.2s11.3,25.2,25.1,25.2s25.1-11.3,25.1-25.2S117,604.6,103.1,604.6z"/>
		</g>
		<g>
			<path d="M925,699.7c-1.4,0-2.5-0.4-3.3-1.3c-0.8-0.8-1.2-2-1.2-3.5v-96c0-1.6,0.4-2.8,1.3-3.6c0.8-0.8,1.9-1.2,3.3-1.2H960
				c11.1,0,19.6,2.7,25.5,8s8.9,13,8.9,22.8s-3,17.4-8.9,22.8c-5.9,5.4-14.4,8.1-25.5,8.1h-30.4v39c0,1.5-0.4,2.6-1.1,3.5
				C927.7,699.3,926.6,699.7,925,699.7L925,699.7z M929.6,647.9h29.7c8.6,0,15.1-1.9,19.4-5.8c4.4-3.9,6.5-9.5,6.5-17.1
				s-2.2-13.2-6.5-17.1c-4.4-3.9-10.8-5.9-19.4-5.9h-29.7C929.6,602.1,929.6,647.9,929.6,647.9z"/>
			<path d="M1032.1,700c-6.6,0-11.7-2.1-15.4-6.2c-3.6-4.1-5.4-10-5.4-17.7v-78.2c0-1.6,0.4-2.7,1.2-3.5c0.8-0.7,1.9-1.1,3.4-1.1
				c1.4,0,2.5,0.4,3.3,1.1s1.2,1.9,1.2,3.5V675c0,5.7,1.1,10,3.4,12.8c2.3,2.8,5.6,4.2,9.9,4.2c1,0,1.8,0,2.5-0.1
				c0.7-0.1,1.4-0.1,2.1-0.1c0.9-0.1,1.6,0.1,2,0.5c0.4,0.4,0.7,1.4,0.7,2.7c0,1.4-0.3,2.4-1,3.1c-0.7,0.7-1.8,1.2-3.4,1.5
				c-0.7,0.1-1.4,0.2-2.2,0.2C1033.6,699.9,1032.8,699.9,1032.1,700L1032.1,700z"/>
			<path d="M1075.8,700c-4.8,0-9.2-0.9-13-2.8c-3.8-1.9-6.8-4.4-9.1-7.7c-2.2-3.3-3.3-6.9-3.3-11c0-5.3,1.3-9.5,4-12.6
				c2.7-3.1,7.2-5.2,13.5-6.5c6.3-1.2,15-1.9,26.1-1.9h6.4v6.7h-6.2c-8.9,0-15.8,0.4-20.8,1.1c-5,0.7-8.5,2.1-10.5,4.1
				c-2,2-3,4.7-3,8.3c0,4.4,1.5,8.1,4.6,10.8c3.1,2.8,7.2,4.1,12.5,4.1c4.2,0,8-1,11.2-3c3.2-2,5.8-4.8,7.6-8.4
				c1.9-3.6,2.8-7.6,2.8-12.2v-16.9c0-6.6-1.3-11.4-4-14.5c-2.7-3-6.9-4.5-12.8-4.5c-3.8,0-7.4,0.5-10.9,1.5
				c-3.5,1-7.2,2.6-11.2,4.7c-1.1,0.6-2.1,0.8-2.9,0.6c-0.8-0.2-1.5-0.6-1.9-1.2c-0.4-0.6-0.7-1.3-0.9-2.2c-0.1-0.8,0-1.7,0.4-2.5
				c0.4-0.8,1.1-1.4,2.1-1.9c4.1-2.3,8.4-4,12.7-5.1c4.3-1.1,8.5-1.7,12.5-1.7c5.8,0,10.7,1,14.5,3c3.8,2,6.6,5,8.5,8.9
				c1.8,4,2.7,9.1,2.7,15.3v42.4c0,1.5-0.3,2.6-1,3.4c-0.7,0.8-1.7,1.2-3.1,1.2s-2.5-0.4-3.3-1.2c-0.8-0.8-1.2-1.9-1.2-3.4v-13.6
				h1.5c-0.9,3.9-2.5,7.2-4.7,9.9c-2.3,2.8-5.1,4.9-8.5,6.4C1083.7,699.2,1080,699.9,1075.8,700L1075.8,700z"/>
			<path d="M1158.2,700c-5.3,0-9.8-1-13.3-3c-3.6-2-6.2-4.8-8-8.5c-1.8-3.7-2.7-8.3-2.7-13.7v-40.6h-11c-1.3,0-2.3-0.3-3.1-1
				c-0.8-0.6-1.2-1.6-1.2-2.7c0-1.1,0.4-1.9,1.2-2.6c0.8-0.6,1.8-1,3.1-1h11v-18.5c0-1.6,0.4-2.7,1.2-3.5c0.8-0.7,1.9-1.1,3.4-1.1
				c1.4,0,2.5,0.4,3.3,1.1s1.2,1.9,1.2,3.5v18.5h20c1.4,0,2.4,0.3,3.1,1c0.7,0.6,1,1.5,1,2.6c0,1.2-0.3,2.1-1,2.7
				c-0.7,0.6-1.7,1-3.1,1h-20v39.5c0,6,1.2,10.6,3.7,13.8c2.5,3.2,6.6,4.7,12.3,4.7c2,0,3.6-0.2,5-0.7c1.3-0.4,2.5-0.7,3.3-0.7
				c0.7,0,1.3,0.3,1.9,0.9c0.5,0.6,0.8,1.5,0.8,2.8c0,0.8-0.2,1.6-0.5,2.4c-0.3,0.8-1,1.3-1.9,1.5c-1.1,0.4-2.6,0.8-4.4,1.1
				C1161.5,699.8,1159.7,699.9,1158.2,700L1158.2,700z"/>
			<path d="M1203,700c-4.8,0-9.2-0.9-13-2.8c-3.8-1.9-6.8-4.4-9.1-7.7c-2.2-3.3-3.3-6.9-3.3-11c0-5.3,1.3-9.5,4-12.6
				c2.7-3.1,7.2-5.2,13.5-6.5c6.3-1.2,15-1.9,26.1-1.9h6.4v6.7h-6.2c-8.9,0-15.8,0.4-20.8,1.1c-5,0.7-8.5,2.1-10.5,4.1
				c-2,2-3,4.7-3,8.3c0,4.4,1.5,8.1,4.6,10.8c3.1,2.8,7.2,4.1,12.5,4.1c4.2,0,8-1,11.2-3c3.2-2,5.8-4.8,7.6-8.4
				c1.9-3.6,2.8-7.6,2.8-12.2v-16.9c0-6.6-1.3-11.4-4-14.5c-2.7-3-6.9-4.5-12.8-4.5c-3.8,0-7.4,0.5-10.9,1.5
				c-3.5,1-7.2,2.6-11.2,4.7c-1.1,0.6-2.1,0.8-2.9,0.6c-0.8-0.2-1.5-0.6-1.9-1.2c-0.4-0.6-0.7-1.3-0.9-2.2c-0.1-0.8,0-1.7,0.4-2.5
				c0.4-0.8,1.1-1.4,2.1-1.9c4.1-2.3,8.4-4,12.7-5.1c4.3-1.1,8.5-1.7,12.5-1.7c5.8,0,10.7,1,14.5,3c3.8,2,6.6,5,8.5,8.9
				c1.8,4,2.7,9.1,2.7,15.3v42.4c0,1.5-0.3,2.6-1,3.4c-0.7,0.8-1.7,1.2-3.1,1.2c-1.4,0-2.5-0.4-3.3-1.2c-0.8-0.8-1.2-1.9-1.2-3.4
				v-13.6h1.5c-0.9,3.9-2.5,7.2-4.7,9.9c-2.3,2.8-5.1,4.9-8.5,6.4C1210.9,699.2,1207.1,699.9,1203,700L1203,700z"/>
			<path d="M1266.1,699.7c-1.5,0-2.6-0.4-3.4-1.2c-0.8-0.8-1.2-1.9-1.2-3.4v-61H1251c-1.3,0-2.3-0.3-3-1c-0.7-0.6-1.1-1.6-1.1-2.7
				c0-1.1,0.4-1.9,1.1-2.6c0.7-0.6,1.8-1,3-1h12.9l-2.4,2.4v-5.9c0-9.1,2.2-16.1,6.5-20.9s10.8-7.7,19.4-8.5l4-0.3
				c1.1-0.1,1.9,0.1,2.6,0.5c0.6,0.4,1.1,1,1.3,1.7c0.3,0.7,0.3,1.4,0.1,2.2c-0.2,0.7-0.6,1.4-1.1,1.9c-0.5,0.5-1.2,0.9-2,1
				l-4.1,0.4c-6.1,0.5-10.6,2.5-13.4,6c-2.8,3.5-4.2,8.6-4.2,15.2v6.4l-1.3-2.1h19c1.4,0,2.4,0.3,3.1,1c0.7,0.6,1,1.5,1,2.6
				c0,1.2-0.3,2.1-1,2.7c-0.7,0.6-1.7,1-3.1,1h-17.7v61C1270.6,698.1,1269.1,699.6,1266.1,699.7L1266.1,699.7z"/>
			<path d="M1331.9,700c-6.7,0-12.6-1.5-17.5-4.6c-5-3.1-8.8-7.4-11.5-12.9c-2.7-5.5-4.1-12.1-4.1-19.7c0-5.6,0.8-10.7,2.3-15.3
				c1.5-4.5,3.8-8.5,6.7-11.8c2.9-3.3,6.4-5.8,10.5-7.6c4.1-1.7,8.6-2.6,13.6-2.6c6.8,0,12.7,1.5,17.7,4.6c4.9,3.1,8.8,7.4,11.5,13
				c2.7,5.6,4.1,12.1,4.1,19.6c0,5.7-0.8,10.9-2.3,15.4c-1.5,4.5-3.8,8.5-6.7,11.7c-2.9,3.3-6.4,5.8-10.5,7.5
				C1341.6,699.1,1337,699.9,1331.9,700L1331.9,700z M1331.9,692.4c4.9,0,9.2-1.2,12.8-3.5c3.6-2.3,6.4-5.7,8.3-10.2
				c1.9-4.4,2.9-9.8,2.9-16c0-9.4-2.2-16.7-6.5-21.8c-4.3-5.1-10.2-7.7-17.6-7.7c-4.8,0-9.1,1.2-12.7,3.5c-3.6,2.3-6.4,5.7-8.3,10.1
				c-1.9,4.4-2.9,9.7-2.9,15.9c0,9.5,2.2,16.8,6.5,22C1318.9,689.8,1324.6,692.4,1331.9,692.4L1331.9,692.4z"/>
			<path d="M1389,699.7c-1.5,0-2.6-0.4-3.4-1.2c-0.8-0.8-1.2-1.9-1.2-3.4v-64.5c0-1.6,0.4-2.8,1.2-3.6c0.8-0.8,1.9-1.2,3.4-1.2
				c1.4,0,2.5,0.4,3.2,1.2s1.1,2,1.1,3.6v13.2h-1.5c1.8-5.8,5-10.3,9.6-13.5c4.6-3.2,10.1-4.8,16.5-4.9c1.2-0.1,2.2,0.1,3,0.7
				s1.2,1.5,1.2,2.8c0.1,1.4-0.2,2.5-0.9,3.2c-0.7,0.7-1.8,1.2-3.4,1.4l-2.1,0.1c-7,0.7-12.5,3-16.3,7c-3.9,4-5.8,9.3-5.8,16v38.4
				c0,1.5-0.4,2.6-1.1,3.4C1391.7,699.3,1390.6,699.7,1389,699.7L1389,699.7z"/>
			<path d="M1440,699.7c-1.5,0-2.6-0.4-3.4-1.2c-0.8-0.8-1.2-1.9-1.2-3.4v-64.5c0-1.6,0.4-2.8,1.2-3.6c0.8-0.8,1.9-1.2,3.4-1.2
				c1.4,0,2.5,0.4,3.2,1.2c0.7,0.8,1.1,2,1.1,3.6v14.1l-1.6-1c1.8-5.8,4.8-10.3,9.1-13.4c4.2-3.1,9.3-4.7,15.3-4.7
				c6.3,0,11.4,1.5,15.2,4.6c3.8,3.1,6.3,7.7,7.5,13.8h-2.2c1.7-5.5,4.8-10,9.4-13.3c4.6-3.4,10-5,16.2-5c5.3,0,9.8,1,13.3,3.1
				c3.5,2.1,6.2,5.2,7.9,9.3c1.8,4.1,2.7,9.3,2.7,15.5v41.7c0,1.5-0.4,2.6-1.2,3.4c-0.8,0.8-1.9,1.2-3.4,1.2c-1.4,0-2.5-0.4-3.3-1.2
				c-0.8-0.8-1.2-1.9-1.2-3.4v-40.9c0-7.2-1.3-12.5-3.8-15.8c-2.5-3.3-6.7-5-12.7-5c-6.3,0-11.4,2.2-15.1,6.6
				c-3.8,4.4-5.6,10.4-5.6,17.9v37.2c0,1.5-0.4,2.6-1.2,3.4c-0.8,0.8-1.9,1.2-3.3,1.2c-1.5,0-2.6-0.4-3.4-1.2
				c-0.8-0.8-1.2-1.9-1.2-3.4v-40.9c0-7.2-1.3-12.5-3.8-15.8s-6.7-5-12.5-5c-6.4,0-11.5,2.2-15.3,6.6c-3.8,4.4-5.6,10.4-5.6,17.9
				v37.2C1444.5,698.1,1443,699.6,1440,699.7L1440,699.7z"/>
			<path d="M1583,700c-4.8,0-9.2-0.9-13-2.8c-3.8-1.9-6.8-4.4-9.1-7.7c-2.2-3.3-3.3-6.9-3.3-11c0-5.3,1.3-9.5,4-12.6
				c2.7-3.1,7.2-5.2,13.5-6.5c6.3-1.2,15-1.9,26.1-1.9h6.4v6.7h-6.2c-8.9,0-15.8,0.4-20.8,1.1c-5,0.7-8.5,2.1-10.5,4.1
				c-2,2-3,4.7-3,8.3c0,4.4,1.5,8.1,4.6,10.8c3.1,2.8,7.2,4.1,12.5,4.1c4.2,0,8-1,11.2-3c3.2-2,5.8-4.8,7.6-8.4
				c1.9-3.6,2.8-7.6,2.8-12.2v-16.9c0-6.6-1.3-11.4-4-14.5c-2.7-3-6.9-4.5-12.8-4.5c-3.8,0-7.4,0.5-10.9,1.5
				c-3.5,1-7.2,2.6-11.2,4.7c-1.1,0.6-2.1,0.8-2.9,0.6c-0.8-0.2-1.5-0.6-1.9-1.2c-0.4-0.6-0.7-1.3-0.9-2.2c-0.1-0.8,0-1.7,0.4-2.5
				c0.4-0.8,1.1-1.4,2.1-1.9c4.1-2.3,8.4-4,12.7-5.1c4.3-1.1,8.5-1.7,12.5-1.7c5.8,0,10.7,1,14.5,3c3.8,2,6.6,5,8.5,8.9
				c1.8,4,2.7,9.1,2.7,15.3v42.4c0,1.5-0.3,2.6-1,3.4c-0.7,0.8-1.7,1.2-3.1,1.2c-1.4,0-2.5-0.4-3.3-1.2c-0.8-0.8-1.2-1.9-1.2-3.4
				v-13.6h1.5c-0.9,3.9-2.5,7.2-4.7,9.9c-2.3,2.8-5.1,4.9-8.5,6.4C1590.9,699.2,1587.2,699.9,1583,700L1583,700z"/>
			<path d="M1682.4,698.8c-1.6,0-2.8-0.4-3.7-1.3c-0.9-0.9-1.3-2.2-1.3-3.9v-94.2c0-1.7,0.4-3,1.3-3.9c0.9-0.9,2.1-1.3,3.7-1.3h28.6
				c16.6,0,29.4,4.4,38.5,13.3c9.1,8.9,13.6,21.9,13.6,38.9c0,8.5-1.2,16-3.5,22.5c-2.3,6.5-5.7,12-10.2,16.4
				c-4.4,4.4-9.9,7.7-16.3,10c-6.4,2.3-13.8,3.4-22.1,3.4H1682.4L1682.4,698.8z M1686.4,690.8h23.9c7.2,0,13.5-0.9,18.9-2.8
				c5.4-1.9,9.9-4.7,13.4-8.3c3.6-3.7,6.2-8.3,8-13.9c1.8-5.6,2.7-12,2.7-19.4c0-14.7-3.6-25.8-10.8-33.2
				c-7.2-7.4-17.9-11.1-32.3-11.1h-23.9V690.8L1686.4,690.8z"/>
			<path d="M1788.9,608.3c-2.1,0-3.7-0.5-4.8-1.6c-1.1-1.1-1.7-2.6-1.7-4.6s0.6-3.5,1.7-4.5c1.1-1,2.7-1.6,4.8-1.6s3.7,0.5,4.8,1.6
				c1.1,1,1.7,2.5,1.7,4.5c0,2-0.6,3.5-1.7,4.6C1792.6,607.7,1791,608.3,1788.9,608.3z M1788.9,699.4c-1.5,0-2.6-0.4-3.4-1.3
				c-0.8-0.9-1.2-2.1-1.2-3.6V631c0-1.6,0.4-2.8,1.2-3.6c0.8-0.8,1.9-1.2,3.4-1.2c1.4,0,2.5,0.4,3.3,1.2c0.8,0.8,1.2,2,1.2,3.6v63.5
				c0,1.5-0.4,2.7-1.1,3.6C1791.5,698.9,1790.4,699.4,1788.9,699.4z"/>
			<path d="M1848.5,726.7c-5.3,0-10.5-0.7-15.5-2c-5-1.3-9.5-3.5-13.6-6.5c-0.8-0.5-1.3-1.1-1.6-1.9c-0.3-0.8-0.3-1.6-0.1-2.3
				c0.2-0.7,0.6-1.4,1.1-2c0.5-0.6,1.2-0.9,1.9-1c0.7-0.1,1.5,0,2.3,0.4c4.4,2.9,8.5,4.9,12.5,6c4,1.1,8.2,1.7,12.5,1.7
				c7.2,0,12.7-2,16.5-6c3.8-4,5.6-9.7,5.6-17.1v-18.4h1.5c-1.5,6.1-4.7,10.9-9.5,14.4c-4.8,3.5-10.6,5.2-17.2,5.2
				s-12.4-1.5-17.2-4.5c-4.8-3-8.6-7.2-11.2-12.6c-2.6-5.4-3.9-11.6-3.9-18.8c0-5.3,0.7-10.2,2.2-14.5c1.5-4.4,3.6-8.1,6.5-11.3
				s6.2-5.6,10.2-7.3c4-1.7,8.5-2.6,13.5-2.6c6.6,0,12.4,1.8,17.2,5.3c4.8,3.5,8,8.2,9.3,14.2l-1.5,0.9v-15.3c0-1.6,0.4-2.8,1.2-3.6
				c0.8-0.8,1.9-1.2,3.3-1.2c1.5,0,2.6,0.4,3.3,1.2c0.7,0.8,1.1,2,1.1,3.6v64.1c0,10.6-2.6,18.6-7.7,24
				C1866.2,724,1858.6,726.6,1848.5,726.7L1848.5,726.7z M1846.1,689.4c4.9,0,9.2-1.2,12.8-3.5c3.6-2.3,6.4-5.6,8.4-9.8
				c2-4.2,3-9.2,3-14.9c0-8.6-2.2-15.4-6.5-20.5c-4.4-5-10.2-7.6-17.7-7.6c-5,0-9.2,1.1-12.9,3.4c-3.7,2.3-6.5,5.5-8.4,9.7
				c-1.9,4.2-2.9,9.2-2.9,14.9c0,8.6,2.2,15.5,6.5,20.5C1832.8,686.9,1838.7,689.4,1846.1,689.4L1846.1,689.4z"/>
			<path d="M1907.5,608.3c-2.1,0-3.7-0.5-4.8-1.6c-1.1-1.1-1.7-2.6-1.7-4.6s0.6-3.5,1.7-4.5c1.1-1,2.7-1.6,4.8-1.6s3.7,0.5,4.8,1.6
				c1.1,1,1.7,2.5,1.7,4.5c0,2-0.6,3.5-1.7,4.6C1911.2,607.7,1909.6,608.3,1907.5,608.3z M1907.5,699.4c-1.5,0-2.6-0.4-3.4-1.3
				c-0.8-0.9-1.2-2.1-1.2-3.6V631c0-1.6,0.4-2.8,1.2-3.6c0.8-0.8,1.9-1.2,3.4-1.2c1.4,0,2.5,0.4,3.3,1.2c0.8,0.8,1.2,2,1.2,3.6v63.5
				c0,1.5-0.4,2.7-1.1,3.6C1910.1,698.9,1909,699.4,1907.5,699.4z"/>
			<path d="M1963,700c-5.3,0-9.8-1-13.3-3c-3.6-2-6.2-4.8-8-8.5c-1.8-3.7-2.7-8.3-2.7-13.7v-40.6h-11c-1.3,0-2.3-0.3-3.1-1
				c-0.8-0.6-1.2-1.6-1.2-2.7c0-1.1,0.4-1.9,1.2-2.6c0.8-0.6,1.8-1,3.1-1h11v-18.5c0-1.6,0.4-2.7,1.2-3.5c0.8-0.7,1.9-1.1,3.4-1.1
				c1.4,0,2.5,0.4,3.3,1.1s1.2,1.9,1.2,3.5v18.5h20c1.4,0,2.4,0.3,3.1,1c0.7,0.6,1,1.5,1,2.6c0,1.2-0.3,2.1-1,2.7
				c-0.7,0.6-1.7,1-3.1,1h-20v39.5c0,6,1.2,10.6,3.7,13.8c2.5,3.2,6.6,4.7,12.3,4.7c2,0,3.6-0.2,5-0.7c1.3-0.4,2.5-0.7,3.3-0.7
				c0.7,0,1.3,0.3,1.9,0.9c0.5,0.6,0.8,1.5,0.8,2.8c0,0.8-0.2,1.6-0.5,2.4c-0.3,0.8-1,1.3-1.9,1.5c-1.1,0.4-2.6,0.8-4.4,1.1
				C1966.3,699.8,1964.6,699.9,1963,700L1963,700z"/>
			<path d="M2007.8,700c-4.8,0-9.2-0.9-13-2.8c-3.8-1.9-6.8-4.4-9.1-7.7c-2.2-3.3-3.3-6.9-3.3-11c0-5.3,1.3-9.5,4-12.6
				c2.7-3.1,7.2-5.2,13.5-6.5c6.3-1.2,15-1.9,26.1-1.9h6.4v6.7h-6.2c-8.9,0-15.8,0.4-20.8,1.1c-5,0.7-8.5,2.1-10.5,4.1
				c-2,2-3,4.7-3,8.3c0,4.4,1.5,8.1,4.6,10.8c3.1,2.8,7.2,4.1,12.5,4.1c4.2,0,8-1,11.2-3c3.2-2,5.8-4.8,7.6-8.4
				c1.9-3.6,2.8-7.6,2.8-12.2v-16.9c0-6.6-1.3-11.4-4-14.5c-2.7-3-6.9-4.5-12.8-4.5c-3.8,0-7.4,0.5-10.9,1.5
				c-3.5,1-7.2,2.6-11.2,4.7c-1.1,0.6-2.1,0.8-2.9,0.6c-0.8-0.2-1.5-0.6-1.9-1.2c-0.4-0.6-0.7-1.3-0.9-2.2c-0.1-0.8,0-1.7,0.4-2.5
				c0.4-0.8,1.1-1.4,2.1-1.9c4.1-2.3,8.4-4,12.7-5.1c4.3-1.1,8.5-1.7,12.5-1.7c5.8,0,10.7,1,14.5,3c3.8,2,6.6,5,8.5,8.9
				c1.8,4,2.7,9.1,2.7,15.3v42.4c0,1.5-0.3,2.6-1,3.4c-0.7,0.8-1.7,1.2-3.1,1.2c-1.4,0-2.5-0.4-3.3-1.2c-0.8-0.8-1.2-1.9-1.2-3.4
				v-13.6h1.5c-0.9,3.9-2.5,7.2-4.7,9.9c-2.3,2.8-5.1,4.9-8.5,6.4C2015.7,699.2,2012,699.9,2007.8,700L2007.8,700z"/>
			<path d="M2083.8,700c-6.6,0-11.7-2.1-15.4-6.2c-3.6-4.1-5.4-10-5.4-17.7v-78.2c0-1.6,0.4-2.7,1.2-3.5c0.8-0.7,1.9-1.1,3.4-1.1
				c1.4,0,2.5,0.4,3.3,1.1s1.2,1.9,1.2,3.5V675c0,5.7,1.1,10,3.4,12.8c2.3,2.8,5.6,4.2,9.9,4.2c1,0,1.8,0,2.5-0.1
				c0.7-0.1,1.4-0.1,2.1-0.1c0.9-0.1,1.6,0.1,2,0.5c0.4,0.4,0.7,1.4,0.7,2.7c0,1.4-0.3,2.4-1,3.1c-0.7,0.7-1.8,1.2-3.4,1.5
				c-0.7,0.1-1.4,0.2-2.2,0.2C2085.3,699.9,2084.5,699.9,2083.8,700L2083.8,700z"/>
			<path d="M2149.5,698.8c-1.6,0-2.8-0.4-3.7-1.3c-0.9-0.9-1.3-2.2-1.3-3.9v-94.2c0-1.7,0.4-3,1.3-3.9c0.9-0.9,2.1-1.3,3.7-1.3h56.1
				c1.4,0,2.4,0.3,3.1,1c0.7,0.7,1,1.6,1,2.8c0,1.4-0.3,2.4-1,3c-0.7,0.6-1.7,1-3.1,1h-52.2v39.8h49.2c1.4,0,2.4,0.3,3.1,1
				c0.7,0.6,1,1.6,1,2.9c0,1.3-0.3,2.3-1,3c-0.7,0.7-1.7,1-3.1,1h-49.2v41.2h52.2c1.4,0,2.4,0.3,3.1,1c0.7,0.6,1,1.6,1,2.9
				s-0.3,2.3-1,3c-0.7,0.7-1.7,1-3.1,1L2149.5,698.8L2149.5,698.8z"/>
			<path d="M2254.8,700c-6.4,0-12-1.5-16.8-4.5c-4.8-3-8.5-7.3-11.1-12.9c-2.6-5.6-3.9-12.2-3.9-19.8s1.3-14.2,3.9-19.7
				c2.6-5.5,6.3-9.8,11.1-12.9c4.8-3.1,10.5-4.6,17-4.6c6.5,0,12.5,1.7,17.2,5.2c4.7,3.5,7.9,8.1,9.5,13.9h-1.6v-46.7
				c0-1.6,0.4-2.7,1.2-3.5c0.8-0.7,1.9-1.1,3.3-1.1c1.5,0,2.6,0.4,3.4,1.1c0.8,0.7,1.2,1.9,1.2,3.5v97.2c0,1.5-0.4,2.6-1.2,3.4
				s-1.9,1.2-3.3,1.2c-1.5,0-2.6-0.4-3.4-1.2c-0.8-0.8-1.2-1.9-1.2-3.4v-15.3l1.6,1c-1.6,5.8-4.7,10.5-9.5,13.9
				C2267.2,698.2,2261.5,699.9,2254.8,700L2254.8,700z M2256,692.4c4.9,0,9.2-1.2,12.8-3.5c3.6-2.3,6.4-5.7,8.3-10.2
				c1.9-4.4,2.9-9.8,2.9-16c0-9.4-2.2-16.7-6.5-21.8c-4.3-5.1-10.2-7.7-17.6-7.7c-4.8,0-9.1,1.2-12.7,3.5c-3.6,2.3-6.4,5.7-8.3,10.1
				c-1.9,4.4-2.9,9.7-2.9,15.9c0,9.5,2.2,16.8,6.5,22C2243,689.8,2248.8,692.4,2256,692.4L2256,692.4z"/>
			<path d="M2338,700c-5.7,0-10.5-1-14.3-3.1c-3.8-2.1-6.6-5.2-8.5-9.3c-1.9-4.1-2.8-9.3-2.8-15.4v-41.5c0-1.6,0.4-2.8,1.2-3.6
				c0.8-0.8,1.9-1.2,3.4-1.2c1.4,0,2.5,0.4,3.3,1.2s1.2,2,1.2,3.6v41.1c0,6.9,1.4,12.1,4.3,15.5c2.9,3.4,7.4,5.1,13.5,5.1
				c6.7,0,12.2-2.2,16.3-6.7c4.1-4.5,6.2-10.4,6.2-17.7v-37.2c0-1.6,0.4-2.8,1.2-3.6c0.8-0.8,1.9-1.2,3.4-1.2c1.4,0,2.5,0.4,3.3,1.2
				s1.2,2,1.2,3.6v64.5c0,3.1-1.4,4.6-4.3,4.6c-1.4,0-2.5-0.4-3.3-1.2c-0.8-0.8-1.2-1.9-1.2-3.4v-14.7l1.8,1
				c-1.9,6-5.1,10.6-9.8,13.8S2344,700,2338,700L2338,700z"/>
			<path d="M2424,700c-7,0-13.1-1.6-18.1-4.7c-5-3.1-8.9-7.5-11.6-13.2c-2.7-5.7-4.1-12.3-4.1-19.8c0-5.7,0.8-10.8,2.3-15.4
				c1.5-4.5,3.8-8.3,6.7-11.5c2.9-3.2,6.5-5.6,10.7-7.3c4.2-1.7,8.9-2.6,14.2-2.6c3.7,0,7.4,0.6,11.3,1.9c3.9,1.2,7.4,3.3,10.5,6.2
				c0.7,0.6,1.1,1.3,1.3,2.1c0.2,0.8,0.1,1.6-0.1,2.3c-0.3,0.7-0.7,1.3-1.3,1.8s-1.3,0.7-2.2,0.7c-0.8,0-1.7-0.3-2.6-1.1
				c-2.8-2.3-5.6-3.8-8.4-4.7c-2.8-0.8-5.6-1.3-8.2-1.3c-4.1,0-7.6,0.6-10.7,1.9c-3.1,1.3-5.7,3.2-7.8,5.6c-2.1,2.5-3.7,5.5-4.8,9.1
				c-1.1,3.6-1.6,7.7-1.6,12.4c0,9.3,2.2,16.6,6.5,21.9c4.3,5.3,10.5,7.9,18.5,7.9c2.7,0,5.4-0.4,8.2-1.3c2.8-0.8,5.6-2.4,8.4-4.7
				c0.9-0.8,1.8-1.2,2.6-1.1c0.8,0,1.6,0.3,2.2,0.7c0.6,0.4,1,1,1.3,1.8c0.3,0.7,0.3,1.5,0.1,2.3c-0.2,0.8-0.6,1.5-1.3,2.1
				c-3.1,2.9-6.5,4.9-10.4,6.1C2431.5,699.4,2427.7,700,2424,700L2424,700z"/>
			<path d="M2484.3,700c-4.8,0-9.2-0.9-13-2.8c-3.8-1.9-6.8-4.4-9.1-7.7c-2.2-3.3-3.3-6.9-3.3-11c0-5.3,1.3-9.5,4-12.6
				c2.7-3.1,7.2-5.2,13.5-6.5c6.3-1.2,15-1.9,26.1-1.9h6.4v6.7h-6.2c-8.9,0-15.8,0.4-20.8,1.1s-8.5,2.1-10.5,4.1c-2,2-3,4.7-3,8.3
				c0,4.4,1.5,8.1,4.6,10.8c3.1,2.8,7.2,4.1,12.5,4.1c4.2,0,8-1,11.2-3c3.2-2,5.8-4.8,7.6-8.4c1.9-3.6,2.8-7.6,2.8-12.2v-16.9
				c0-6.6-1.3-11.4-4-14.5c-2.7-3-6.9-4.5-12.8-4.5c-3.8,0-7.4,0.5-10.9,1.5c-3.5,1-7.2,2.6-11.2,4.7c-1.1,0.6-2.1,0.8-2.9,0.6
				c-0.8-0.2-1.5-0.6-1.9-1.2c-0.4-0.6-0.7-1.3-0.9-2.2c-0.1-0.8,0-1.7,0.4-2.5c0.4-0.8,1.1-1.4,2.1-1.9c4.1-2.3,8.4-4,12.7-5.1
				c4.3-1.1,8.5-1.7,12.5-1.7c5.8,0,10.7,1,14.5,3c3.8,2,6.6,5,8.5,8.9c1.8,4,2.7,9.1,2.7,15.3v42.4c0,1.5-0.3,2.6-1,3.4
				c-0.7,0.8-1.7,1.2-3.1,1.2c-1.4,0-2.5-0.4-3.3-1.2c-0.8-0.8-1.2-1.9-1.2-3.4v-13.6h1.5c-0.9,3.9-2.5,7.2-4.7,9.9
				c-2.3,2.8-5.1,4.9-8.5,6.4C2492.2,699.2,2488.4,699.9,2484.3,700L2484.3,700z"/>
			<path d="M2566.6,700c-5.3,0-9.8-1-13.3-3c-3.6-2-6.2-4.8-8-8.5c-1.8-3.7-2.7-8.3-2.7-13.7v-40.6h-11c-1.3,0-2.3-0.3-3.1-1
				c-0.8-0.6-1.2-1.6-1.2-2.7c0-1.1,0.4-1.9,1.2-2.6c0.8-0.6,1.8-1,3.1-1h11v-18.5c0-1.6,0.4-2.7,1.2-3.5c0.8-0.7,1.9-1.1,3.4-1.1
				c1.4,0,2.5,0.4,3.3,1.1s1.2,1.9,1.2,3.5v18.5h20c1.4,0,2.4,0.3,3.1,1c0.7,0.6,1,1.5,1,2.6c0,1.2-0.3,2.1-1,2.7
				c-0.7,0.6-1.7,1-3.1,1h-20v39.5c0,6,1.2,10.6,3.7,13.8c2.5,3.2,6.6,4.7,12.3,4.7c2,0,3.6-0.2,5-0.7c1.3-0.4,2.5-0.7,3.3-0.7
				c0.7,0,1.3,0.3,1.9,0.9c0.5,0.6,0.8,1.5,0.8,2.8c0,0.8-0.2,1.6-0.5,2.4c-0.3,0.8-1,1.3-1.9,1.5c-1.1,0.4-2.6,0.8-4.4,1.1
				C2569.9,699.8,2568.2,699.9,2566.6,700L2566.6,700z"/>
			<path d="M2594.2,608.3c-2.1,0-3.7-0.5-4.8-1.6c-1.1-1.1-1.7-2.6-1.7-4.6s0.6-3.5,1.7-4.5c1.1-1,2.7-1.6,4.8-1.6s3.7,0.5,4.8,1.6
				s1.7,2.5,1.7,4.5c0,2-0.6,3.5-1.7,4.6C2597.9,607.7,2596.3,608.3,2594.2,608.3z M2594.2,699.4c-1.5,0-2.6-0.4-3.4-1.3
				c-0.8-0.9-1.2-2.1-1.2-3.6V631c0-1.6,0.4-2.8,1.2-3.6c0.8-0.8,1.9-1.2,3.4-1.2c1.4,0,2.5,0.4,3.3,1.2c0.8,0.8,1.2,2,1.2,3.6v63.5
				c0,1.5-0.4,2.7-1.1,3.6C2596.8,698.9,2595.7,699.4,2594.2,699.4L2594.2,699.4z"/>
			<path d="M2648.5,699.7c-1.5,0-2.7-0.4-3.7-1.2c-1-0.8-1.9-2-2.7-3.6l-26.7-62.3c-0.5-1.2-0.7-2.3-0.5-3.3c0.1-1,0.6-1.9,1.3-2.5
				s1.8-1,3.2-1c1.3,0,2.2,0.3,2.9,0.9c0.6,0.6,1.2,1.5,1.7,2.8l26.4,63.8h-3.7l26.5-63.8c0.5-1.3,1.1-2.2,1.8-2.8s1.7-0.9,3-0.9
				s2.2,0.3,2.9,1c0.6,0.6,1,1.5,1.1,2.5c0.1,1-0.1,2.1-0.6,3.3l-26.7,62.5c-0.6,1.6-1.4,2.8-2.5,3.6
				C2651.1,699.3,2649.9,699.7,2648.5,699.7L2648.5,699.7z"/>
			<path d="M2718.8,700c-4.8,0-9.2-0.9-13-2.8c-3.8-1.9-6.8-4.4-9.1-7.7c-2.2-3.3-3.3-6.9-3.3-11c0-5.3,1.3-9.5,4-12.6
				c2.7-3.1,7.2-5.2,13.5-6.5c6.3-1.2,15-1.9,26.1-1.9h6.4v6.7h-6.2c-8.9,0-15.8,0.4-20.8,1.1s-8.5,2.1-10.5,4.1c-2,2-3,4.7-3,8.3
				c0,4.4,1.5,8.1,4.6,10.8c3.1,2.8,7.2,4.1,12.5,4.1c4.2,0,8-1,11.2-3c3.2-2,5.8-4.8,7.6-8.4c1.9-3.6,2.8-7.6,2.8-12.2v-16.9
				c0-6.6-1.3-11.4-4-14.5c-2.7-3-6.9-4.5-12.8-4.5c-3.8,0-7.4,0.5-10.9,1.5c-3.5,1-7.2,2.6-11.2,4.7c-1.1,0.6-2.1,0.8-2.9,0.6
				c-0.8-0.2-1.5-0.6-1.9-1.2c-0.4-0.6-0.7-1.3-0.9-2.2c-0.1-0.8,0-1.7,0.4-2.5c0.4-0.8,1.1-1.4,2.1-1.9c4.1-2.3,8.4-4,12.7-5.1
				c4.3-1.1,8.5-1.7,12.5-1.7c5.8,0,10.7,1,14.5,3c3.8,2,6.6,5,8.5,8.9c1.8,4,2.7,9.1,2.7,15.3v42.4c0,1.5-0.3,2.6-1,3.4
				c-0.7,0.8-1.7,1.2-3.1,1.2c-1.4,0-2.5-0.4-3.3-1.2c-0.8-0.8-1.2-1.9-1.2-3.4v-13.6h1.5c-0.9,3.9-2.5,7.2-4.7,9.9
				c-2.3,2.8-5.1,4.9-8.5,6.4C2726.7,699.2,2722.9,699.9,2718.8,700L2718.8,700z"/>
		</g>
		<g>
			<path class="st0" d="M928.4,493.1h20.4c2.6,0,4.7,2.1,4.7,4.7v46c0,2.6-2.1,4.7-4.7,4.7h-20.4c-2.6,0-4.7-2.1-4.7-4.7v-46
				c0-1.2,0.5-2.4,1.4-3.3C926,493.6,927.2,493.1,928.4,493.1L928.4,493.1z M928.4,429.4h20.4c2.6,0,4.7,2.1,4.7,4.7v46
				c0,2.6-2.1,4.7-4.7,4.7h-20.4c-2.6,0-4.7-2.1-4.7-4.7v-46C923.7,431.5,925.8,429.4,928.4,429.4L928.4,429.4z"/>
			<path class="st0" d="M1091.1,474.4v29.3c0,32.3-26.6,44.4-44.5,44.8h-32.8c-2.6,0-4.7-2.1-4.7-4.7v-20.4c0-2.6,2.1-4.7,4.7-4.7
				h32.2c5.8-0.3,15.3-2.6,15.3-15v-29.5c-0.1-3.1-0.9-6.1-2.3-8.8c-1.6-3-4.4-6.1-12.8-6.1c-14.9,0-29.6,0-40.7,0
				c-1.2,0-2.4,0.5-3.3,1.4c-0.9,0.9-1.4,2.1-1.4,3.3v79.9c0,2.6-2.1,4.7-4.7,4.7h-20.4c-2.6,0-4.7-2.1-4.7-4.7V434.1
				c0-1.2,0.5-2.4,1.4-3.3c0.9-0.9,2.1-1.4,3.3-1.4l10.2,0c0,0,29.7,0.1,60.3,0.1c16.5,0,26.6,6.7,32.1,12.4
				C1090.8,454.5,1091.2,471.7,1091.1,474.4L1091.1,474.4z"/>
			<path class="st0" d="M1113.5,493.1h20.4c2.6,0,4.7,2.1,4.7,4.7v46c0,2.6-2.1,4.7-4.7,4.7h-20.4c-2.6,0-4.7-2.1-4.7-4.7v-46
				c0-1.2,0.5-2.4,1.4-3.3C1111,493.6,1112.2,493.1,1113.5,493.1z M1113.5,429.4h20.4c2.6,0,4.7,2.1,4.7,4.7v46
				c0,2.6-2.1,4.7-4.7,4.7h-20.4c-2.6,0-4.7-2.1-4.7-4.7v-46C1108.8,431.5,1110.9,429.4,1113.5,429.4L1113.5,429.4z"/>
			<path class="st0" d="M1225.2,430.2c30.6,5,52.3,32.6,49.8,63.5c-2.5,30.9-28.3,54.7-59.3,54.7c-31,0-56.8-23.8-59.3-54.7
				c-2.5-30.9,19.2-58.6,49.8-63.5c1.3-0.2,2.7,0.2,3.7,1c1,0.9,1.6,2.2,1.6,3.5v21c0,2.1-1.5,4-3.5,4.5
				c-13,3.5-22.1,15.2-22.1,28.7c0,23.2,26.7,40.3,51,22.2c0.4-0.3,0.7-0.6,1-1c16-21.6,4.4-44.9-14.6-49.9c-2-0.5-3.4-2.3-3.5-4.4
				v-21.1c0-1.4,0.6-2.6,1.7-3.5C1222.5,430.3,1223.9,430,1225.2,430.2L1225.2,430.2L1225.2,430.2z"/>
			<path class="st0" d="M1322.6,434.1v109.7c0,2.6-2.1,4.7-4.7,4.7h-20.4c-2.6,0-4.7-2.1-4.7-4.7V434.1c0-2.6,2.1-4.7,4.7-4.7h20.4
				C1320.4,429.4,1322.5,431.5,1322.6,434.1z M1410.9,430.8c0.9,0.9,1.4,2.1,1.4,3.3v109.7c0,2.6-2.1,4.7-4.7,4.7h-20.4
				c-2.6,0-4.7-2.1-4.7-4.7v-52.4c0-1.1-0.7-2-1.7-2.3c-1-0.3-2.1,0.1-2.6,1.1l-23.4,38.8c-0.4,0.7-1.2,1.1-2,1.1s-1.6-0.4-2-1.1
				l-19.3-31.7c-0.4-0.7-0.7-1.6-0.7-2.4v-47.6c0-1.1,0.7-2,1.7-2.3s2.1,0.1,2.6,1l15.5,25.5c0.4,0.7,1.2,1.1,2,1.1s1.6-0.4,2-1.1
				l24-39.8c0.8-1.4,2.4-2.3,4-2.3h24.9C1408.8,429.4,1410,429.9,1410.9,430.8L1410.9,430.8z"/>
			<path class="st0" d="M1542.1,546.5c-0.9,1.2-2.3,2-3.8,2h-21.6c-2,0-3.8-1.3-4.4-3.1l-3.2-8.9c-0.7-1.9-2.4-3.1-4.4-3.1h-24.4
				c-1.5,0-3-0.7-3.8-2c-0.9-1.2-1.1-2.8-0.6-4.3l7.2-20.4c0.7-1.9,2.4-3.1,4.4-3.1h3.3c1.5,0,3-0.7,3.8-2s1.1-2.8,0.6-4.3
				l-4.4-12.4c-0.7-1.9-2.4-3.1-4.4-3.1s-3.8,1.3-4.4,3.1l-6.6,18.7l0,0l-10.5,29.8l0,0l-4.3,12c-0.7,1.9-2.4,3.1-4.4,3.1h-21.6
				c-1.5,0-2.9-0.7-3.8-2c-0.9-1.2-1.1-2.8-0.6-4.3l38.8-109.7c0.7-1.9,2.4-3.1,4.4-3.1h26.1c2,0,3.8,1.3,4.4,3.1l38.8,109.7
				C1543.2,543.6,1543,545.2,1542.1,546.5L1542.1,546.5z"/>
			<path class="st0" d="M1678.6,510.1c0,28.1-22.6,38.3-37.8,38.3l-75.6,0.1c-1.2,0-2.4-0.5-3.3-1.4c-0.9-0.9-1.4-2.1-1.4-3.3
				l0-20.4c0-1.2,0.5-2.4,1.4-3.3c0.9-0.9,2.1-1.4,3.3-1.4l75.5-0.1c8.2-0.3,8.2-4.9,8.2-7.6c0-3.2-1.4-7.1-6.6-7.3l-13.5,0
				c-1.2,0-2.4-0.5-3.3-1.4c-0.9-0.9-1.4-2.1-1.4-3.3v-20.3c0-2.6,2.1-4.7,4.7-4.7h13.2c3.8-0.2,16-0.1,25.6,8.6
				C1672.6,487.2,1678.6,495.6,1678.6,510.1L1678.6,510.1z M1679.4,434.1v20.4c0,2.6-2.1,4.7-4.7,4.7h-76.6
				c-2.6,0.1-7.9,0.5-7.9,7.6c0,4.1,1.3,5.1,3.2,5.9c1.7,0.8,3.6,1.2,5.4,1.4h12.2c2.6,0,4.7,2.1,4.7,4.7v20.4
				c0,2.6-2.1,4.7-4.7,4.7H1599c-6.3-0.1-12.4-1.5-18.1-4.2c-12.9-6.1-20.3-18.1-20.3-32.9c0-14.8,6.9-26.5,19.4-32.8
				c5.5-2.8,11.6-4.3,17.8-4.5h77.1C1677.3,429.4,1679.4,431.5,1679.4,434.1L1679.4,434.1z"/>
			<path class="st0" d="M1876.3,434.1v20.4c0,2.6-2.1,4.7-4.7,4.7h-79.9c-1.2,0-2.4,0.5-3.3,1.4c-0.9,0.9-1.4,2.1-1.4,3.3V514
				c0,2.6,2.1,4.7,4.7,4.7h79.9c2.6,0,4.7,2.1,4.7,4.7v20.4c0,2.6-2.1,4.7-4.7,4.7h-109.7c-2.6,0-4.7-2.1-4.7-4.7V434.1
				c0-2.6,2.1-4.7,4.7-4.7h109.7C1874.2,429.4,1876.3,431.5,1876.3,434.1L1876.3,434.1z M1799.9,503.8c-2.6,0-4.7-2.1-4.7-4.7v-20.4
				c0-2.6,2.1-4.7,4.7-4.7h71.6c2.6,0,4.7,2.1,4.7,4.7v20.4c0,2.6-2.1,4.7-4.7,4.7H1799.9z"/>
			<path class="st0" d="M1923.6,487.6v56.2c0,2.6-2.1,4.7-4.7,4.7h-20.4c-2.6,0-4.7-2.1-4.7-4.7V434.1c0-2.6,2.1-4.7,4.7-4.7h20.4
				c2.6,0,4.7,2.1,4.7,4.7L1923.6,487.6L1923.6,487.6z M2012.4,434.1v109.7c0,2.6-2.1,4.7-4.7,4.7h-26.4c-1.5,0-2.9-0.7-3.8-1.9
				l-44.8-60c-0.6-0.8-0.9-1.8-0.9-2.8v-41.1c0-1,0.6-1.9,1.6-2.2c1-0.3,2,0,2.6,0.8l42.4,56.8c0.6,0.8,1.7,1.1,2.6,0.8
				c1-0.3,1.6-1.2,1.6-2.2v-62.5c0-2.6,2.1-4.7,4.7-4.7h20.4C2010.4,429.4,2012.5,431.5,2012.4,434.1L2012.4,434.1z"/>
			<path class="st0" d="M2208.2,510.1c0,28.1-22.6,38.3-37.8,38.3l-75.6,0.1c-1.2,0-2.4-0.5-3.3-1.4c-0.9-0.9-1.4-2.1-1.4-3.3
				l0-20.4c0-1.2,0.5-2.4,1.4-3.3c0.9-0.9,2.1-1.4,3.3-1.4l75.5-0.1c8.2-0.3,8.2-4.9,8.2-7.6c0-3.2-1.4-7.1-6.6-7.3l-13.5,0
				c-1.2,0-2.4-0.5-3.3-1.4s-1.4-2.1-1.4-3.3v-20.3c0-2.6,2.1-4.7,4.7-4.7h13.2c3.8-0.2,16-0.1,25.6,8.6
				C2202.3,487.2,2208.3,495.6,2208.2,510.1L2208.2,510.1z M2209.1,434.1v20.4c0,2.6-2.1,4.7-4.7,4.7h-76.6
				c-2.6,0.1-7.9,0.5-7.9,7.6c0,4.1,1.3,5.1,3.2,5.9c1.7,0.8,3.6,1.2,5.4,1.4h12.2c2.6,0,4.7,2.1,4.7,4.7v20.4
				c0,2.6-2.1,4.7-4.7,4.7h-12.2c-6.3-0.1-12.4-1.5-18.1-4.2c-12.9-6.1-20.3-18.1-20.3-32.9c0-14.8,6.9-26.5,19.4-32.8
				c5.5-2.8,11.6-4.3,17.8-4.5h77.1C2207,429.4,2209.1,431.5,2209.1,434.1L2209.1,434.1z"/>
			<path class="st0" d="M2345.8,434.1v20.4c0,2.6-2.1,4.7-4.7,4.7h-79.9c-1.2,0-2.4,0.5-3.3,1.4c-0.9,0.9-1.4,2.1-1.4,3.3V514
				c0,2.6,2.1,4.7,4.7,4.7h79.9c2.6,0,4.7,2.1,4.7,4.7v20.4c0,2.6-2.1,4.7-4.7,4.7h-109.7c-2.6,0-4.7-2.1-4.7-4.7V434.1
				c0-2.6,2.1-4.7,4.7-4.7h109.7C2343.7,429.4,2345.8,431.5,2345.8,434.1L2345.8,434.1z M2269.5,503.8c-2.6,0-4.7-2.1-4.7-4.7v-20.4
				c0-2.6,2.1-4.7,4.7-4.7h71.6c2.6,0,4.7,2.1,4.7,4.7v20.4c0,2.6-2.1,4.7-4.7,4.7H2269.5z"/>
			<path class="st0" d="M2393.1,487.6v56.2c0,2.6-2.1,4.7-4.7,4.7H2368c-2.6,0-4.7-2.1-4.7-4.7V434.1c0-2.6,2.1-4.7,4.7-4.7h20.4
				c2.6,0,4.7,2.1,4.7,4.7L2393.1,487.6L2393.1,487.6z M2480.6,430.8c0.9,0.9,1.4,2.1,1.4,3.3v109.7c0,2.6-2.1,4.7-4.7,4.7h-26.4
				c-1.5,0-2.9-0.7-3.8-1.9l-44.8-60c-0.6-0.8-0.9-1.8-0.9-2.8v-41.1c0-1,0.6-1.9,1.6-2.2c1-0.3,2,0,2.6,0.8L2448,498
				c0.6,0.8,1.7,1.1,2.6,0.8c1-0.3,1.6-1.2,1.6-2.2v-62.5c0-2.6,2.1-4.7,4.7-4.7h20.4C2478.5,429.4,2479.7,429.9,2480.6,430.8
				L2480.6,430.8z M2414.9,422.2c-0.6,0.6-1.6,0.9-2.4,0.6c-0.9-0.2-1.5-0.9-1.7-1.8c-0.2-0.9,0.1-1.8,0.7-2.4l5.7-5.5
				c1.5-1.6,3.7-2.4,5.8-2c2.1,0.6,3.7,2.1,4.3,4.2l1,2.7c0.3,0.8,0.7,1.1,0.8,1.1c0.1,0,0.6,0,1.2-0.7l6-5.7c1-0.9,2.6-0.9,3.5,0.1
				c0.9,1,0.9,2.6-0.1,3.5l-6,5.7c-1.2,1.2-2.9,2-4.6,2.1c-0.4,0-0.8,0-1.2-0.1c-2.1-0.6-3.7-2.1-4.3-4.2l-1-2.7
				c-0.3-0.8-0.7-1.1-0.8-1.1c-0.1,0-0.6,0-1.3,0.7L2414.9,422.2L2414.9,422.2L2414.9,422.2z"/>
			<path class="st0" d="M2611.8,546.5c-0.9,1.2-2.3,2-3.8,2h-21.6c-2,0-3.8-1.3-4.4-3.1l-3.2-8.9c-0.7-1.9-2.4-3.1-4.4-3.1H2550
				c-1.5,0-3-0.7-3.8-2c-0.9-1.2-1.1-2.8-0.6-4.3l7.2-20.4c0.7-1.9,2.4-3.1,4.4-3.1h3.3c1.5,0,3-0.7,3.8-2s1.1-2.8,0.6-4.3
				l-4.4-12.4c-0.7-1.9-2.4-3.1-4.4-3.1c-2,0-3.8,1.3-4.4,3.1l-6.6,18.7l0,0l-10.5,29.8l0,0l-4.3,12c-0.7,1.9-2.4,3.1-4.4,3.1h-21.6
				c-1.5,0-2.9-0.7-3.8-2c-0.9-1.2-1.1-2.8-0.6-4.3l38.8-109.7c0.7-1.9,2.4-3.1,4.4-3.1h26.1c2,0,3.8,1.3,4.4,3.1l38.8,109.7
				C2612.9,543.6,2612.7,545.2,2611.8,546.5L2611.8,546.5z"/>
			<path class="st0" d="M2748.3,510.1c0,28.1-22.6,38.3-37.8,38.3l-75.6,0.1c-1.2,0-2.4-0.5-3.3-1.4c-0.9-0.9-1.4-2.1-1.4-3.3
				l0-20.4c0-1.2,0.5-2.4,1.4-3.3c0.9-0.9,2.1-1.4,3.3-1.4l75.5-0.1c8.2-0.3,8.2-4.9,8.2-7.6c0-3.2-1.4-7.1-6.6-7.3l-13.5,0
				c-1.2,0-2.4-0.5-3.3-1.4c-0.9-0.9-1.4-2.1-1.4-3.3v-20.3c0-2.6,2.1-4.7,4.7-4.7h13.2c3.8-0.2,16-0.1,25.6,8.6
				C2742.3,487.2,2748.3,495.6,2748.3,510.1L2748.3,510.1z M2749.1,434.1v20.4c0,2.6-2.1,4.7-4.7,4.7h-76.6
				c-2.6,0.1-7.9,0.5-7.9,7.6c0,4.1,1.3,5.1,3.2,5.9c1.7,0.8,3.6,1.2,5.4,1.4h12.2c2.6,0,4.7,2.1,4.7,4.7v20.4
				c0,2.6-2.1,4.7-4.7,4.7h-12.2c-6.3-0.1-12.4-1.5-18.1-4.2c-12.9-6.1-20.3-18.1-20.3-32.9c0-14.8,6.9-26.5,19.4-32.8
				c5.5-2.8,11.6-4.3,17.8-4.5h77.1C2747,429.4,2749.1,431.5,2749.1,434.1L2749.1,434.1z"/>
		</g>
	</g>
</g>
</svg>
