<?xml version="1.0" encoding="UTF-8"?>
<svg id="Capa_2" data-name="Capa 2" xmlns="http://www.w3.org/2000/svg" viewBox="0 0 2239.83 570.82">
  <defs>
    <style>
      .cls-1 {
        letter-spacing: 0em;
      }

      .cls-2 {
        letter-spacing: 0em;
      }

      .cls-3 {
        letter-spacing: 0em;
      }

      .cls-4 {
        fill: #0094ef;
      }

      .cls-5, .cls-6 {
        fill: #0b1a49;
      }

      .cls-7 {
        letter-spacing: -.01em;
      }

      .cls-6 {
        font-family: Nunito-Light, Nunito;
        font-size: 107.34px;
        font-weight: 300;
      }
    </style>
  </defs>
  <g id="Layer_1" data-name="Layer 1">
    <path class="cls-5" d="m163.14,416.55c.09,0,.19,0,.28,0,5.08-.1,7.78-2.51,9.15-4.51,1.78-2.62,2.22-5.81,2.4-8.3,1.67-23.38,9.11-42.81,22.09-57.75,12.95-14.9,31.24-25.11,54.34-30.35,3.28-.74,6.1-3.18,7.17-4.2,1.86-1.77,4.08-4.55,4.11-7.73.04-4.13-1.74-6.55-3.25-7.86-2.69-2.35-6.73-3.14-12-2.37-24.96,3.67-48.54,16.73-66.41,36.78-17.87,20.06-28.09,44.95-28.77,70.09-.18,6.57.93,10.7,3.58,13.37,1.87,1.88,4.32,2.83,7.31,2.83Z"/>
    <path class="cls-5" d="m452.41,232.5h0c-6.97-15.17-19.57-22.97-36.44-22.54-23.8.6-44.42,9.29-61.27,25.83-6.46,6.34-12.95,12.85-19.23,19.15-8.44,8.47-17.18,17.24-25.92,25.66-1.22,1.17-3.45,2.12-4.61,2.3-.69-.94-1.58-3.18-1.63-4.86-.38-14.95-.3-30.21-.22-44.96.01-2.55.03-5.1.04-7.65.01-2.81-.19-6.43-1.84-9.5-1.99-3.68-5.65-5.72-10.33-5.74h-.06c-3.5,0-6.35,1.07-8.46,3.19-3.31,3.31-3.71,8.16-3.69,12,.01,2.36.02,4.71.04,7.07.08,14.95.16,30.41-.08,45.59-.23,13.87,5.34,23.3,16.53,28.05,5.95,2.52,11.82,2.92,17.45,1.2,4.87-1.49,9.48-4.51,14.09-9.22,9.14-9.34,18.56-18.73,27.67-27.81,5.24-5.22,10.65-10.62,15.96-15.95,5.68-5.71,12.03-10.27,18.87-13.56,6.82-3.28,14.33-5.39,22.34-6.28,12.34-1.37,16.32,3.22,18.4,7.37,2.67,5.31,2.66,10.27-5.63,18.6-50.07,50.24-95.21,95.51-140.75,140.87-8.61,8.58-17.61,15.5-26.75,20.58-10.02,5.56-20.5,9.07-31.15,10.42-23.68,3-48.3,3.03-70.02,3.06h-.13c-22.25,0-43.58-6.84-61.7-19.78-8.86-6.33-16.71-13.96-23.32-22.69-6.73-8.89-12.07-18.77-15.86-29.36-2.03-5.66-3.43-11.35-4.4-17.09,12.37-5.6,21-18.07,21-32.51,0-19.67-16-35.66-35.66-35.66S0,294.28,0,313.94c0,16.24,10.91,29.98,25.79,34.27,3.46,22.71,12.95,44.46,27.53,62.64,9.15,11.41,19.96,21.04,32.13,28.63,12.62,7.87,26.33,13.3,40.74,16.14,18.29,3.61,37.3,4.04,55.94,4.04,2.94,0,5.87-.01,8.78-.02,3.69-.01,7.5-.03,11.23-.02.12,0,.24,0,.37,0,18.21,0,35.47-3.2,51.29-9.5,16.14-6.43,30.9-16.13,43.88-28.85,39.66-38.85,79.46-78.87,117.96-117.57,9.44-9.49,19.21-19.31,28.82-28.96,5.92-5.94,9.61-12.69,10.98-20.08,1.35-7.24.3-14.91-3.04-22.17ZM35.66,300.12c7.62,0,13.82,6.2,13.82,13.82s-6.2,13.82-13.82,13.82-13.82-6.2-13.82-13.82,6.2-13.82,13.82-13.82Z"/>
    <path class="cls-4" d="m55.53,186.72c2.93-4.97,7.83-7.77,13.81-7.87,6.16-.1,11.24,2.69,14.3,7.87l1.32,2.24h24.85l-.12-4.66c-.13-5.24-.21-9.58-.26-13.65-.07-6.06,1.93-11.62,5.63-15.66,3.63-3.96,8.69-6.22,14.25-6.36,5.58-.15,10.76,1.85,14.61,5.61,3.92,3.84,6.19,9.28,6.4,15.31.15,4.52.31,9.42.48,14.99l.13,4.41h23.43l-.22-7.63c-.24-8.56-.49-17.4-.62-26.09-.1-6.63,2.07-12.57,6.11-16.72,3.66-3.76,8.51-5.79,14.03-5.87,11.63-.16,20.36,8.77,20.77,21.24.32,9.85.63,20.16.91,30.65l.12,4.43h23.32l-.13-4.68c-.49-17.65-.91-35.6-1.32-52.95-.28-12.07-.58-24.56-.89-36.84-.13-4.96-.27-10.01-.42-14.88-.34-11.54-.69-23.48-.79-35.2-.04-5.22,1.78-10.23,5.14-14.09,3.3-3.8,7.8-6.19,12.66-6.74,10.23-1.15,20.12,5.86,22.51,15.96.56,2.35.62,5,.69,7.8,0,.35.02.71.03,1.06,1.26,47.33,2.18,83.51,3,117.32.09,3.68.64,8.92,4.39,12,1.55,1.27,4.27,2.64,8.43,1.91,5.33-.93,10.44-8.69,10.36-13.81-.75-50-1.7-88.43-3.1-124.6-.44-11.47-5.52-22.08-14.29-29.87-4.2-3.73-9.01-6.61-14.31-8.57-5.45-2.01-11.16-2.94-16.96-2.76-11.21.35-21.74,5.06-29.66,13.27-7.93,8.22-12.32,19.01-12.38,30.39-.04,7.99.22,16.07.47,23.88.11,3.38.22,6.87.31,10.29.25,9.86.5,19.73.76,29.76l.16,6.29c-13.06-4.79-23.16-5.72-32.15-3.06-9.45,2.79-17.66,9.56-26.28,21.73-5.95-3.62-12.24-5.93-18.75-6.9-7.62-1.14-15.34-.3-22.33,2.41-13.19,5.12-22.99,16.35-27.46,31.23-11.77-4.7-23.7-4.84-33.87-.34-10,4.42-17.46,12.97-20.99,24.08l-1.89,5.93h24.46l1.32-2.24Z"/>
    <path class="cls-4" d="m67.64,257.24c22.73,0,41.22-18.49,41.22-41.22,0-1.11-.05-2.24-.14-3.35l-.14-1.67h-24.49l.37,2.13c.16.95.25,1.93.25,2.9,0,9.41-7.66,17.07-17.07,17.07s-17.07-7.66-17.07-17.07c0-.97.08-1.95.25-2.9l.37-2.13h-24.49l-.14,1.67c-.09,1.12-.14,2.25-.14,3.35,0,22.73,18.49,41.22,41.22,41.22Z"/>
    <path class="cls-4" d="m180.07,210.99h-24.49l-.14,1.67c-.09,1.12-.14,2.25-.14,3.35,0,22.73,18.49,41.22,41.22,41.22s41.22-18.49,41.22-41.22c0-1.11-.05-2.24-.14-3.35l-.14-1.67h-24.49l.37,2.13c.16.95.25,1.93.25,2.9,0,9.41-7.66,17.07-17.07,17.07s-17.07-7.66-17.07-17.07c0-.97.08-1.95.25-2.9l.37-2.13Z"/>
    <path class="cls-5" d="m95.75,272.52c-.23,1.73-.35,3.5-.35,5.29,0,21.88,17.8,39.67,39.67,39.67s39.67-17.8,39.67-39.67c0-1.79-.12-3.56-.35-5.29h-24.54c.59,1.65.92,3.44.92,5.29,0,8.65-7.04,15.69-15.69,15.69s-15.69-7.04-15.69-15.69c0-1.86.33-3.64.92-5.29h-24.54Z"/>
    <path class="cls-4" d="m35.49,349.22c-19.4,0-35.19-15.79-35.19-35.19s15.79-35.19,35.19-35.19,35.19,15.79,35.19,35.19-15.79,35.19-35.19,35.19Zm0-48.83c-7.52,0-13.64,6.12-13.64,13.64s6.12,13.64,13.64,13.64,13.64-6.12,13.64-13.64-6.12-13.64-13.64-13.64Z"/>
    <text class="cls-6" transform="translate(505.65 358.79)"><tspan x="0" y="0">Plata</tspan><tspan class="cls-7" x="245.58" y="0">f</tspan><tspan x="278.21" y="0">orma Digital </tspan><tspan class="cls-1" x="885.61" y="0">E</tspan><tspan x="946.9" y="0">du</tspan><tspan class="cls-1" x="1067.98" y="0">c</tspan><tspan x="1116.71" y="0">a</tspan><tspan class="cls-3" x="1172.74" y="0">t</tspan><tspan x="1209.02" y="0">i</tspan><tspan class="cls-2" x="1232.84" y="0">v</tspan><tspan x="1286.4" y="0">a</tspan></text>
    <g>
      <g>
        <path class="cls-4" d="m519.81,158.84h16.13c1.59,0,2.87,1.29,2.87,2.87v86.78c0,1.59-1.29,2.88-2.88,2.88h-16.13c-1.59,0-2.87-1.29-2.87-2.87v-86.78c0-1.59,1.29-2.88,2.88-2.88Z"/>
        <path class="cls-4" d="m587.41,251.37h25.96c13.81-.26,34.39-9.68,34.39-34.6v-23.17c.02-2.51-.39-15.52-9.84-25.16-4.28-4.36-12.06-9.55-24.82-9.55-23.86,0-47.44-.05-47.68-.05l-8.08-.02c-.76.02-1.5.3-2.04.84-.54.54-.84,1.28-.84,2.04v86.8c0,1.59,1.29,2.87,2.87,2.87h16.13c1.59,0,2.88-1.29,2.88-2.88v-63.2c0-1.2.48-2.37,1.33-3.21.86-.86,2-1.33,3.21-1.33h0c8.83.01,20.45.03,32.21.03,7.09,0,9.52,2.82,10.84,5.27,1.17,2.31,1.81,4.78,1.92,7.34v23.39c0,4.52-1.68,12.18-12.9,12.72h-25.54c-1.59,0-2.87,1.29-2.87,2.88v16.13c0,1.59,1.29,2.87,2.87,2.87Z"/>
        <g>
          <path class="cls-4" d="m685.26,212.08c0-1.59-1.29-2.88-2.87-2.88h-16.13c-.77,0-1.49.3-2.03.84-.54.54-.84,1.27-.84,2.03v36.42c0,1.59,1.29,2.88,2.88,2.88h16.13c1.59,0,2.87-1.29,2.87-2.87v-36.42Z"/>
          <path class="cls-4" d="m666.25,158.84h16.13c1.59,0,2.87,1.29,2.87,2.87v36.41c0,1.59-1.29,2.87-2.87,2.87h-16.13c-1.59,0-2.87-1.29-2.87-2.87v-36.4c0-1.59,1.29-2.88,2.88-2.88Z"/>
        </g>
        <path class="cls-4" d="m710.76,176.57c-7.2,9.18-10.64,20.63-9.71,32.26.94,11.62,6.17,22.38,14.74,30.29,8.57,7.91,19.71,12.27,31.38,12.27s22.81-4.36,31.38-12.27c8.57-7.91,13.81-18.67,14.74-30.29.94-11.63-2.51-23.08-9.71-32.26-7.05-8.99-17.07-15-28.29-17h0s-.73-.12-.73-.12c-.82-.14-1.65.08-2.29.62-.64.53-1,1.32-1.01,2.15v16.71c.01,1.25.88,2.33,2.1,2.63,7.85,2.07,14.13,7.87,16.82,15.52,2.9,8.25,1.2,17.23-4.77,25.28-.27.37-.6.69-.96.96-9.03,6.74-19.31,8.06-28.19,3.61-8.32-4.17-13.49-12.53-13.49-21.81.02-11.01,7.46-20.69,18.1-23.53,1.28-.32,2.17-1.44,2.18-2.74v-16.62c0-.82-.37-1.61-1-2.14-.51-.43-1.16-.67-1.82-.67-.15,0-.31.01-.46.04-11.52,1.87-21.82,7.95-29.02,17.12Z"/>
        <g>
          <path class="cls-4" d="m830.87,161.71c0-1.58-1.29-2.87-2.87-2.87h-16.13c-1.59,0-2.87,1.29-2.87,2.88v86.78c0,1.59,1.29,2.87,2.87,2.87h16.13c1.59,0,2.88-1.29,2.88-2.88v-86.79Z"/>
          <path class="cls-4" d="m901.85,161.72c0-.77-.3-1.49-.84-2.03-.54-.54-1.26-.84-2.03-.84h-19.71s0,0,0,0c-1,0-1.95.53-2.46,1.39l-18.96,31.49c-.48.8-1.37,1.3-2.3,1.3s-1.82-.5-2.3-1.3l-12.26-20.16c-.24-.39-.71-.58-1.15-.45-.44.12-.75.53-.75.98v37.68c0,.53.14,1.04.42,1.49l15.25,25.09c.18.3.52.49.87.49s.69-.19.87-.49l18.48-30.68c.49-.82,1.38-1.3,2.31-1.3.24,0,.48.03.71.1,1.16.32,1.97,1.39,1.97,2.59v41.44c0,1.59,1.29,2.87,2.87,2.87h16.13c1.59,0,2.87-1.29,2.87-2.87v-86.79Z"/>
        </g>
        <path class="cls-4" d="m956.54,239.38h19.28c1.92,0,3.64,1.22,4.28,3.03l2.5,7.05c.4,1.15,1.49,1.92,2.71,1.92h17.11c.93,0,1.81-.45,2.35-1.22.54-.76.67-1.74.36-2.62l-30.69-86.78c-.41-1.15-1.49-1.92-2.71-1.92h-20.66c-1.22,0-2.31.77-2.71,1.92l-30.69,86.78c-.31.88-.18,1.86.36,2.62.54.76,1.42,1.22,2.35,1.22h17.11c1.22,0,2.3-.77,2.71-1.92l16.92-47.83c.64-1.81,2.36-3.03,4.28-3.03s3.64,1.22,4.28,3.03l3.47,9.82c.49,1.39.28,2.93-.57,4.14-.85,1.2-2.24,1.92-3.71,1.92h-2.63c-1.22,0-2.3.77-2.71,1.92l-5.71,16.13c-.31.88-.18,1.86.36,2.62.54.76,1.42,1.22,2.35,1.22Z"/>
        <g>
          <path class="cls-4" d="m1160.95,232.37c0-1.59-1.29-2.88-2.87-2.88h-63.23c-2.5,0-4.54-2.04-4.54-4.54v-39.68c0-1.21.47-2.35,1.33-3.21.86-.86,2-1.33,3.21-1.33h63.23c1.58,0,2.87-1.29,2.87-2.87v-16.13c0-1.59-1.29-2.87-2.87-2.87h-86.78c-1.59,0-2.87,1.29-2.87,2.87v86.78c0,1.59,1.29,2.87,2.87,2.87h86.78c1.58,0,2.87-1.29,2.87-2.87v-16.13Z"/>
          <path class="cls-4" d="m1101.38,194.16h56.69c1.59,0,2.87,1.29,2.87,2.87v16.13c0,1.59-1.29,2.87-2.87,2.87h-56.69c-1.59,0-2.87-1.29-2.87-2.87v-16.13c0-1.59,1.29-2.87,2.87-2.87Z"/>
        </g>
        <g>
          <path class="cls-4" d="m1198.39,161.72c0-1.59-1.29-2.88-2.88-2.88h-16.13c-1.58,0-2.87,1.29-2.87,2.88v86.78c0,1.59,1.29,2.87,2.87,2.87h16.13c1.59,0,2.88-1.29,2.88-2.88v-86.78Z"/>
          <path class="cls-4" d="m1268.71,161.72c0-1.58-1.29-2.87-2.87-2.88h-16.13c-1.59,0-2.87,1.29-2.87,2.88v49.45c0,1.16-.74,2.19-1.84,2.55-1.1.36-2.31-.01-3-.94l-33.55-44.94c-.2-.26-.5-.41-.82-.41-.11,0-.22.02-.32.05-.42.14-.7.53-.7.97v32.55c0,.62.2,1.23.57,1.72l35.46,47.5c.54.72,1.4,1.16,2.3,1.16h20.9c1.59,0,2.87-1.29,2.87-2.87v-86.78Z"/>
        </g>
        <g>
          <path class="cls-4" d="m1424.32,161.72c0-1.59-1.29-2.88-2.87-2.88h-60.98c-4.77.17-9.39,1.34-13.69,3.48-9.6,4.86-14.88,13.82-14.88,25.23s5.69,20.59,15.6,25.26c4.42,2.04,9.13,3.13,14,3.24h9.62c1.58-.02,2.87-1.3,2.87-2.89v-16.12c0-1.59-1.29-2.87-2.87-2.87h-9.7c-1.58-.13-3.12-.51-4.57-1.14-1.69-.79-3.06-1.74-3.06-5.47,0-6.49,5.09-6.74,7.01-6.83h60.65c1.59,0,2.87-1.29,2.87-2.88v-16.13Z"/>
          <path class="cls-4" d="m1332.76,250.64c.54.54,1.26.84,2.03.84h0l59.83-.1c11.67,0,29.04-7.85,29.04-29.48,0-11.2-4.6-17.7-8.45-21.17-7.39-6.66-16.88-6.71-19.62-6.56h-10.52c-1.59,0-2.87,1.29-2.87,2.88v16.1c0,.76.31,1.5.84,2.03.54.54,1.26.85,2.04.84h10.64c4.47.17,6.05,3.54,6.05,6.63,0,2.13,0,6.54-7.26,6.84l-59.76.1c-.77,0-1.49.3-2.03.85-.53.54-.84,1.28-.84,2.03l.03,16.13c0,.77.3,1.49.85,2.03Z"/>
        </g>
        <g>
          <path class="cls-4" d="m1532.51,232.37c0-1.59-1.29-2.88-2.87-2.88h-63.23c-2.5,0-4.54-2.04-4.54-4.54v-39.68c0-1.21.47-2.35,1.33-3.21.86-.86,2-1.33,3.21-1.33h63.23c1.59,0,2.87-1.29,2.87-2.87v-16.13c0-1.59-1.29-2.87-2.87-2.87h-86.78c-1.59,0-2.87,1.29-2.87,2.87v86.78c0,1.59,1.29,2.87,2.87,2.87h86.78c1.59,0,2.87-1.29,2.87-2.87v-16.13Z"/>
          <rect class="cls-4" x="1470.07" y="194.16" width="62.44" height="21.88" rx="2.87" ry="2.87"/>
        </g>
        <g>
          <path class="cls-4" d="m1569.95,161.72c0-1.59-1.29-2.88-2.88-2.88h-16.13c-1.59,0-2.87,1.29-2.87,2.88v86.78c0,1.59,1.29,2.87,2.87,2.87h16.13c1.59,0,2.88-1.29,2.88-2.87v-86.78Z"/>
          <path class="cls-4" d="m1640.27,161.72c0-1.58-1.29-2.87-2.87-2.88h-16.13c-1.59,0-2.87,1.29-2.87,2.88v49.45c0,1.16-.74,2.19-1.84,2.55-1.1.37-2.31-.01-3-.94l-33.56-44.94c-.2-.26-.5-.41-.82-.41-.11,0-.22.02-.32.05-.42.14-.7.53-.7.97v32.55c0,.61.2,1.23.57,1.72l35.46,47.5c.54.72,1.4,1.16,2.3,1.16h20.9c1.59,0,2.87-1.29,2.87-2.87v-86.78Z"/>
        </g>
        <path class="cls-4" d="m1694.92,239.38h19.28c1.92,0,3.64,1.22,4.28,3.03l2.49,7.05c.41,1.15,1.49,1.92,2.71,1.92h17.11c.93,0,1.81-.45,2.35-1.22.54-.76.67-1.74.36-2.62l-30.69-86.78c-.41-1.15-1.49-1.92-2.71-1.92h-20.66c-1.22,0-2.31.77-2.71,1.92l-30.69,86.78c-.31.88-.18,1.86.36,2.62.54.76,1.42,1.22,2.35,1.22h17.11c1.22,0,2.3-.77,2.71-1.92l16.92-47.83c.64-1.81,2.36-3.03,4.28-3.03s3.64,1.22,4.28,3.03l3.47,9.82c.49,1.39.28,2.93-.57,4.14-.85,1.2-2.24,1.92-3.71,1.92h-2.63c-1.22,0-2.3.77-2.71,1.92l-5.71,16.13c-.31.88-.18,1.86.36,2.62.54.76,1.42,1.22,2.35,1.22Z"/>
        <g>
          <path class="cls-4" d="m1851.67,161.72c0-1.59-1.29-2.88-2.87-2.88h-60.98c-4.77.17-9.39,1.34-13.69,3.48-9.6,4.86-14.88,13.82-14.88,25.23s5.69,20.59,15.6,25.26c4.42,2.04,9.13,3.13,14,3.24h9.62c1.58-.02,2.87-1.3,2.87-2.89v-16.12c0-1.59-1.29-2.87-2.87-2.87h-9.7c-1.58-.13-3.12-.51-4.57-1.14-1.69-.79-3.06-1.75-3.06-5.47,0-6.49,5.09-6.74,7.01-6.83h60.65c1.59,0,2.87-1.29,2.87-2.88v-16.13Z"/>
          <path class="cls-4" d="m1760.11,250.64c.54.54,1.26.84,2.03.84h0l59.83-.1c11.67,0,29.04-7.85,29.04-29.48,0-11.2-4.6-17.7-8.45-21.17-7.39-6.66-16.88-6.71-19.62-6.56h-10.52c-1.59,0-2.87,1.29-2.87,2.88v16.1c0,.76.31,1.5.84,2.03.54.54,1.26.84,2.03.84h10.65c4.47.17,6.05,3.54,6.05,6.63,0,2.13,0,6.54-7.26,6.84l-59.76.1c-.77,0-1.49.3-2.03.85-.53.54-.84,1.28-.84,2.03l.03,16.13c0,.77.3,1.49.85,2.03Z"/>
        </g>
      </g>
      <rect class="cls-4" x="1558.06" y="128.5" width="73.91" height="17.78"/>
    </g>
  </g>
</svg>