<?xml version="1.0" encoding="UTF-8"?>
<svg id="Capa_2" data-name="Capa 2" xmlns="http://www.w3.org/2000/svg" viewBox="0 0 1194.53 929.79">
  <g id="Layer_1" data-name="Layer 1">
    <g>
      <path d="m947.28,337.88h0c-10.13-22.05-28.44-33.38-52.95-32.76-34.59.88-64.55,13.51-89.05,37.54-9.39,9.22-18.82,18.68-27.94,27.83-12.27,12.32-24.96,25.05-37.67,37.29-1.77,1.7-5.01,3.08-6.7,3.34-1-1.37-2.3-4.63-2.36-7.06-.55-21.73-.43-43.9-.32-65.34.02-3.71.04-7.42.06-11.12.02-4.09-.27-9.35-2.67-13.8-2.89-5.35-8.22-8.32-15.01-8.34h-.09c-5.09,0-9.23,1.56-12.3,4.63-4.81,4.81-5.39,11.85-5.37,17.45.02,3.42.04,6.85.05,10.27.12,21.73.24,44.2-.12,66.25-.33,20.15,7.76,33.86,24.03,40.76,8.64,3.66,17.18,4.25,25.36,1.74,7.08-2.17,13.78-6.55,20.48-13.4,13.28-13.57,26.97-27.22,40.21-40.41,7.61-7.59,15.48-15.43,23.2-23.18,8.26-8.3,17.48-14.93,27.42-19.7,9.91-4.76,20.83-7.83,32.46-9.12,17.93-1.99,23.71,4.68,26.75,10.7,3.88,7.72,3.87,14.93-8.19,27.02-72.76,73.01-138.37,138.8-204.54,204.73-12.51,12.46-25.59,22.52-38.88,29.9-14.56,8.08-29.79,13.18-45.27,15.14-34.42,4.36-70.19,4.41-101.75,4.45h-.19c-32.33,0-63.33-9.94-89.66-28.74-12.88-9.2-24.28-20.29-33.88-32.97-9.79-12.92-17.54-27.28-23.05-42.67-2.95-8.23-4.99-16.5-6.4-24.84,17.98-8.14,30.51-26.26,30.51-47.24,0-28.58-23.25-51.83-51.83-51.83s-51.83,23.25-51.83,51.83c0,23.6,15.86,43.57,37.48,49.81,5.03,33.01,18.82,64.62,40.01,91.04,13.3,16.57,29.01,30.57,46.7,41.6,18.34,11.43,38.26,19.32,59.21,23.45,26.58,5.24,54.2,5.87,81.29,5.87,4.27,0,8.53-.02,12.77-.03,5.36-.02,10.9-.04,16.32-.03.18,0,.35,0,.53,0,26.46,0,51.54-4.65,74.54-13.81,23.46-9.34,44.91-23.45,63.77-41.92,57.64-56.47,115.48-114.62,171.42-170.85,13.72-13.8,27.91-28.06,41.88-42.08,8.6-8.63,13.97-18.45,15.96-29.18,1.96-10.53.43-21.67-4.42-32.23Zm-605.64,98.28c11.07,0,20.08,9.01,20.08,20.08s-9.01,20.08-20.08,20.08-20.08-9.01-20.08-20.08,9.01-20.08,20.08-20.08Z"/>
      <path d="m370.52,271.35c4.26-7.23,11.39-11.29,20.06-11.43,8.96-.15,16.34,3.91,20.78,11.44l1.92,3.25h36.12l-.17-6.78c-.19-7.62-.31-13.92-.38-19.83-.1-8.81,2.81-16.89,8.19-22.75,5.27-5.75,12.63-9.03,20.71-9.24,8.1-.21,15.64,2.68,21.23,8.15,5.7,5.58,9,13.48,9.3,22.26.22,6.57.45,13.7.69,21.79l.2,6.41h34.05l-.31-11.09c-.35-12.43-.72-25.29-.9-37.92-.14-9.64,3.01-18.27,8.88-24.3,5.31-5.47,12.36-8.42,20.39-8.53,16.9-.24,29.59,12.75,30.18,30.86.47,14.31.91,29.3,1.32,44.55l.17,6.44h33.89l-.19-6.8c-.71-25.64-1.33-51.73-1.92-76.96-.41-17.55-.84-35.69-1.3-53.54-.18-7.21-.4-14.54-.61-21.63-.49-16.78-1-34.12-1.14-51.15-.06-7.59,2.59-14.86,7.47-20.48,4.8-5.52,11.33-9,18.4-9.79,14.87-1.66,29.24,8.52,32.71,23.2.81,3.42.9,7.26,1,11.33.01.52.02,1.03.04,1.54,1.83,68.78,3.17,121.37,4.36,170.5.13,5.34.93,12.96,6.39,17.43,2.25,1.85,6.21,3.83,12.26,2.78,7.75-1.35,15.17-12.63,15.06-20.07-1.09-72.66-2.48-128.51-4.5-181.08-.64-16.66-8.02-32.08-20.77-43.41-6.1-5.42-13.1-9.61-20.79-12.45-7.92-2.92-16.22-4.27-24.65-4.01-16.28.51-31.59,7.36-43.1,19.28-11.52,11.94-17.91,27.62-17.99,44.16-.06,11.61.32,23.35.69,34.7.16,4.91.32,9.98.45,14.96.36,14.34.73,28.67,1.1,43.24l.23,9.15c-18.98-6.96-33.66-8.31-46.72-4.45-13.73,4.06-25.67,13.89-38.19,31.57-8.65-5.26-17.79-8.62-27.24-10.03-11.08-1.65-22.3-.44-32.45,3.5-19.16,7.44-33.41,23.76-39.9,45.38-17.1-6.83-34.44-7.04-49.22-.5-14.54,6.43-25.37,18.85-30.5,34.99l-2.74,8.62h35.55l1.92-3.26Z"/>
      <path d="m388.11,373.83c33.03,0,59.91-26.88,59.91-59.91,0-1.61-.07-3.25-.2-4.87l-.2-2.43h-35.59l.53,3.09c.24,1.38.36,2.8.36,4.21,0,13.68-11.13,24.81-24.81,24.81s-24.81-11.13-24.81-24.81c0-1.41.12-2.83.36-4.21l.53-3.09h-35.59l-.2,2.43c-.13,1.62-.2,3.26-.2,4.87,0,33.03,26.88,59.91,59.91,59.91Z"/>
      <path d="m551.5,306.62h-35.59l-.2,2.43c-.13,1.62-.2,3.26-.2,4.87,0,33.03,26.88,59.91,59.91,59.91s59.91-26.88,59.91-59.91c0-1.61-.07-3.25-.2-4.87l-.2-2.43h-35.59l.53,3.09c.24,1.38.36,2.8.36,4.21,0,13.68-11.13,24.81-24.81,24.81s-24.81-11.13-24.81-24.81c0-1.41.12-2.83.36-4.21l.53-3.09Z"/>
      <path d="m428.96,396.04c-.34,2.52-.51,5.08-.51,7.69,0,31.79,25.86,57.65,57.65,57.65s57.65-25.86,57.65-57.65c0-2.61-.18-5.17-.51-7.69h-35.67c.86,2.4,1.34,4.99,1.34,7.69,0,12.58-10.23,22.81-22.81,22.81s-22.81-10.23-22.81-22.81c0-2.7.47-5.29,1.34-7.69h-35.67Z"/>
      <path d="m341.39,507.5c-28.2,0-51.14-22.94-51.14-51.14s22.94-51.14,51.14-51.14,51.14,22.94,51.14,51.14-22.94,51.14-51.14,51.14Zm0-70.96c-10.93,0-19.82,8.89-19.82,19.82s8.89,19.82,19.82,19.82,19.82-8.89,19.82-19.82-8.89-19.82-19.82-19.82Z"/>
    </g>
    <g>
      <path d="m3.2,912.34c-.9,0-1.6-.27-2.11-.81-.51-.54-.77-1.29-.77-2.25v-62.02c0-1.02.27-1.79.81-2.3.54-.51,1.26-.77,2.16-.77h22.53c7.16,0,12.65,1.73,16.49,5.18,3.83,3.45,5.75,8.37,5.75,14.76s-1.92,11.23-5.75,14.71c-3.83,3.48-9.33,5.22-16.49,5.22H6.17v25.21c0,.96-.24,1.71-.72,2.25s-1.23.81-2.25.81Zm2.97-33.46h19.17c5.56,0,9.75-1.25,12.56-3.74,2.81-2.49,4.22-6.17,4.22-11.02s-1.41-8.55-4.22-11.07c-2.81-2.52-7-3.79-12.56-3.79H6.17v29.62Z"/>
      <path d="m72.41,912.53c-4.28,0-7.59-1.34-9.92-4.03-2.33-2.68-3.5-6.49-3.5-11.41v-50.52c0-1.02.25-1.77.77-2.25.51-.48,1.25-.72,2.2-.72.89,0,1.6.24,2.11.72.51.48.77,1.23.77,2.25v49.85c0,3.71.73,6.47,2.2,8.29,1.47,1.82,3.61,2.73,6.42,2.73.64,0,1.18-.03,1.63-.1.45-.06.89-.1,1.34-.1.58-.06,1.01.05,1.29.34.29.29.43.88.43,1.77s-.22,1.57-.67,2.01c-.45.45-1.18.77-2.2.96-.45.06-.91.11-1.39.14-.48.03-.98.05-1.49.05Z"/>
      <path d="m100.69,912.53c-3.13,0-5.93-.61-8.39-1.82-2.46-1.21-4.41-2.88-5.85-4.98-1.44-2.11-2.16-4.47-2.16-7.09,0-3.45.86-6.17,2.59-8.15,1.73-1.98,4.63-3.37,8.72-4.17,4.09-.8,9.71-1.2,16.87-1.2h4.12v4.31h-4.03c-5.75,0-10.24.24-13.47.72-3.23.48-5.48,1.36-6.76,2.64-1.28,1.28-1.92,3.07-1.92,5.37,0,2.88.99,5.21,2.97,7,1.98,1.79,4.66,2.68,8.05,2.68,2.75,0,5.16-.65,7.24-1.97,2.08-1.31,3.72-3.12,4.94-5.42,1.21-2.3,1.82-4.92,1.82-7.86v-10.93c0-4.28-.86-7.4-2.59-9.35-1.73-1.95-4.47-2.92-8.24-2.92-2.43,0-4.78.32-7.05.96-2.27.64-4.68,1.66-7.24,3.07-.7.38-1.33.51-1.87.38-.54-.13-.96-.38-1.25-.77-.29-.38-.48-.85-.58-1.39-.1-.54-.02-1.07.24-1.58.25-.51.7-.93,1.34-1.25,2.68-1.47,5.42-2.57,8.2-3.31,2.78-.73,5.48-1.1,8.1-1.1,3.77,0,6.89.64,9.35,1.92,2.46,1.28,4.28,3.2,5.46,5.75,1.18,2.56,1.77,5.85,1.77,9.87v27.42c0,.96-.22,1.69-.67,2.2-.45.51-1.12.77-2.01.77s-1.6-.26-2.11-.77c-.51-.51-.77-1.25-.77-2.2v-8.82h.96c-.58,2.49-1.6,4.63-3.07,6.42-1.47,1.79-3.29,3.16-5.46,4.12-2.17.96-4.6,1.44-7.29,1.44Z"/>
      <path d="m153.89,912.53c-3.45,0-6.33-.64-8.63-1.92-2.3-1.28-4.03-3.12-5.18-5.51-1.15-2.4-1.73-5.35-1.73-8.87v-26.27h-7.09c-.83,0-1.5-.21-2.01-.62-.51-.41-.77-1.01-.77-1.77,0-.7.25-1.26.77-1.68.51-.41,1.18-.62,2.01-.62h7.09v-11.98c0-1.02.25-1.77.77-2.25.51-.48,1.25-.72,2.2-.72.89,0,1.6.24,2.11.72.51.48.77,1.23.77,2.25v11.98h12.94c.89,0,1.57.21,2.01.62.45.42.67.98.67,1.68,0,.77-.22,1.36-.67,1.77-.45.42-1.12.62-2.01.62h-12.94v25.5c0,3.9.8,6.87,2.4,8.92,1.6,2.05,4.25,3.07,7.96,3.07,1.28,0,2.35-.14,3.21-.43.86-.29,1.58-.43,2.16-.43.45,0,.85.19,1.2.58.35.38.53.99.53,1.82,0,.51-.11,1.02-.34,1.53-.22.51-.62.83-1.2.96-.7.26-1.66.49-2.88.72-1.21.22-2.33.34-3.36.34Z"/>
      <path d="m182.84,912.53c-3.13,0-5.93-.61-8.39-1.82-2.46-1.21-4.41-2.88-5.85-4.98-1.44-2.11-2.16-4.47-2.16-7.09,0-3.45.86-6.17,2.59-8.15,1.73-1.98,4.63-3.37,8.72-4.17,4.09-.8,9.71-1.2,16.87-1.2h4.12v4.31h-4.03c-5.75,0-10.24.24-13.47.72-3.23.48-5.48,1.36-6.76,2.64-1.28,1.28-1.92,3.07-1.92,5.37,0,2.88.99,5.21,2.97,7,1.98,1.79,4.66,2.68,8.05,2.68,2.75,0,5.16-.65,7.24-1.97,2.08-1.31,3.72-3.12,4.94-5.42,1.21-2.3,1.82-4.92,1.82-7.86v-10.93c0-4.28-.86-7.4-2.59-9.35-1.73-1.95-4.47-2.92-8.24-2.92-2.43,0-4.78.32-7.05.96-2.27.64-4.68,1.66-7.24,3.07-.7.38-1.33.51-1.87.38-.54-.13-.96-.38-1.25-.77s-.48-.85-.58-1.39c-.1-.54-.02-1.07.24-1.58.25-.51.7-.93,1.34-1.25,2.68-1.47,5.42-2.57,8.2-3.31,2.78-.73,5.48-1.1,8.1-1.1,3.77,0,6.89.64,9.35,1.92,2.46,1.28,4.28,3.2,5.46,5.75,1.18,2.56,1.77,5.85,1.77,9.87v27.42c0,.96-.22,1.69-.67,2.2-.45.51-1.12.77-2.01.77s-1.6-.26-2.11-.77c-.51-.51-.77-1.25-.77-2.2v-8.82h.96c-.58,2.49-1.6,4.63-3.07,6.42-1.47,1.79-3.29,3.16-5.46,4.12-2.17.96-4.6,1.44-7.29,1.44Z"/>
      <path d="m223.68,912.34c-.96,0-1.69-.26-2.2-.77-.51-.51-.77-1.25-.77-2.2v-39.4h-6.81c-.83,0-1.49-.21-1.97-.62-.48-.41-.72-1.01-.72-1.77,0-.7.24-1.26.72-1.68.48-.41,1.13-.62,1.97-.62h8.34l-1.53,1.53v-3.83c0-5.88,1.4-10.38,4.22-13.52,2.81-3.13,7-4.95,12.56-5.46l2.59-.19c.7-.06,1.26.05,1.68.34.42.29.7.66.86,1.1.16.45.18.91.05,1.39-.13.48-.37.9-.72,1.25s-.78.56-1.29.62l-2.68.29c-3.96.32-6.85,1.61-8.68,3.88-1.82,2.27-2.73,5.54-2.73,9.83v4.12l-.86-1.34h12.27c.89,0,1.57.21,2.01.62.45.42.67.98.67,1.68,0,.77-.22,1.36-.67,1.77-.45.42-1.12.62-2.01.62h-11.41v39.4c0,1.98-.96,2.97-2.88,2.97Z"/>
      <path d="m266.15,912.53c-4.35,0-8.12-.99-11.31-2.97-3.2-1.98-5.67-4.76-7.43-8.34-1.76-3.58-2.64-7.83-2.64-12.75,0-3.64.49-6.93,1.49-9.87.99-2.94,2.43-5.48,4.31-7.62,1.88-2.14,4.15-3.77,6.81-4.89,2.65-1.12,5.58-1.68,8.77-1.68,4.41,0,8.21.99,11.41,2.97,3.19,1.98,5.67,4.78,7.43,8.39,1.76,3.61,2.64,7.85,2.64,12.7,0,3.71-.5,7.03-1.49,9.97-.99,2.94-2.43,5.46-4.31,7.57-1.89,2.11-4.14,3.72-6.76,4.84-2.62,1.12-5.59,1.68-8.92,1.68Zm0-4.89c3.2,0,5.96-.75,8.29-2.25,2.33-1.5,4.12-3.69,5.37-6.57,1.25-2.88,1.87-6.33,1.87-10.35,0-6.07-1.39-10.77-4.17-14.09-2.78-3.32-6.57-4.98-11.36-4.98-3.13,0-5.86.75-8.2,2.25-2.33,1.5-4.12,3.68-5.37,6.52-1.25,2.84-1.87,6.28-1.87,10.31,0,6.14,1.4,10.87,4.22,14.19,2.81,3.32,6.55,4.98,11.22,4.98Z"/>
      <path d="m303.05,912.34c-.96,0-1.69-.26-2.2-.77-.51-.51-.77-1.25-.77-2.2v-41.7c0-1.02.25-1.79.77-2.3s1.25-.77,2.2-.77c.89,0,1.58.26,2.06.77.48.51.72,1.28.72,2.3v8.53h-.96c1.15-3.77,3.21-6.68,6.18-8.72,2.97-2.04,6.53-3.1,10.69-3.16.77-.06,1.4.1,1.92.48.51.38.77.99.77,1.82.06.9-.13,1.58-.58,2.06-.45.48-1.18.78-2.2.91l-1.34.1c-4.54.45-8.05,1.95-10.54,4.51-2.49,2.56-3.74,6.01-3.74,10.35v24.83c0,.96-.24,1.69-.72,2.2-.48.51-1.23.77-2.25.77Z"/>
      <path d="m336.03,912.34c-.96,0-1.69-.26-2.2-.77-.51-.51-.77-1.25-.77-2.2v-41.7c0-1.02.25-1.79.77-2.3.51-.51,1.25-.77,2.2-.77.89,0,1.58.26,2.06.77.48.51.72,1.28.72,2.3v9.11l-1.05-.67c1.15-3.77,3.1-6.66,5.85-8.68,2.75-2.01,6.04-3.02,9.87-3.02,4.09,0,7.37.99,9.83,2.97,2.46,1.98,4.07,4.95,4.84,8.92h-1.44c1.09-3.58,3.12-6.45,6.09-8.63,2.97-2.17,6.47-3.26,10.5-3.26,3.45,0,6.31.67,8.58,2.01,2.27,1.34,3.98,3.34,5.13,5.99,1.15,2.65,1.73,5.99,1.73,10.02v26.94c0,.96-.26,1.69-.77,2.2-.51.51-1.25.77-2.2.77-.9,0-1.6-.26-2.11-.77-.51-.51-.77-1.25-.77-2.2v-26.46c0-4.66-.81-8.07-2.44-10.21-1.63-2.14-4.36-3.21-8.2-3.21-4.09,0-7.35,1.42-9.78,4.27-2.43,2.84-3.64,6.7-3.64,11.55v24.06c0,.96-.26,1.69-.77,2.2-.51.51-1.21.77-2.11.77-.96,0-1.69-.26-2.2-.77-.51-.51-.77-1.25-.77-2.2v-26.46c0-4.66-.81-8.07-2.44-10.21-1.63-2.14-4.33-3.21-8.1-3.21-4.16,0-7.45,1.42-9.87,4.27-2.43,2.84-3.64,6.7-3.64,11.55v24.06c0,1.98-.96,2.97-2.88,2.97Z"/>
      <path d="m428.44,912.53c-3.13,0-5.93-.61-8.39-1.82-2.46-1.21-4.41-2.88-5.85-4.98-1.44-2.11-2.16-4.47-2.16-7.09,0-3.45.86-6.17,2.59-8.15,1.73-1.98,4.63-3.37,8.72-4.17,4.09-.8,9.71-1.2,16.87-1.2h4.12v4.31h-4.03c-5.75,0-10.24.24-13.47.72-3.23.48-5.48,1.36-6.76,2.64-1.28,1.28-1.92,3.07-1.92,5.37,0,2.88.99,5.21,2.97,7,1.98,1.79,4.66,2.68,8.05,2.68,2.75,0,5.16-.65,7.24-1.97,2.08-1.31,3.72-3.12,4.94-5.42,1.21-2.3,1.82-4.92,1.82-7.86v-10.93c0-4.28-.86-7.4-2.59-9.35-1.73-1.95-4.47-2.92-8.24-2.92-2.43,0-4.78.32-7.05.96-2.27.64-4.68,1.66-7.24,3.07-.7.38-1.33.51-1.87.38-.54-.13-.96-.38-1.25-.77-.29-.38-.48-.85-.58-1.39-.1-.54-.02-1.07.24-1.58.25-.51.7-.93,1.34-1.25,2.68-1.47,5.42-2.57,8.2-3.31,2.78-.73,5.48-1.1,8.1-1.1,3.77,0,6.89.64,9.35,1.92,2.46,1.28,4.28,3.2,5.46,5.75,1.18,2.56,1.77,5.85,1.77,9.87v27.42c0,.96-.22,1.69-.67,2.2-.45.51-1.12.77-2.01.77s-1.6-.26-2.11-.77c-.51-.51-.77-1.25-.77-2.2v-8.82h.96c-.58,2.49-1.6,4.63-3.07,6.42-1.47,1.79-3.29,3.16-5.46,4.12-2.17.96-4.6,1.44-7.29,1.44Z"/>
      <path d="m492.67,911.77c-1.02,0-1.82-.29-2.4-.86-.58-.58-.86-1.4-.86-2.49v-60.87c0-1.09.29-1.92.86-2.49.58-.58,1.37-.86,2.4-.86h18.5c10.74,0,19.03,2.88,24.88,8.63,5.85,5.75,8.77,14.13,8.77,25.12,0,5.5-.75,10.35-2.25,14.57-1.5,4.22-3.69,7.75-6.57,10.59-2.88,2.84-6.39,5-10.54,6.47-4.16,1.47-8.92,2.2-14.28,2.2h-18.5Zm2.59-5.18h15.43c4.66,0,8.74-.61,12.22-1.82,3.48-1.21,6.37-3,8.68-5.37,2.3-2.36,4.03-5.35,5.18-8.96,1.15-3.61,1.73-7.78,1.73-12.51,0-9.52-2.32-16.66-6.95-21.43-4.63-4.76-11.58-7.14-20.85-7.14h-15.43v57.23Z"/>
      <path d="m561.5,853.29c-1.34,0-2.38-.35-3.12-1.05-.74-.7-1.1-1.69-1.1-2.97s.37-2.25,1.1-2.92c.73-.67,1.77-1.01,3.12-1.01s2.38.34,3.12,1.01c.73.67,1.1,1.65,1.1,2.92s-.37,2.27-1.1,2.97c-.74.7-1.77,1.05-3.12,1.05Zm0,58.86c-.96,0-1.69-.29-2.2-.86-.51-.58-.77-1.34-.77-2.3v-41.03c0-1.02.25-1.79.77-2.3s1.25-.77,2.2-.77c.89,0,1.6.26,2.11.77.51.51.77,1.28.77,2.3v41.03c0,.96-.24,1.73-.72,2.3-.48.58-1.2.86-2.16.86Z"/>
      <path d="m600.03,929.79c-3.45,0-6.79-.43-10.02-1.29-3.23-.86-6.15-2.25-8.77-4.17-.51-.32-.85-.74-1.01-1.25-.16-.51-.18-1.01-.05-1.49.13-.48.37-.91.72-1.29.35-.38.77-.61,1.25-.67.48-.06.97.03,1.49.29,2.81,1.85,5.51,3.15,8.1,3.88,2.59.73,5.29,1.1,8.1,1.1,4.66,0,8.21-1.29,10.64-3.88,2.43-2.59,3.64-6.28,3.64-11.07v-11.89h.96c-.96,3.96-3,7.06-6.14,9.3-3.13,2.24-6.84,3.36-11.12,3.36s-7.99-.97-11.12-2.92c-3.13-1.95-5.55-4.66-7.24-8.15-1.69-3.48-2.54-7.52-2.54-12.13,0-3.45.48-6.58,1.44-9.39.96-2.81,2.35-5.24,4.17-7.29,1.82-2.04,4.01-3.63,6.57-4.75,2.56-1.12,5.46-1.68,8.72-1.68,4.28,0,7.99,1.14,11.12,3.4,3.13,2.27,5.14,5.32,6.04,9.15l-.96.58v-9.87c0-1.02.25-1.79.77-2.3s1.21-.77,2.11-.77c.96,0,1.68.26,2.16.77.48.51.72,1.28.72,2.3v41.41c0,6.84-1.66,12-4.98,15.48-3.32,3.48-8.24,5.22-14.76,5.22Zm-1.53-24.06c3.2,0,5.96-.75,8.29-2.25,2.33-1.5,4.14-3.61,5.42-6.33,1.28-2.72,1.92-5.93,1.92-9.63,0-5.56-1.41-9.97-4.22-13.23-2.81-3.26-6.61-4.89-11.41-4.89-3.2,0-5.98.74-8.34,2.2-2.37,1.47-4.17,3.56-5.42,6.28-1.25,2.72-1.87,5.93-1.87,9.63,0,5.56,1.4,9.99,4.22,13.28,2.81,3.29,6.61,4.94,11.41,4.94Z"/>
      <path d="m638.19,853.29c-1.34,0-2.38-.35-3.12-1.05-.74-.7-1.1-1.69-1.1-2.97s.37-2.25,1.1-2.92c.73-.67,1.77-1.01,3.12-1.01s2.38.34,3.12,1.01c.73.67,1.1,1.65,1.1,2.92s-.37,2.27-1.1,2.97c-.74.7-1.77,1.05-3.12,1.05Zm0,58.86c-.96,0-1.69-.29-2.2-.86-.51-.58-.77-1.34-.77-2.3v-41.03c0-1.02.25-1.79.77-2.3s1.25-.77,2.2-.77c.89,0,1.6.26,2.11.77.51.51.77,1.28.77,2.3v41.03c0,.96-.24,1.73-.72,2.3-.48.58-1.2.86-2.16.86Z"/>
      <path d="m674.04,912.53c-3.45,0-6.33-.64-8.63-1.92-2.3-1.28-4.03-3.12-5.18-5.51-1.15-2.4-1.73-5.35-1.73-8.87v-26.27h-7.09c-.83,0-1.5-.21-2.01-.62-.51-.41-.77-1.01-.77-1.77,0-.7.25-1.26.77-1.68.51-.41,1.18-.62,2.01-.62h7.09v-11.98c0-1.02.25-1.77.77-2.25.51-.48,1.25-.72,2.2-.72.89,0,1.6.24,2.11.72.51.48.77,1.23.77,2.25v11.98h12.94c.89,0,1.57.21,2.01.62.45.42.67.98.67,1.68,0,.77-.22,1.36-.67,1.77-.45.42-1.12.62-2.01.62h-12.94v25.5c0,3.9.8,6.87,2.4,8.92,1.6,2.05,4.25,3.07,7.96,3.07,1.28,0,2.35-.14,3.21-.43.86-.29,1.58-.43,2.16-.43.45,0,.85.19,1.2.58.35.38.53.99.53,1.82,0,.51-.11,1.02-.34,1.53-.22.51-.62.83-1.2.96-.7.26-1.66.49-2.88.72-1.21.22-2.33.34-3.36.34Z"/>
      <path d="m702.99,912.53c-3.13,0-5.93-.61-8.39-1.82-2.46-1.21-4.41-2.88-5.85-4.98s-2.16-4.47-2.16-7.09c0-3.45.86-6.17,2.59-8.15,1.73-1.98,4.63-3.37,8.72-4.17,4.09-.8,9.71-1.2,16.87-1.2h4.12v4.31h-4.03c-5.75,0-10.24.24-13.47.72-3.23.48-5.48,1.36-6.76,2.64-1.28,1.28-1.92,3.07-1.92,5.37,0,2.88.99,5.21,2.97,7,1.98,1.79,4.66,2.68,8.05,2.68,2.75,0,5.16-.65,7.24-1.97,2.08-1.31,3.72-3.12,4.94-5.42,1.21-2.3,1.82-4.92,1.82-7.86v-10.93c0-4.28-.86-7.4-2.59-9.35-1.73-1.95-4.47-2.92-8.24-2.92-2.43,0-4.78.32-7.05.96-2.27.64-4.68,1.66-7.24,3.07-.7.38-1.33.51-1.87.38-.54-.13-.96-.38-1.25-.77-.29-.38-.48-.85-.58-1.39-.1-.54-.02-1.07.24-1.58.25-.51.7-.93,1.34-1.25,2.68-1.47,5.42-2.57,8.2-3.31,2.78-.73,5.48-1.1,8.1-1.1,3.77,0,6.89.64,9.35,1.92,2.46,1.28,4.28,3.2,5.46,5.75,1.18,2.56,1.77,5.85,1.77,9.87v27.42c0,.96-.22,1.69-.67,2.2-.45.51-1.12.77-2.01.77s-1.6-.26-2.11-.77c-.51-.51-.77-1.25-.77-2.2v-8.82h.96c-.58,2.49-1.6,4.63-3.07,6.42-1.47,1.79-3.29,3.16-5.46,4.12-2.17.96-4.6,1.44-7.29,1.44Z"/>
      <path d="m752.07,912.53c-4.28,0-7.59-1.34-9.92-4.03-2.33-2.68-3.5-6.49-3.5-11.41v-50.52c0-1.02.25-1.77.77-2.25.51-.48,1.25-.72,2.2-.72.89,0,1.6.24,2.11.72.51.48.77,1.23.77,2.25v49.85c0,3.71.73,6.47,2.2,8.29,1.47,1.82,3.61,2.73,6.42,2.73.64,0,1.18-.03,1.63-.1.45-.06.89-.1,1.34-.1.58-.06,1.01.05,1.29.34.29.29.43.88.43,1.77s-.22,1.57-.67,2.01c-.45.45-1.18.77-2.2.96-.45.06-.91.11-1.39.14-.48.03-.98.05-1.49.05Z"/>
      <path d="m794.54,911.77c-1.02,0-1.82-.29-2.4-.86-.58-.58-.86-1.4-.86-2.49v-60.87c0-1.09.29-1.92.86-2.49.58-.58,1.37-.86,2.4-.86h36.24c.89,0,1.57.22,2.01.67.45.45.67,1.05.67,1.82,0,.9-.22,1.55-.67,1.97-.45.42-1.12.62-2.01.62h-33.74v25.69h31.83c.89,0,1.57.21,2.01.62.45.42.67,1.04.67,1.87s-.22,1.47-.67,1.92c-.45.45-1.12.67-2.01.67h-31.83v26.65h33.74c.89,0,1.57.21,2.01.62.45.42.67,1.04.67,1.87s-.22,1.47-.67,1.92c-.45.45-1.12.67-2.01.67h-36.24Z"/>
      <path d="m862.6,912.53c-4.16,0-7.78-.97-10.88-2.92-3.1-1.95-5.5-4.73-7.19-8.34-1.69-3.61-2.54-7.88-2.54-12.8s.83-9.17,2.49-12.75c1.66-3.58,4.04-6.36,7.14-8.34,3.1-1.98,6.76-2.97,10.98-2.97s8.05,1.12,11.12,3.36c3.07,2.24,5.11,5.24,6.14,9.01h-1.05v-30.2c0-1.02.25-1.77.77-2.25.51-.48,1.21-.72,2.11-.72.96,0,1.69.24,2.2.72.51.48.77,1.23.77,2.25v62.79c0,.96-.26,1.69-.77,2.2-.51.51-1.21.77-2.11.77-.96,0-1.69-.26-2.2-.77-.51-.51-.77-1.25-.77-2.2v-9.87l1.05.67c-1.02,3.77-3.07,6.77-6.14,9.01-3.07,2.24-6.78,3.36-11.12,3.36Zm.77-4.89c3.2,0,5.96-.75,8.29-2.25,2.33-1.5,4.12-3.69,5.37-6.57s1.87-6.33,1.87-10.35c0-6.07-1.39-10.77-4.17-14.09-2.78-3.32-6.57-4.98-11.36-4.98-3.13,0-5.86.75-8.2,2.25-2.33,1.5-4.12,3.68-5.37,6.52-1.25,2.84-1.87,6.28-1.87,10.31,0,6.14,1.4,10.87,4.22,14.19,2.81,3.32,6.55,4.98,11.22,4.98Z"/>
      <path d="m916.38,912.53c-3.71,0-6.79-.67-9.25-2.01-2.46-1.34-4.3-3.36-5.51-6.04-1.21-2.68-1.82-6.01-1.82-9.97v-26.84c0-1.02.25-1.79.77-2.3s1.25-.77,2.2-.77c.89,0,1.6.26,2.11.77.51.51.77,1.28.77,2.3v26.55c0,4.47.93,7.81,2.78,10.02,1.85,2.2,4.76,3.31,8.72,3.31,4.35,0,7.86-1.45,10.54-4.36,2.68-2.91,4.03-6.73,4.03-11.46v-24.06c0-1.02.25-1.79.77-2.3.51-.51,1.25-.77,2.2-.77.89,0,1.6.26,2.11.77.51.51.77,1.28.77,2.3v41.7c0,1.98-.93,2.97-2.78,2.97-.9,0-1.6-.26-2.11-.77-.51-.51-.77-1.25-.77-2.2v-9.49l1.15.67c-1.21,3.9-3.32,6.87-6.33,8.92-3,2.05-6.46,3.07-10.35,3.07Z"/>
      <path d="m971.98,912.53c-4.54,0-8.44-1.01-11.7-3.02-3.26-2.01-5.77-4.86-7.52-8.53-1.76-3.67-2.64-7.94-2.64-12.8,0-3.71.49-7.01,1.49-9.92.99-2.91,2.43-5.38,4.31-7.43,1.88-2.04,4.18-3.63,6.9-4.75,2.72-1.12,5.77-1.68,9.15-1.68,2.36,0,4.79.4,7.29,1.2,2.49.8,4.76,2.13,6.81,3.98.45.38.73.83.86,1.34.13.51.1,1.01-.1,1.49-.19.48-.48.86-.86,1.15-.38.29-.85.45-1.39.48-.54.03-1.1-.21-1.68-.72-1.79-1.47-3.59-2.48-5.42-3.02-1.82-.54-3.59-.81-5.32-.81-2.62,0-4.92.42-6.9,1.25-1.98.83-3.66,2.05-5.03,3.64-1.38,1.6-2.41,3.56-3.12,5.9-.7,2.33-1.05,5-1.05,8,0,6.01,1.39,10.72,4.17,14.14,2.78,3.42,6.76,5.13,11.93,5.13,1.73,0,3.5-.27,5.32-.81,1.82-.54,3.63-1.55,5.42-3.02.58-.51,1.13-.75,1.68-.72.54.03,1.01.19,1.39.48.38.29.65.67.81,1.15.16.48.18.98.05,1.49-.13.51-.42.96-.86,1.34-1.98,1.85-4.22,3.16-6.71,3.93-2.49.77-4.92,1.15-7.29,1.15Z"/>
      <path d="m1010.9,912.53c-3.13,0-5.93-.61-8.39-1.82-2.46-1.21-4.41-2.88-5.85-4.98-1.44-2.11-2.16-4.47-2.16-7.09,0-3.45.86-6.17,2.59-8.15,1.73-1.98,4.63-3.37,8.72-4.17,4.09-.8,9.71-1.2,16.87-1.2h4.12v4.31h-4.03c-5.75,0-10.24.24-13.47.72-3.23.48-5.48,1.36-6.76,2.64-1.28,1.28-1.92,3.07-1.92,5.37,0,2.88.99,5.21,2.97,7,1.98,1.79,4.66,2.68,8.05,2.68,2.75,0,5.16-.65,7.24-1.97,2.08-1.31,3.72-3.12,4.94-5.42,1.21-2.3,1.82-4.92,1.82-7.86v-10.93c0-4.28-.86-7.4-2.59-9.35-1.73-1.95-4.47-2.92-8.24-2.92-2.43,0-4.78.32-7.05.96-2.27.64-4.68,1.66-7.24,3.07-.7.38-1.33.51-1.87.38-.54-.13-.96-.38-1.25-.77-.29-.38-.48-.85-.58-1.39-.1-.54-.02-1.07.24-1.58.25-.51.7-.93,1.34-1.25,2.68-1.47,5.42-2.57,8.2-3.31,2.78-.73,5.48-1.1,8.1-1.1,3.77,0,6.89.64,9.35,1.92,2.46,1.28,4.28,3.2,5.46,5.75,1.18,2.56,1.77,5.85,1.77,9.87v27.42c0,.96-.22,1.69-.67,2.2-.45.51-1.12.77-2.01.77s-1.6-.26-2.11-.77c-.51-.51-.77-1.25-.77-2.2v-8.82h.96c-.58,2.49-1.6,4.63-3.07,6.42-1.47,1.79-3.29,3.16-5.46,4.12-2.17.96-4.6,1.44-7.29,1.44Z"/>
      <path d="m1064.1,912.53c-3.45,0-6.33-.64-8.63-1.92-2.3-1.28-4.03-3.12-5.18-5.51-1.15-2.4-1.73-5.35-1.73-8.87v-26.27h-7.09c-.83,0-1.5-.21-2.01-.62-.51-.41-.77-1.01-.77-1.77,0-.7.25-1.26.77-1.68.51-.41,1.18-.62,2.01-.62h7.09v-11.98c0-1.02.25-1.77.77-2.25.51-.48,1.25-.72,2.2-.72.89,0,1.6.24,2.11.72.51.48.77,1.23.77,2.25v11.98h12.94c.89,0,1.57.21,2.01.62.45.42.67.98.67,1.68,0,.77-.22,1.36-.67,1.77-.45.42-1.12.62-2.01.62h-12.94v25.5c0,3.9.8,6.87,2.4,8.92,1.6,2.05,4.25,3.07,7.96,3.07,1.28,0,2.35-.14,3.21-.43.86-.29,1.58-.43,2.16-.43.45,0,.85.19,1.2.58.35.38.53.99.53,1.82,0,.51-.11,1.02-.34,1.53-.22.51-.62.83-1.2.96-.7.26-1.66.49-2.88.72-1.21.22-2.33.34-3.36.34Z"/>
      <path d="m1081.93,853.29c-1.34,0-2.38-.35-3.12-1.05-.74-.7-1.1-1.69-1.1-2.97s.37-2.25,1.1-2.92c.73-.67,1.77-1.01,3.12-1.01s2.38.34,3.12,1.01c.73.67,1.1,1.65,1.1,2.92s-.37,2.27-1.1,2.97c-.74.7-1.77,1.05-3.12,1.05Zm0,58.86c-.96,0-1.69-.29-2.2-.86-.51-.58-.77-1.34-.77-2.3v-41.03c0-1.02.25-1.79.77-2.3s1.25-.77,2.2-.77c.89,0,1.6.26,2.11.77.51.51.77,1.28.77,2.3v41.03c0,.96-.24,1.73-.72,2.3-.48.58-1.2.86-2.16.86Z"/>
      <path d="m1117.02,912.34c-.96,0-1.76-.26-2.4-.77-.64-.51-1.21-1.28-1.73-2.3l-17.26-40.26c-.32-.77-.43-1.49-.34-2.16.1-.67.38-1.21.86-1.63.48-.41,1.17-.62,2.06-.62.83,0,1.45.19,1.87.58.42.38.78.99,1.1,1.82l17.06,41.22h-2.4l17.16-41.22c.32-.83.7-1.44,1.15-1.82.45-.38,1.09-.58,1.92-.58s1.45.21,1.87.62c.42.42.65.94.72,1.58.06.64-.06,1.34-.38,2.11l-17.26,40.36c-.38,1.02-.93,1.79-1.63,2.3-.7.51-1.5.77-2.4.77Z"/>
      <path d="m1162.46,912.53c-3.13,0-5.93-.61-8.39-1.82-2.46-1.21-4.41-2.88-5.85-4.98-1.44-2.11-2.16-4.47-2.16-7.09,0-3.45.86-6.17,2.59-8.15,1.73-1.98,4.63-3.37,8.72-4.17,4.09-.8,9.71-1.2,16.87-1.2h4.12v4.31h-4.03c-5.75,0-10.24.24-13.47.72-3.23.48-5.48,1.36-6.76,2.64-1.28,1.28-1.92,3.07-1.92,5.37,0,2.88.99,5.21,2.97,7,1.98,1.79,4.66,2.68,8.05,2.68,2.75,0,5.16-.65,7.24-1.97,2.08-1.31,3.72-3.12,4.94-5.42,1.21-2.3,1.82-4.92,1.82-7.86v-10.93c0-4.28-.86-7.4-2.59-9.35-1.73-1.95-4.47-2.92-8.24-2.92-2.43,0-4.78.32-7.05.96-2.27.64-4.68,1.66-7.24,3.07-.7.38-1.33.51-1.87.38-.54-.13-.96-.38-1.25-.77-.29-.38-.48-.85-.58-1.39-.1-.54-.02-1.07.24-1.58.25-.51.7-.93,1.34-1.25,2.68-1.47,5.42-2.57,8.2-3.31,2.78-.73,5.48-1.1,8.1-1.1,3.77,0,6.89.64,9.35,1.92,2.46,1.28,4.28,3.2,5.46,5.75,1.18,2.56,1.77,5.85,1.77,9.87v27.42c0,.96-.22,1.69-.67,2.2-.45.51-1.12.77-2.01.77s-1.6-.26-2.11-.77c-.51-.51-.77-1.25-.77-2.2v-8.82h.96c-.58,2.49-1.6,4.63-3.07,6.42-1.47,1.79-3.29,3.16-5.46,4.12-2.17.96-4.6,1.44-7.29,1.44Z"/>
    </g>
    <g>
      <g>
        <path d="m2.57,735.03h14.44c1.42,0,2.57,1.15,2.57,2.57v77.67c0,1.42-1.15,2.57-2.57,2.57H2.57C1.15,817.84,0,816.69,0,815.27v-77.67C0,736.18,1.15,735.03,2.57,735.03Z"/>
        <path d="m63.07,817.84h23.23c12.36-.23,30.77-8.67,30.77-30.96v-20.74c.01-2.25-.35-13.89-8.81-22.51-3.83-3.9-10.79-8.55-22.21-8.55-21.35,0-42.46-.05-42.67-.05l-7.23-.02c-.68.02-1.34.27-1.82.75-.48.48-.76,1.14-.76,1.82v77.68c0,1.42,1.15,2.57,2.57,2.57h14.44c1.42,0,2.57-1.15,2.57-2.57v-56.56c0-1.07.43-2.12,1.19-2.88.77-.77,1.79-1.19,2.87-1.19h0c7.9.01,18.3.02,28.83.02,6.34,0,8.52,2.52,9.7,4.71,1.04,2.07,1.62,4.28,1.72,6.57v20.93c0,4.04-1.5,10.9-11.55,11.38h-22.86c-1.42,0-2.57,1.16-2.57,2.57v14.44c0,1.42,1.15,2.57,2.57,2.57Z"/>
        <g>
          <path d="m150.65,782.67c0-1.42-1.15-2.57-2.57-2.57h-14.44c-.69,0-1.33.27-1.82.75-.49.49-.75,1.13-.75,1.82v32.59c0,1.42,1.15,2.57,2.57,2.57h14.44c1.42,0,2.57-1.15,2.57-2.57v-32.59Z"/>
          <path d="m133.64,735.03h14.44c1.42,0,2.57,1.15,2.57,2.57v32.58c0,1.42-1.15,2.57-2.57,2.57h-14.44c-1.42,0-2.57-1.15-2.57-2.57v-32.58c0-1.42,1.15-2.57,2.57-2.57Z"/>
        </g>
        <path d="m173.47,750.89c-6.44,8.21-9.53,18.47-8.69,28.87.84,10.4,5.52,20.03,13.19,27.11,7.67,7.08,17.64,10.98,28.08,10.98s20.41-3.9,28.08-10.98c7.67-7.08,12.36-16.71,13.19-27.11.84-10.4-2.25-20.66-8.69-28.87-6.31-8.04-15.28-13.43-25.32-15.22h0s-.65-.11-.65-.11c-.73-.13-1.48.07-2.05.55-.57.48-.9,1.18-.9,1.92v14.95c.01,1.12.79,2.09,1.88,2.36,7.03,1.85,12.65,7.04,15.05,13.89,2.59,7.38,1.08,15.42-4.27,22.63-.24.33-.53.62-.86.86-8.08,6.04-17.28,7.21-25.23,3.23-7.45-3.73-12.07-11.21-12.07-19.52.02-9.86,6.67-18.52,16.2-21.06,1.14-.28,1.94-1.29,1.95-2.45v-14.88c0-.74-.33-1.44-.89-1.91-.46-.39-1.04-.6-1.63-.6-.14,0-.27.01-.41.03-10.31,1.67-19.53,7.11-25.97,15.33Z"/>
        <g>
          <path d="m280.96,737.59c0-1.41-1.16-2.57-2.57-2.57h-14.44c-1.42,0-2.57,1.15-2.57,2.57v77.67c0,1.42,1.15,2.57,2.57,2.57h14.44c1.42,0,2.57-1.15,2.57-2.57v-77.67Z"/>
          <path d="m344.49,737.6c0-.69-.27-1.33-.75-1.82-.49-.49-1.13-.75-1.82-.75h-17.64s0,0,0,0c-.9,0-1.74.48-2.2,1.25l-16.97,28.18c-.43.72-1.22,1.16-2.06,1.16s-1.62-.44-2.06-1.16l-10.97-18.05c-.21-.35-.63-.52-1.03-.41-.39.11-.67.47-.67.88v33.73c0,.47.13.93.37,1.34l13.65,22.45c.17.27.46.44.78.44s.62-.17.78-.44l16.54-27.46c.44-.73,1.24-1.17,2.07-1.17.21,0,.43.03.64.09,1.04.29,1.76,1.24,1.76,2.32v37.09c0,1.42,1.15,2.57,2.57,2.57h14.44c1.42,0,2.57-1.15,2.57-2.57v-77.67Z"/>
        </g>
        <path d="m393.43,807.11h17.25c1.72,0,3.26,1.09,3.83,2.71l2.23,6.31c.36,1.03,1.34,1.72,2.42,1.72h15.32c.83,0,1.62-.41,2.1-1.09.48-.68.6-1.56.33-2.34l-27.47-77.67c-.36-1.03-1.34-1.72-2.43-1.72h-18.49c-1.09,0-2.06.69-2.43,1.72l-27.47,77.67c-.28.79-.16,1.66.32,2.34.48.68,1.27,1.09,2.1,1.09h15.31c1.09,0,2.06-.69,2.43-1.72l15.14-42.81c.57-1.62,2.11-2.71,3.83-2.71s3.26,1.09,3.83,2.71l3.11,8.79c.44,1.24.25,2.63-.51,3.7-.76,1.08-2,1.72-3.32,1.72h-2.35c-1.09,0-2.06.69-2.43,1.72l-5.11,14.44c-.28.79-.16,1.66.32,2.34.48.68,1.27,1.09,2.1,1.09Z"/>
        <g>
          <path d="m576.36,800.83c0-1.42-1.15-2.57-2.57-2.57h-56.59c-2.24,0-4.06-1.82-4.06-4.06v-35.51c0-1.08.42-2.11,1.19-2.87.77-.77,1.79-1.19,2.87-1.19h56.59c1.42,0,2.57-1.15,2.57-2.57v-14.44c0-1.42-1.15-2.57-2.57-2.57h-77.67c-1.42,0-2.57,1.15-2.57,2.57v77.67c0,1.42,1.15,2.57,2.57,2.57h77.67c1.42,0,2.57-1.15,2.57-2.57v-14.44Z"/>
          <rect x="520.48" y="766.64" width="55.88" height="19.58" rx="2.57" ry="2.57"/>
        </g>
        <g>
          <path d="m609.87,737.6c0-1.42-1.15-2.57-2.57-2.57h-14.44c-1.42,0-2.57,1.15-2.57,2.57v77.67c0,1.42,1.15,2.57,2.57,2.57h14.44c1.42,0,2.57-1.15,2.57-2.57v-77.67Z"/>
          <path d="m672.81,737.6c0-1.42-1.15-2.57-2.57-2.57h-14.44c-1.42,0-2.57,1.15-2.57,2.57v44.26c0,1.04-.66,1.96-1.65,2.28-.99.33-2.06-.01-2.69-.84l-30.03-40.22c-.18-.24-.45-.37-.73-.37-.1,0-.19.02-.29.05-.37.12-.63.47-.62.87v29.13c0,.55.18,1.1.51,1.54l31.74,42.51c.48.65,1.25,1.03,2.06,1.03h18.71c1.42,0,2.57-1.15,2.57-2.57v-77.67Z"/>
        </g>
        <g>
          <path d="m812.07,737.6c0-1.42-1.15-2.57-2.57-2.57h-54.57c-4.27.15-8.4,1.2-12.25,3.12-8.59,4.35-13.32,12.36-13.32,22.58s5.09,18.43,13.96,22.61c3.95,1.83,8.17,2.8,12.53,2.9h8.61c1.42-.01,2.57-1.17,2.57-2.58v-14.43c0-1.42-1.15-2.57-2.57-2.57h-8.68c-1.41-.11-2.79-.46-4.09-1.02-1.51-.71-2.74-1.56-2.74-4.9,0-5.8,4.56-6.03,6.27-6.11h54.28c1.42,0,2.57-1.15,2.57-2.57v-14.44Z"/>
          <path d="m730.13,817.18c.49.48,1.13.75,1.82.75h0l53.55-.09c10.45,0,25.99-7.03,25.99-26.38,0-10.03-4.11-15.84-7.56-18.95-6.61-5.96-15.11-6-17.56-5.87h-9.41c-1.42,0-2.57,1.15-2.57,2.57v14.41c0,.68.28,1.34.75,1.82.48.48,1.12.76,1.82.75h9.53c4,.15,5.41,3.17,5.41,5.93,0,1.91,0,5.85-6.5,6.12l-53.48.09c-.69,0-1.33.27-1.82.76-.48.48-.75,1.14-.75,1.82l.02,14.44c0,.69.27,1.33.76,1.82Z"/>
        </g>
        <g>
          <path d="m908.89,800.83c0-1.42-1.15-2.57-2.57-2.57h-56.59c-2.24,0-4.06-1.82-4.06-4.06v-35.51c0-1.09.42-2.11,1.19-2.87.77-.77,1.79-1.19,2.87-1.19h56.59c1.42,0,2.57-1.15,2.57-2.57v-14.44c0-1.42-1.15-2.57-2.57-2.57h-77.67c-1.42,0-2.57,1.15-2.57,2.57v77.67c0,1.42,1.15,2.57,2.57,2.57h77.67c1.42,0,2.57-1.15,2.57-2.57v-14.44Z"/>
          <rect x="853.01" y="766.64" width="55.88" height="19.58" rx="2.57" ry="2.57"/>
        </g>
        <g>
          <path d="m942.4,737.6c0-1.42-1.16-2.57-2.57-2.57h-14.44c-1.42,0-2.57,1.15-2.57,2.57v77.67c0,1.42,1.15,2.57,2.57,2.57h14.44c1.42,0,2.57-1.15,2.57-2.57v-77.67Z"/>
          <path d="m1005.34,737.6c0-1.42-1.15-2.57-2.57-2.57h-14.44c-1.42,0-2.57,1.15-2.57,2.57v44.26c0,1.04-.66,1.96-1.65,2.28-.99.33-2.07-.01-2.69-.84l-30.03-40.22c-.18-.24-.45-.37-.73-.37-.1,0-.19.02-.29.05-.37.12-.63.47-.63.87v29.13c0,.55.18,1.1.51,1.54l31.74,42.51c.48.65,1.25,1.03,2.06,1.03h18.71c1.42,0,2.57-1.15,2.57-2.57v-77.67Z"/>
        </g>
        <path d="m1054.25,807.11h17.25c1.72,0,3.26,1.09,3.83,2.71l2.23,6.31c.36,1.03,1.34,1.72,2.43,1.72h15.32c.83,0,1.62-.41,2.1-1.09.48-.68.6-1.56.33-2.34l-27.47-77.67c-.36-1.03-1.34-1.72-2.43-1.72h-18.49c-1.09,0-2.06.69-2.43,1.72l-27.47,77.67c-.28.79-.16,1.66.32,2.34.48.68,1.27,1.09,2.1,1.09h15.32c1.09,0,2.06-.69,2.42-1.72l15.14-42.81c.57-1.62,2.11-2.71,3.83-2.71s3.26,1.09,3.83,2.71l3.11,8.79c.44,1.24.25,2.63-.51,3.7-.76,1.08-2,1.72-3.32,1.72h-2.35c-1.09,0-2.06.69-2.43,1.72l-5.11,14.44c-.28.79-.16,1.66.32,2.34.48.68,1.27,1.09,2.1,1.09Z"/>
        <g>
          <path d="m1194.53,737.6c0-1.42-1.15-2.57-2.57-2.57h-54.57c-4.27.15-8.4,1.2-12.25,3.12-8.59,4.35-13.32,12.36-13.32,22.58s5.09,18.43,13.96,22.61c3.95,1.83,8.17,2.8,12.53,2.9h8.61c1.42-.01,2.57-1.17,2.57-2.58v-14.43c0-1.42-1.15-2.57-2.57-2.57h-8.68c-1.41-.11-2.79-.46-4.09-1.02-1.51-.71-2.74-1.56-2.74-4.9,0-5.8,4.56-6.03,6.27-6.11h54.28c1.42,0,2.57-1.15,2.57-2.57v-14.44Z"/>
          <path d="m1112.59,817.18c.49.48,1.13.75,1.82.75h0l53.55-.09c10.45,0,25.99-7.03,25.99-26.38,0-10.03-4.11-15.84-7.56-18.95-6.61-5.96-15.11-6-17.56-5.87h-9.41c-1.42,0-2.57,1.15-2.57,2.57v14.41c0,.68.28,1.34.75,1.82.49.49,1.13.75,1.82.75h9.53c4,.15,5.41,3.17,5.41,5.93,0,1.91,0,5.85-6.5,6.12l-53.48.09c-.69,0-1.33.27-1.82.76-.48.48-.75,1.14-.75,1.82l.02,14.44c0,.69.27,1.33.76,1.82Z"/>
        </g>
      </g>
      <rect x="931.76" y="707.88" width="66.14" height="15.91"/>
    </g>
  </g>
</svg>