<?xml version="1.0" encoding="UTF-8"?>
<svg id="Capa_2" data-name="Capa 2" xmlns="http://www.w3.org/2000/svg" viewBox="0 0 3237 2678">
  <defs>
    <style>
      .cls-1 {
        fill: #fff;
      }

      .cls-2 {
        fill: #003787;
      }

      .cls-3 {
        fill: #ff7300;
      }
    </style>
  </defs>
  <g id="Layer_1" data-name="Layer 1">
    <rect class="cls-2" width="3237" height="2678"/>
    <g>
      <path class="cls-3" d="m950.1,1329.99c.1-.26.21-.52.32-.79-4.33,8.72-1.34,3.28-.32.79Z"/>
      <path class="cls-3" d="m2408.71,1074.41h0c-23.17-50.44-65.06-76.36-121.14-74.94-79.13,2-147.67,30.9-203.72,85.89-21.49,21.08-43.06,42.73-63.92,63.67-28.07,28.18-57.1,57.31-86.17,85.31-4.04,3.89-11.47,7.06-15.32,7.63-2.28-3.14-5.27-10.59-5.41-16.15-1.25-49.72-.99-100.43-.73-149.47.04-8.48.09-16.97.13-25.45.04-9.35-.62-21.39-6.11-31.58-6.6-12.25-18.8-19.02-34.34-19.08h-.2c-11.65,0-21.12,3.56-28.13,10.59-11,11.01-12.34,27.12-12.28,39.91.04,7.84.08,15.67.12,23.51.27,49.71.55,101.11-.27,151.57-.75,46.1,17.74,77.48,54.97,93.25,19.77,8.38,39.3,9.72,58.03,3.98,16.2-4.96,31.52-14.99,46.85-30.66,30.38-31.05,61.71-62.27,92-92.46,17.41-17.35,35.42-35.3,53.07-53.03,18.89-18.98,40-34.15,62.73-45.07,22.67-10.9,47.65-17.92,74.27-20.87,41.02-4.55,54.25,10.7,61.19,24.49,8.88,17.66,8.85,34.16-18.73,61.83-166.46,167.03-316.56,317.56-467.94,468.37-28.62,28.51-58.55,51.53-88.95,68.41-33.31,18.49-68.15,30.14-103.56,34.64-78.74,9.99-160.58,10.08-232.79,10.17h-.44c-73.96,0-144.89-22.73-205.12-65.75-29.47-21.04-55.55-46.42-77.52-75.43-22.39-29.56-40.14-62.4-52.74-97.61-6.49-18.14-11.06-36.37-14.26-54.74-.12-.11-.25-.21-.36-.32-6.17-5.66-9.82-15.49-9.82-23.71,0-9.33,3.8-15.88,9.17-22.87.08-.12.17-.24.28-.38.78-1.06,1.58-2.1,2.36-3.16,1.74-2.35,3.44-4.71,5.12-7.1,3.08-4.38,6.06-8.83,8.9-13.36,5.4-8.61,10.18-17.5,14.46-26.71.1-.25.2-.49.3-.74.94-2.48,1.82-4.98,2.62-7.51,1.25-3.96,2.31-7.98,3.13-12.05-.15-1.41.57-5.02.61-5.9.1-2.69-.04-5.34-.22-8-.11-.78-.24-1.58-.4-2.25-.34-1.44-.74-2.86-1.18-4.26-.63-1.27-1.22-3.1-1.59-3.78-1.03-1.89-2.15-3.72-3.34-5.5-.54-.81-1.16-1.58-1.68-2.4-1.72-2.71,2.96,4.44,2.97,3.84.02-2.17-7.1-7.68-8.65-9.09-1.65-1.5-3.51-2.81-5.12-4.34.9.85,1.6,1.52,2.15,2.03,1.61,1.4,2.58,2.42,0,0-.8-.7-1.76-1.49-2.53-2.01-4-2.68-8.15-5.13-12.41-7.38-2.77-1.46-5.58-2.85-8.42-4.16-1.06-.49-2.25-.92-3.32-1.44-6.06-2.51-12.06-5.18-18.04-7.88-.96-.39-1.92-.78-2.88-1.16-2.31-.91-4.64-1.8-6.97-2.64-5.08-1.84-10.22-3.51-15.43-4.91-3.12-.83-6.26-1.57-9.43-2.18-.62-.12-1.25-.23-1.87-.33-2.32-.1-4.63-.35-6.96-.36-1.86-.01-5.02.74-7.14.57-.46.11-.92.24-1.37.36-.12.32-.93.81-2.72,1.13-4.78,4.51-8.95,9.55-13.11,14.62-.25.33-.5.67-.75,1-1.31,1.77-2.59,3.56-3.86,5.36-2.43,3.46-4.8,6.97-7.1,10.52-4.68,7.23-9.11,14.63-13.18,22.23-2.03,3.78-3.97,7.61-5.77,11.51-.21.45-.41.89-.61,1.34-.12.41-.22.76-.3.98-.37,1.05-.68,2.11-.97,3.18,1.23-2.34,2.45-4.67,3.64-7.02,1.28-3.16,2.7-6.9,4.34-10.03,3.28-6.28,8.73-11.89,14.81-15.52,7.41-4.42,15.42-5.96,23.43-5.38,9.04-10.5,21.44-17.43,37.29-17.41,27.96.04,50.28,22.7,49.59,50.67-.13,5.24-.78,10.65-1.9,16.04,1.66,3.94,2.65,8.23,2.85,12.69.65,14.53-10.04,27.33-23.35,31.82-.19,1.69-.42,3.38-.71,5.05-1.73,10-10.6,18.01-19.42,21.73-10.32,4.36-19.92,3.13-29.85-1.69-1.87-.91-3.63-1.92-5.31-3.03.94,6.59,1.82,13.18,2.41,19.81,1.02,11.35-5.17,21.07-14.06,27.06,11.73,74.87,43.15,146.52,91.25,206.49,30.42,37.92,66.36,69.94,106.84,95.18,41.95,26.16,87.52,44.21,135.46,53.66,60.81,11.99,124.01,13.42,185.98,13.42,9.77,0,19.51-.04,29.2-.07,12.26-.05,24.95-.09,37.34-.06.41,0,.81,0,1.22,0,60.54,0,117.91-10.63,170.54-31.59,53.66-21.38,102.75-53.64,145.88-95.91,131.86-129.18,264.2-262.22,392.17-390.88,31.4-31.56,63.86-64.2,95.82-96.28,19.67-19.74,31.96-42.2,36.52-66.75,4.48-24.09.98-49.58-10.1-73.72Z"/>
      <path class="cls-3" d="m1089.19,922.21c9.75-16.53,26.05-25.82,45.9-26.16,20.49-.34,37.37,8.95,47.54,26.17l4.39,7.44h82.63l-.39-15.51c-.43-17.43-.71-31.84-.86-45.37-.23-20.15,6.42-38.63,18.73-52.05,12.07-13.16,28.89-20.67,47.37-21.15,18.54-.49,35.78,6.14,48.56,18.65,13.04,12.76,20.59,30.85,21.27,50.92.5,15.03,1.02,31.34,1.59,49.84l.45,14.67h77.89l-.72-25.38c-.81-28.45-1.64-57.86-2.07-86.75-.33-22.04,6.89-41.79,20.31-55.6,12.16-12.51,28.29-19.26,46.64-19.51,38.66-.54,67.7,29.17,69.04,70.6,1.07,32.74,2.08,67.03,3.02,101.91l.4,14.72h77.54l-.43-15.55c-1.63-58.67-3.03-118.35-4.39-176.06-.94-40.14-1.92-81.65-2.97-122.48-.42-16.5-.91-33.27-1.39-49.48-1.12-38.38-2.29-78.07-2.61-117.03-.15-17.36,5.93-34,17.09-46.85,10.97-12.63,25.92-20.58,42.1-22.39,34.02-3.81,66.89,19.5,74.83,53.07,1.85,7.82,2.06,16.61,2.28,25.92.03,1.18.06,2.36.09,3.53,4.18,157.36,7.26,277.66,9.98,390.07.3,12.22,2.13,29.65,14.61,39.88,5.16,4.23,14.21,8.77,28.04,6.36,17.72-3.09,34.71-28.9,34.45-45.91-2.49-166.23-5.67-294-10.3-414.27-1.47-38.12-18.34-73.4-47.51-99.32-13.95-12.4-29.96-21.99-47.57-28.48-18.13-6.69-37.1-9.78-56.39-9.17-37.26,1.16-72.27,16.83-98.6,44.12-26.35,27.32-40.97,63.2-41.16,101.03-.13,26.55.74,53.41,1.57,79.39.36,11.23.74,22.84,1.02,34.23.83,32.8,1.67,65.59,2.53,98.93l.54,20.92c-43.43-15.92-77.01-19.01-106.89-10.18-31.41,9.29-58.73,31.78-87.37,72.23-19.79-12.02-40.7-19.73-62.33-22.95-25.34-3.78-51.01-1.01-74.25,8.01-43.84,17.01-76.44,54.36-91.29,103.83-39.12-15.63-78.79-16.1-112.61-1.15-33.25,14.71-58.03,43.13-69.78,80.05l-6.27,19.72h81.34l4.39-7.45Z"/>
      <path class="cls-3" d="m1129.44,1156.66c75.58,0,137.06-61.49,137.06-137.06,0-3.69-.15-7.44-.46-11.15l-.45-5.56h-81.43l1.22,7.08c.54,3.16.82,6.4.82,9.63,0,31.3-25.46,56.76-56.76,56.76s-56.76-25.46-56.76-56.76c0-3.23.28-6.47.82-9.63l1.22-7.08h-81.43l-.45,5.56c-.3,3.71-.46,7.46-.46,11.15,0,75.58,61.49,137.06,137.06,137.06Z"/>
      <path class="cls-3" d="m1503.23,1002.89h-81.43l-.45,5.56c-.3,3.71-.46,7.47-.46,11.15,0,75.58,61.49,137.06,137.06,137.06s137.06-61.49,137.06-137.06c0-3.69-.15-7.44-.46-11.15l-.45-5.56h-81.43l1.22,7.08c.54,3.16.82,6.4.82,9.63,0,31.3-25.46,56.76-56.76,56.76s-56.76-25.46-56.76-56.76c0-3.23.28-6.47.82-9.63l1.22-7.08Z"/>
      <path class="cls-3" d="m1222.89,1207.47c-.77,5.76-1.18,11.63-1.18,17.6,0,72.73,59.17,131.9,131.9,131.9s131.9-59.17,131.9-131.9c0-5.97-.41-11.84-1.18-17.6h-81.6c1.98,5.5,3.06,11.42,3.06,17.6,0,28.77-23.41,52.18-52.18,52.18s-52.18-23.41-52.18-52.18c0-6.17,1.08-12.1,3.06-17.6h-81.6Z"/>
      <path class="cls-1" d="m1022.55,1462.47c-64.52,0-117-52.49-117-117s52.49-117,117-117,117,52.49,117,117-52.49,117-117,117Zm0-162.34c-25,0-45.34,20.34-45.34,45.34s20.34,45.33,45.34,45.33,45.33-20.34,45.33-45.33-20.34-45.34-45.33-45.34Z"/>
    </g>
    <g>
      <path class="cls-1" d="m256.71,2395.03c-2.09,0-3.73-.64-4.92-1.9-1.19-1.26-1.79-3.02-1.79-5.25v-144.65c0-2.38.63-4.17,1.9-5.37,1.26-1.19,2.94-1.79,5.03-1.79h52.54c16.69,0,29.51,4.02,38.46,12.07,8.94,8.05,13.41,19.53,13.41,34.43s-4.47,26.2-13.41,34.32c-8.94,8.13-21.76,12.19-38.46,12.19h-45.83v58.8c0,2.24-.56,3.99-1.68,5.25-1.12,1.26-2.87,1.9-5.25,1.9Zm6.93-78.03h44.72c12.97,0,22.73-2.91,29.29-8.72,6.56-5.81,9.84-14.38,9.84-25.71s-3.28-19.93-9.84-25.82c-6.56-5.89-16.32-8.83-29.29-8.83h-44.72v69.09Z"/>
      <path class="cls-1" d="m418.13,2395.48c-9.99,0-17.7-3.13-23.14-9.39-5.44-6.26-8.16-15.13-8.16-26.61v-117.83c0-2.38.59-4.14,1.79-5.25,1.19-1.12,2.91-1.68,5.14-1.68,2.09,0,3.72.56,4.92,1.68,1.19,1.12,1.79,2.87,1.79,5.25v116.26c0,8.65,1.71,15.09,5.14,19.34,3.43,4.25,8.42,6.37,14.98,6.37,1.49,0,2.76-.07,3.8-.22,1.04-.15,2.09-.22,3.13-.22,1.34-.15,2.35.11,3.02.78.67.67,1.01,2.05,1.01,4.14s-.52,3.65-1.56,4.69c-1.04,1.04-2.76,1.79-5.14,2.24-1.04.15-2.12.26-3.24.34-1.12.07-2.27.11-3.47.11Z"/>
      <path class="cls-1" d="m484.08,2395.48c-7.3,0-13.83-1.42-19.56-4.25-5.74-2.83-10.28-6.71-13.64-11.63-3.35-4.92-5.03-10.43-5.03-16.54,0-8.05,2.01-14.38,6.04-19,4.02-4.62,10.81-7.86,20.35-9.73,9.54-1.86,22.65-2.79,39.35-2.79h9.61v10.06h-9.39c-13.41,0-23.89.56-31.41,1.68-7.53,1.12-12.78,3.17-15.76,6.15-2.98,2.98-4.47,7.15-4.47,12.52,0,6.71,2.31,12.15,6.93,16.32,4.62,4.17,10.88,6.26,18.78,6.26,6.41,0,12.04-1.53,16.88-4.58,4.84-3.05,8.68-7.27,11.51-12.63,2.83-5.37,4.25-11.48,4.25-18.33v-25.49c0-9.98-2.01-17.25-6.04-21.8-4.02-4.55-10.44-6.82-19.23-6.82-5.67,0-11.14.75-16.43,2.24-5.29,1.49-10.92,3.88-16.88,7.15-1.64.89-3.09,1.19-4.36.89-1.27-.3-2.24-.89-2.91-1.79-.67-.89-1.12-1.97-1.34-3.24-.22-1.26-.04-2.49.56-3.69.59-1.19,1.64-2.16,3.13-2.91,6.26-3.43,12.63-6,19.12-7.71,6.48-1.71,12.78-2.57,18.89-2.57,8.79,0,16.06,1.49,21.8,4.47,5.74,2.98,9.98,7.45,12.74,13.42,2.76,5.96,4.14,13.64,4.14,23.03v63.94c0,2.24-.52,3.95-1.56,5.14-1.04,1.19-2.61,1.79-4.69,1.79s-3.73-.6-4.92-1.79c-1.19-1.19-1.79-2.91-1.79-5.14v-20.57h2.24c-1.34,5.81-3.73,10.81-7.15,14.98-3.43,4.17-7.68,7.38-12.74,9.61-5.07,2.24-10.73,3.35-16.99,3.35Z"/>
      <path class="cls-1" d="m608.17,2395.48c-8.05,0-14.76-1.49-20.12-4.47-5.37-2.98-9.39-7.27-12.07-12.86-2.68-5.59-4.02-12.48-4.02-20.68v-61.26h-16.54c-1.94,0-3.5-.48-4.7-1.45-1.19-.97-1.79-2.35-1.79-4.14,0-1.64.59-2.94,1.79-3.91,1.19-.97,2.76-1.45,4.7-1.45h16.54v-27.95c0-2.38.59-4.14,1.79-5.25,1.19-1.12,2.91-1.68,5.14-1.68,2.09,0,3.72.56,4.92,1.68,1.19,1.12,1.79,2.87,1.79,5.25v27.95h30.18c2.09,0,3.65.49,4.7,1.45,1.04.97,1.56,2.27,1.56,3.91,0,1.79-.52,3.17-1.56,4.14-1.05.97-2.61,1.45-4.7,1.45h-30.18v59.47c0,9.09,1.86,16.02,5.59,20.79,3.72,4.77,9.91,7.15,18.56,7.15,2.98,0,5.48-.33,7.49-1.01,2.01-.67,3.69-1.01,5.03-1.01,1.04,0,1.97.45,2.79,1.34.82.89,1.23,2.31,1.23,4.25,0,1.19-.26,2.39-.78,3.58-.52,1.19-1.45,1.94-2.8,2.24-1.64.6-3.88,1.15-6.71,1.68-2.83.52-5.44.78-7.82.78Z"/>
      <path class="cls-1" d="m675.68,2395.48c-7.3,0-13.83-1.42-19.56-4.25-5.74-2.83-10.29-6.71-13.64-11.63-3.35-4.92-5.03-10.43-5.03-16.54,0-8.05,2.01-14.38,6.04-19,4.02-4.62,10.8-7.86,20.35-9.73,9.54-1.86,22.66-2.79,39.35-2.79h9.61v10.06h-9.39c-13.41,0-23.89.56-31.41,1.68-7.53,1.12-12.78,3.17-15.76,6.15-2.98,2.98-4.47,7.15-4.47,12.52,0,6.71,2.31,12.15,6.93,16.32,4.62,4.17,10.88,6.26,18.78,6.26,6.41,0,12.03-1.53,16.88-4.58,4.84-3.05,8.68-7.27,11.51-12.63,2.83-5.37,4.25-11.48,4.25-18.33v-25.49c0-9.98-2.01-17.25-6.04-21.8-4.02-4.55-10.44-6.82-19.23-6.82-5.67,0-11.14.75-16.43,2.24-5.29,1.49-10.92,3.88-16.88,7.15-1.64.89-3.09,1.19-4.36.89-1.27-.3-2.24-.89-2.91-1.79s-1.12-1.97-1.34-3.24c-.22-1.26-.04-2.49.56-3.69.59-1.19,1.64-2.16,3.13-2.91,6.26-3.43,12.63-6,19.12-7.71,6.48-1.71,12.78-2.57,18.89-2.57,8.79,0,16.06,1.49,21.8,4.47,5.74,2.98,9.98,7.45,12.74,13.42,2.76,5.96,4.14,13.64,4.14,23.03v63.94c0,2.24-.52,3.95-1.56,5.14-1.04,1.19-2.61,1.79-4.7,1.79s-3.73-.6-4.92-1.79c-1.19-1.19-1.79-2.91-1.79-5.14v-20.57h2.24c-1.34,5.81-3.73,10.81-7.15,14.98-3.43,4.17-7.68,7.38-12.74,9.61-5.07,2.24-10.73,3.35-16.99,3.35Z"/>
      <path class="cls-1" d="m770.92,2395.03c-2.24,0-3.95-.6-5.14-1.79-1.19-1.19-1.79-2.91-1.79-5.14v-91.89h-15.87c-1.94,0-3.47-.48-4.58-1.45-1.12-.97-1.68-2.35-1.68-4.14,0-1.64.56-2.94,1.68-3.91,1.12-.97,2.64-1.45,4.58-1.45h19.45l-3.58,3.58v-8.94c0-13.71,3.28-24.22,9.84-31.52,6.56-7.3,16.32-11.55,29.29-12.74l6.04-.45c1.64-.15,2.94.11,3.91.78.97.67,1.64,1.53,2.01,2.57.37,1.04.41,2.12.11,3.24-.3,1.12-.86,2.09-1.68,2.91-.82.82-1.83,1.31-3.02,1.45l-6.26.67c-9.24.75-15.99,3.77-20.23,9.05-4.25,5.29-6.37,12.93-6.37,22.92v9.61l-2.01-3.13h28.62c2.09,0,3.65.49,4.69,1.45,1.04.97,1.57,2.27,1.57,3.91,0,1.79-.52,3.17-1.57,4.14-1.04.97-2.61,1.45-4.69,1.45h-26.61v91.89c0,4.62-2.24,6.93-6.71,6.93Z"/>
      <path class="cls-1" d="m869.97,2395.48c-10.14,0-18.93-2.31-26.38-6.93-7.45-4.62-13.23-11.1-17.33-19.45-4.1-8.35-6.15-18.26-6.15-29.74,0-8.5,1.15-16.17,3.47-23.03,2.31-6.85,5.66-12.78,10.06-17.77,4.4-4.99,9.69-8.79,15.87-11.4,6.18-2.61,13-3.91,20.46-3.91,10.29,0,19.15,2.31,26.61,6.93,7.45,4.62,13.23,11.14,17.33,19.56,4.1,8.42,6.15,18.3,6.15,29.62,0,8.65-1.16,16.4-3.47,23.25-2.31,6.86-5.67,12.74-10.06,17.66-4.4,4.92-9.65,8.68-15.76,11.29-6.11,2.61-13.04,3.91-20.79,3.91Zm0-11.4c7.45,0,13.9-1.75,19.34-5.25,5.44-3.5,9.61-8.61,12.52-15.31,2.91-6.71,4.36-14.76,4.36-24.15,0-14.16-3.24-25.11-9.73-32.87-6.48-7.75-15.31-11.63-26.49-11.63-7.3,0-13.68,1.75-19.12,5.25-5.44,3.5-9.61,8.57-12.52,15.2-2.91,6.63-4.36,14.65-4.36,24.03,0,14.31,3.28,25.34,9.84,33.09,6.56,7.75,15.28,11.63,26.16,11.63Z"/>
      <path class="cls-1" d="m956.04,2395.03c-2.24,0-3.95-.6-5.14-1.79-1.19-1.19-1.79-2.91-1.79-5.14v-97.26c0-2.38.59-4.17,1.79-5.37s2.91-1.79,5.14-1.79c2.09,0,3.69.6,4.81,1.79,1.12,1.19,1.68,2.98,1.68,5.37v19.9h-2.24c2.68-8.79,7.49-15.57,14.42-20.35,6.93-4.77,15.24-7.23,24.93-7.38,1.79-.15,3.28.22,4.47,1.12,1.19.89,1.79,2.31,1.79,4.25.15,2.09-.3,3.69-1.34,4.81-1.04,1.12-2.76,1.83-5.14,2.12l-3.13.22c-10.58,1.05-18.78,4.55-24.59,10.51-5.81,5.96-8.72,14.01-8.72,24.15v57.91c0,2.24-.56,3.95-1.68,5.14-1.12,1.19-2.87,1.79-5.25,1.79Z"/>
      <path class="cls-1" d="m1032.95,2395.03c-2.24,0-3.95-.6-5.14-1.79-1.19-1.19-1.79-2.91-1.79-5.14v-97.26c0-2.38.59-4.17,1.79-5.37,1.19-1.19,2.91-1.79,5.14-1.79,2.09,0,3.69.6,4.81,1.79,1.12,1.19,1.68,2.98,1.68,5.37v21.24l-2.46-1.56c2.68-8.79,7.23-15.54,13.64-20.23,6.41-4.69,14.09-7.04,23.03-7.04,9.54,0,17.18,2.31,22.92,6.93,5.74,4.62,9.5,11.55,11.29,20.79h-3.35c2.53-8.35,7.27-15.05,14.2-20.12,6.93-5.06,15.09-7.6,24.48-7.6,8.05,0,14.72,1.56,20.01,4.7,5.29,3.13,9.28,7.79,11.96,13.97,2.68,6.19,4.02,13.97,4.02,23.36v62.83c0,2.24-.6,3.95-1.79,5.14-1.19,1.19-2.91,1.79-5.14,1.79-2.09,0-3.73-.6-4.92-1.79-1.19-1.19-1.79-2.91-1.79-5.14v-61.71c0-10.88-1.9-18.82-5.7-23.81-3.8-4.99-10.17-7.49-19.12-7.49-9.54,0-17.14,3.32-22.81,9.95-5.67,6.63-8.5,15.62-8.5,26.94v56.12c0,2.24-.6,3.95-1.79,5.14-1.19,1.19-2.83,1.79-4.92,1.79-2.24,0-3.95-.6-5.14-1.79-1.19-1.19-1.79-2.91-1.79-5.14v-61.71c0-10.88-1.9-18.82-5.7-23.81-3.8-4.99-10.1-7.49-18.89-7.49-9.69,0-17.37,3.32-23.03,9.95-5.67,6.63-8.5,15.62-8.5,26.94v56.12c0,4.62-2.24,6.93-6.71,6.93Z"/>
      <path class="cls-1" d="m1248.48,2395.48c-7.3,0-13.83-1.42-19.56-4.25-5.74-2.83-10.28-6.71-13.64-11.63-3.35-4.92-5.03-10.43-5.03-16.54,0-8.05,2.01-14.38,6.04-19,4.02-4.62,10.81-7.86,20.35-9.73,9.54-1.86,22.65-2.79,39.35-2.79h9.61v10.06h-9.39c-13.41,0-23.89.56-31.41,1.68-7.53,1.12-12.78,3.17-15.76,6.15-2.98,2.98-4.47,7.15-4.47,12.52,0,6.71,2.31,12.15,6.93,16.32,4.62,4.17,10.88,6.26,18.78,6.26,6.41,0,12.04-1.53,16.88-4.58,4.84-3.05,8.68-7.27,11.51-12.63,2.83-5.37,4.25-11.48,4.25-18.33v-25.49c0-9.98-2.01-17.25-6.04-21.8-4.02-4.55-10.44-6.82-19.23-6.82-5.67,0-11.14.75-16.43,2.24-5.29,1.49-10.92,3.88-16.88,7.15-1.64.89-3.09,1.19-4.36.89-1.27-.3-2.24-.89-2.91-1.79-.67-.89-1.12-1.97-1.34-3.24-.22-1.26-.04-2.49.56-3.69.59-1.19,1.64-2.16,3.13-2.91,6.26-3.43,12.63-6,19.12-7.71,6.48-1.71,12.78-2.57,18.89-2.57,8.79,0,16.06,1.49,21.8,4.47,5.74,2.98,9.98,7.45,12.74,13.42,2.76,5.96,4.14,13.64,4.14,23.03v63.94c0,2.24-.52,3.95-1.56,5.14-1.04,1.19-2.61,1.79-4.69,1.79s-3.73-.6-4.92-1.79c-1.19-1.19-1.79-2.91-1.79-5.14v-20.57h2.24c-1.34,5.81-3.73,10.81-7.15,14.98-3.43,4.17-7.68,7.38-12.74,9.61-5.07,2.24-10.73,3.35-16.99,3.35Z"/>
      <path class="cls-1" d="m1398.27,2393.69c-2.39,0-4.25-.67-5.59-2.01-1.34-1.34-2.01-3.28-2.01-5.81v-141.97c0-2.53.67-4.47,2.01-5.81,1.34-1.34,3.2-2.01,5.59-2.01h43.15c25.04,0,44.38,6.71,58.02,20.12,13.64,13.42,20.46,32.94,20.46,58.58,0,12.82-1.75,24.15-5.25,33.98-3.5,9.84-8.61,18.07-15.32,24.71-6.71,6.63-14.91,11.66-24.59,15.09-9.69,3.43-20.79,5.14-33.31,5.14h-43.15Zm6.04-12.07h36c10.88,0,20.38-1.42,28.51-4.25,8.12-2.83,14.87-7,20.23-12.52,5.37-5.51,9.39-12.48,12.07-20.9,2.68-8.42,4.02-18.15,4.02-29.18,0-22.21-5.4-38.86-16.21-49.97-10.81-11.1-27.02-16.66-48.63-16.66h-36v133.48Z"/>
      <path class="cls-1" d="m1558.8,2257.31c-3.13,0-5.55-.82-7.27-2.46-1.72-1.64-2.57-3.95-2.57-6.93s.86-5.25,2.57-6.82c1.71-1.56,4.14-2.35,7.27-2.35s5.55.78,7.27,2.35c1.71,1.56,2.57,3.84,2.57,6.82s-.86,5.29-2.57,6.93c-1.72,1.64-4.14,2.46-7.27,2.46Zm0,137.28c-2.24,0-3.95-.67-5.14-2.01-1.19-1.34-1.79-3.13-1.79-5.37v-95.69c0-2.38.59-4.17,1.79-5.37s2.91-1.79,5.14-1.79c2.09,0,3.72.6,4.92,1.79,1.19,1.19,1.79,2.98,1.79,5.37v95.69c0,2.24-.56,4.02-1.68,5.37-1.12,1.34-2.79,2.01-5.03,2.01Z"/>
      <path class="cls-1" d="m1648.67,2435.72c-8.05,0-15.84-1.01-23.36-3.02-7.53-2.01-14.35-5.25-20.46-9.73-1.19-.75-1.98-1.71-2.35-2.91-.37-1.19-.41-2.35-.11-3.47.3-1.12.86-2.12,1.68-3.02.82-.89,1.79-1.42,2.91-1.56,1.12-.15,2.27.07,3.47.67,6.56,4.32,12.86,7.34,18.89,9.05,6.04,1.71,12.33,2.57,18.89,2.57,10.88,0,19.15-3.02,24.82-9.05,5.66-6.04,8.5-14.64,8.5-25.82v-27.72h2.24c-2.24,9.24-7.01,16.47-14.31,21.69-7.3,5.22-15.95,7.82-25.94,7.82s-18.63-2.27-25.93-6.82c-7.3-4.54-12.93-10.88-16.88-19-3.95-8.12-5.92-17.55-5.92-28.28,0-8.05,1.12-15.35,3.35-21.91,2.24-6.56,5.48-12.22,9.73-16.99,4.25-4.77,9.35-8.46,15.32-11.07,5.96-2.61,12.74-3.91,20.35-3.91,9.98,0,18.63,2.65,25.94,7.94,7.3,5.29,12,12.41,14.09,21.35l-2.24,1.34v-23.03c0-2.38.59-4.17,1.79-5.37,1.19-1.19,2.83-1.79,4.92-1.79,2.24,0,3.91.6,5.03,1.79,1.12,1.19,1.68,2.98,1.68,5.37v96.59c0,15.95-3.88,27.98-11.63,36.11-7.75,8.12-19.23,12.18-34.43,12.18Zm-3.58-56.12c7.45,0,13.9-1.75,19.34-5.25,5.44-3.5,9.65-8.42,12.63-14.76,2.98-6.33,4.47-13.82,4.47-22.47,0-12.97-3.28-23.25-9.84-30.85-6.56-7.6-15.43-11.4-26.61-11.4-7.45,0-13.94,1.72-19.45,5.14-5.52,3.43-9.73,8.31-12.63,14.64-2.91,6.34-4.36,13.83-4.36,22.47,0,12.97,3.28,23.29,9.84,30.97,6.56,7.68,15.43,11.51,26.61,11.51Z"/>
      <path class="cls-1" d="m1737.65,2257.31c-3.13,0-5.55-.82-7.27-2.46-1.72-1.64-2.57-3.95-2.57-6.93s.86-5.25,2.57-6.82c1.71-1.56,4.14-2.35,7.27-2.35s5.55.78,7.27,2.35c1.71,1.56,2.57,3.84,2.57,6.82s-.86,5.29-2.57,6.93c-1.72,1.64-4.14,2.46-7.27,2.46Zm0,137.28c-2.24,0-3.95-.67-5.14-2.01-1.19-1.34-1.79-3.13-1.79-5.37v-95.69c0-2.38.59-4.17,1.79-5.37,1.19-1.19,2.91-1.79,5.14-1.79,2.09,0,3.72.6,4.92,1.79,1.19,1.19,1.79,2.98,1.79,5.37v95.69c0,2.24-.56,4.02-1.68,5.37-1.12,1.34-2.8,2.01-5.03,2.01Z"/>
      <path class="cls-1" d="m1821.27,2395.48c-8.05,0-14.76-1.49-20.12-4.47-5.37-2.98-9.39-7.27-12.07-12.86-2.68-5.59-4.02-12.48-4.02-20.68v-61.26h-16.54c-1.94,0-3.5-.48-4.7-1.45-1.19-.97-1.79-2.35-1.79-4.14,0-1.64.59-2.94,1.79-3.91,1.19-.97,2.76-1.45,4.7-1.45h16.54v-27.95c0-2.38.59-4.14,1.79-5.25,1.19-1.12,2.91-1.68,5.14-1.68,2.09,0,3.72.56,4.92,1.68,1.19,1.12,1.79,2.87,1.79,5.25v27.95h30.18c2.09,0,3.65.49,4.69,1.45,1.04.97,1.56,2.27,1.56,3.91,0,1.79-.52,3.17-1.56,4.14-1.04.97-2.61,1.45-4.69,1.45h-30.18v59.47c0,9.09,1.86,16.02,5.59,20.79,3.72,4.77,9.91,7.15,18.56,7.15,2.98,0,5.48-.33,7.49-1.01,2.01-.67,3.69-1.01,5.03-1.01,1.04,0,1.97.45,2.8,1.34.82.89,1.23,2.31,1.23,4.25,0,1.19-.26,2.39-.78,3.58-.52,1.19-1.45,1.94-2.79,2.24-1.64.6-3.88,1.15-6.71,1.68-2.83.52-5.44.78-7.83.78Z"/>
      <path class="cls-1" d="m1888.79,2395.48c-7.3,0-13.83-1.42-19.56-4.25-5.74-2.83-10.28-6.71-13.64-11.63-3.35-4.92-5.03-10.43-5.03-16.54,0-8.05,2.01-14.38,6.04-19,4.02-4.62,10.81-7.86,20.35-9.73,9.54-1.86,22.65-2.79,39.35-2.79h9.61v10.06h-9.39c-13.42,0-23.89.56-31.41,1.68-7.53,1.12-12.78,3.17-15.76,6.15-2.98,2.98-4.47,7.15-4.47,12.52,0,6.71,2.31,12.15,6.93,16.32,4.62,4.17,10.88,6.26,18.78,6.26,6.41,0,12.04-1.53,16.88-4.58,4.84-3.05,8.68-7.27,11.51-12.63,2.83-5.37,4.25-11.48,4.25-18.33v-25.49c0-9.98-2.01-17.25-6.04-21.8-4.02-4.55-10.43-6.82-19.23-6.82-5.67,0-11.14.75-16.43,2.24-5.29,1.49-10.92,3.88-16.88,7.15-1.64.89-3.1,1.19-4.36.89-1.27-.3-2.24-.89-2.91-1.79-.67-.89-1.12-1.97-1.34-3.24-.22-1.26-.04-2.49.56-3.69.59-1.19,1.64-2.16,3.13-2.91,6.26-3.43,12.63-6,19.12-7.71,6.48-1.71,12.78-2.57,18.89-2.57,8.79,0,16.06,1.49,21.8,4.47,5.74,2.98,9.98,7.45,12.74,13.42,2.76,5.96,4.14,13.64,4.14,23.03v63.94c0,2.24-.52,3.95-1.56,5.14-1.04,1.19-2.61,1.79-4.7,1.79s-3.73-.6-4.92-1.79c-1.19-1.19-1.79-2.91-1.79-5.14v-20.57h2.24c-1.34,5.81-3.73,10.81-7.15,14.98-3.43,4.17-7.68,7.38-12.74,9.61-5.07,2.24-10.73,3.35-16.99,3.35Z"/>
      <path class="cls-1" d="m2003.26,2395.48c-9.99,0-17.7-3.13-23.14-9.39-5.44-6.26-8.16-15.13-8.16-26.61v-117.83c0-2.38.59-4.14,1.79-5.25,1.19-1.12,2.91-1.68,5.14-1.68,2.09,0,3.72.56,4.92,1.68,1.19,1.12,1.79,2.87,1.79,5.25v116.26c0,8.65,1.71,15.09,5.14,19.34,3.43,4.25,8.42,6.37,14.98,6.37,1.49,0,2.76-.07,3.8-.22,1.04-.15,2.09-.22,3.13-.22,1.34-.15,2.35.11,3.02.78.67.67,1.01,2.05,1.01,4.14s-.52,3.65-1.56,4.69c-1.04,1.04-2.76,1.79-5.14,2.24-1.04.15-2.12.26-3.24.34-1.12.07-2.27.11-3.47.11Z"/>
      <path class="cls-1" d="m2102.3,2393.69c-2.39,0-4.25-.67-5.59-2.01-1.34-1.34-2.01-3.28-2.01-5.81v-141.97c0-2.53.67-4.47,2.01-5.81,1.34-1.34,3.2-2.01,5.59-2.01h84.51c2.09,0,3.65.52,4.69,1.56,1.04,1.04,1.56,2.46,1.56,4.25,0,2.09-.52,3.62-1.56,4.58-1.04.97-2.61,1.45-4.69,1.45h-78.7v59.92h74.23c2.09,0,3.65.49,4.7,1.45,1.04.97,1.56,2.42,1.56,4.36s-.52,3.43-1.56,4.47c-1.05,1.04-2.61,1.56-4.7,1.56h-74.23v62.15h78.7c2.09,0,3.65.49,4.69,1.45,1.04.97,1.56,2.42,1.56,4.36s-.52,3.43-1.56,4.47c-1.04,1.04-2.61,1.56-4.69,1.56h-84.51Z"/>
      <path class="cls-1" d="m2261.04,2395.48c-9.69,0-18.15-2.27-25.38-6.82-7.23-4.55-12.82-11.03-16.77-19.45-3.95-8.42-5.93-18.37-5.93-29.85s1.94-21.39,5.81-29.74c3.87-8.35,9.43-14.83,16.66-19.45,7.23-4.62,15.76-6.93,25.6-6.93s18.78,2.61,25.94,7.83c7.15,5.22,11.92,12.22,14.31,21.02h-2.46v-70.43c0-2.38.59-4.14,1.79-5.25,1.19-1.12,2.83-1.68,4.92-1.68,2.24,0,3.95.56,5.14,1.68,1.19,1.12,1.79,2.87,1.79,5.25v146.44c0,2.24-.6,3.95-1.79,5.14-1.19,1.19-2.83,1.79-4.92,1.79-2.24,0-3.95-.6-5.14-1.79-1.19-1.19-1.79-2.91-1.79-5.14v-23.03l2.46,1.56c-2.39,8.8-7.15,15.8-14.31,21.02-7.15,5.22-15.8,7.83-25.94,7.83Zm1.79-11.4c7.45,0,13.9-1.75,19.34-5.25,5.44-3.5,9.61-8.61,12.52-15.31,2.91-6.71,4.36-14.76,4.36-24.15,0-14.16-3.24-25.11-9.73-32.87-6.48-7.75-15.31-11.63-26.49-11.63-7.3,0-13.68,1.75-19.12,5.25-5.44,3.5-9.61,8.57-12.52,15.2-2.91,6.63-4.36,14.65-4.36,24.03,0,14.31,3.28,25.34,9.84,33.09,6.56,7.75,15.28,11.63,26.16,11.63Z"/>
      <path class="cls-1" d="m2386.47,2395.48c-8.65,0-15.84-1.56-21.57-4.69-5.74-3.13-10.03-7.83-12.86-14.09-2.83-6.26-4.25-14.01-4.25-23.25v-62.6c0-2.38.59-4.17,1.79-5.37,1.19-1.19,2.91-1.79,5.14-1.79,2.09,0,3.72.6,4.92,1.79,1.19,1.19,1.79,2.98,1.79,5.37v61.93c0,10.43,2.16,18.22,6.48,23.36,4.32,5.14,11.1,7.71,20.35,7.71,10.13,0,18.33-3.39,24.59-10.17,6.26-6.78,9.39-15.68,9.39-26.72v-56.12c0-2.38.59-4.17,1.79-5.37,1.19-1.19,2.91-1.79,5.14-1.79,2.09,0,3.72.6,4.92,1.79,1.19,1.19,1.79,2.98,1.79,5.37v97.26c0,4.62-2.16,6.93-6.48,6.93-2.09,0-3.73-.6-4.92-1.79-1.19-1.19-1.79-2.91-1.79-5.14v-22.13l2.68,1.56c-2.83,9.09-7.75,16.02-14.76,20.79-7.01,4.77-15.06,7.15-24.15,7.15Z"/>
      <path class="cls-1" d="m2516.14,2395.48c-10.58,0-19.67-2.35-27.28-7.04-7.6-4.69-13.45-11.32-17.55-19.9-4.1-8.57-6.15-18.52-6.15-29.85,0-8.64,1.15-16.36,3.47-23.14,2.31-6.78,5.66-12.55,10.06-17.33,4.39-4.77,9.76-8.46,16.1-11.07,6.33-2.61,13.45-3.91,21.35-3.91,5.51,0,11.18.93,16.99,2.8,5.81,1.87,11.1,4.96,15.87,9.28,1.04.89,1.71,1.94,2.01,3.13.3,1.19.22,2.35-.22,3.47-.45,1.12-1.12,2.01-2.01,2.68-.89.67-1.98,1.05-3.24,1.12-1.27.08-2.57-.48-3.91-1.68-4.17-3.43-8.38-5.77-12.63-7.04-4.25-1.26-8.38-1.9-12.41-1.9-6.11,0-11.48.97-16.1,2.91-4.62,1.94-8.53,4.77-11.74,8.5-3.21,3.73-5.63,8.31-7.27,13.75-1.64,5.44-2.46,11.66-2.46,18.67,0,14.01,3.24,25.01,9.73,32.98,6.48,7.98,15.76,11.96,27.84,11.96,4.02,0,8.16-.63,12.41-1.9,4.25-1.26,8.46-3.61,12.63-7.04,1.34-1.19,2.64-1.75,3.91-1.68,1.27.08,2.35.45,3.24,1.12.89.67,1.53,1.56,1.9,2.68.37,1.12.41,2.27.11,3.47-.3,1.19-.97,2.24-2.01,3.13-4.62,4.32-9.84,7.38-15.65,9.17-5.81,1.79-11.48,2.68-16.99,2.68Z"/>
      <path class="cls-1" d="m2606.91,2395.48c-7.3,0-13.83-1.42-19.56-4.25-5.74-2.83-10.28-6.71-13.64-11.63s-5.03-10.43-5.03-16.54c0-8.05,2.01-14.38,6.04-19,4.02-4.62,10.8-7.86,20.35-9.73,9.54-1.86,22.65-2.79,39.35-2.79h9.61v10.06h-9.39c-13.41,0-23.89.56-31.41,1.68-7.53,1.12-12.78,3.17-15.76,6.15-2.98,2.98-4.47,7.15-4.47,12.52,0,6.71,2.31,12.15,6.93,16.32,4.62,4.17,10.88,6.26,18.78,6.26,6.41,0,12.03-1.53,16.88-4.58,4.84-3.05,8.68-7.27,11.51-12.63,2.83-5.37,4.25-11.48,4.25-18.33v-25.49c0-9.98-2.01-17.25-6.04-21.8-4.02-4.55-10.43-6.82-19.23-6.82-5.67,0-11.14.75-16.43,2.24-5.29,1.49-10.92,3.88-16.88,7.15-1.64.89-3.1,1.19-4.36.89-1.27-.3-2.24-.89-2.91-1.79-.67-.89-1.12-1.97-1.34-3.24-.22-1.26-.04-2.49.56-3.69.59-1.19,1.64-2.16,3.13-2.91,6.26-3.43,12.63-6,19.12-7.71,6.48-1.71,12.78-2.57,18.89-2.57,8.79,0,16.06,1.49,21.8,4.47,5.74,2.98,9.98,7.45,12.74,13.42,2.76,5.96,4.14,13.64,4.14,23.03v63.94c0,2.24-.52,3.95-1.56,5.14-1.04,1.19-2.61,1.79-4.7,1.79s-3.73-.6-4.92-1.79c-1.19-1.19-1.79-2.91-1.79-5.14v-20.57h2.24c-1.34,5.81-3.73,10.81-7.15,14.98-3.43,4.17-7.68,7.38-12.74,9.61-5.07,2.24-10.73,3.35-16.99,3.35Z"/>
      <path class="cls-1" d="m2731,2395.48c-8.05,0-14.76-1.49-20.12-4.47-5.37-2.98-9.39-7.27-12.07-12.86-2.68-5.59-4.02-12.48-4.02-20.68v-61.26h-16.54c-1.94,0-3.5-.48-4.69-1.45-1.19-.97-1.79-2.35-1.79-4.14,0-1.64.59-2.94,1.79-3.91,1.19-.97,2.76-1.45,4.69-1.45h16.54v-27.95c0-2.38.59-4.14,1.79-5.25,1.19-1.12,2.91-1.68,5.14-1.68,2.09,0,3.72.56,4.92,1.68,1.19,1.12,1.79,2.87,1.79,5.25v27.95h30.18c2.09,0,3.65.49,4.7,1.45,1.04.97,1.56,2.27,1.56,3.91,0,1.79-.52,3.17-1.56,4.14-1.04.97-2.61,1.45-4.7,1.45h-30.18v59.47c0,9.09,1.86,16.02,5.59,20.79,3.72,4.77,9.91,7.15,18.56,7.15,2.98,0,5.48-.33,7.49-1.01,2.01-.67,3.69-1.01,5.03-1.01,1.04,0,1.97.45,2.79,1.34.82.89,1.23,2.31,1.23,4.25,0,1.19-.26,2.39-.78,3.58-.52,1.19-1.45,1.94-2.79,2.24-1.64.6-3.88,1.15-6.71,1.68-2.83.52-5.44.78-7.83.78Z"/>
      <path class="cls-1" d="m2772.58,2257.31c-3.13,0-5.55-.82-7.27-2.46-1.72-1.64-2.57-3.95-2.57-6.93s.86-5.25,2.57-6.82c1.71-1.56,4.14-2.35,7.27-2.35s5.55.78,7.27,2.35c1.71,1.56,2.57,3.84,2.57,6.82s-.86,5.29-2.57,6.93c-1.72,1.64-4.14,2.46-7.27,2.46Zm0,137.28c-2.24,0-3.95-.67-5.14-2.01-1.19-1.34-1.79-3.13-1.79-5.37v-95.69c0-2.38.59-4.17,1.79-5.37,1.19-1.19,2.91-1.79,5.14-1.79,2.09,0,3.72.6,4.92,1.79,1.19,1.19,1.79,2.98,1.79,5.37v95.69c0,2.24-.56,4.02-1.68,5.37-1.12,1.34-2.79,2.01-5.03,2.01Z"/>
      <path class="cls-1" d="m2854.4,2395.03c-2.24,0-4.1-.6-5.59-1.79-1.49-1.19-2.83-2.98-4.02-5.37l-40.24-93.9c-.75-1.79-1.01-3.46-.78-5.03.22-1.56.89-2.83,2.01-3.8,1.12-.97,2.72-1.45,4.81-1.45,1.94,0,3.39.45,4.36,1.34.97.89,1.82,2.31,2.57,4.25l39.8,96.14h-5.59l40.02-96.14c.74-1.94,1.64-3.35,2.68-4.25,1.04-.89,2.53-1.34,4.47-1.34s3.39.49,4.36,1.45c.97.97,1.53,2.2,1.68,3.69.15,1.49-.15,3.13-.89,4.92l-40.24,94.13c-.89,2.39-2.16,4.18-3.8,5.37-1.64,1.19-3.5,1.79-5.59,1.79Z"/>
      <path class="cls-1" d="m2960.38,2395.48c-7.3,0-13.83-1.42-19.56-4.25-5.74-2.83-10.28-6.71-13.64-11.63s-5.03-10.43-5.03-16.54c0-8.05,2.01-14.38,6.04-19,4.02-4.62,10.8-7.86,20.35-9.73,9.54-1.86,22.65-2.79,39.35-2.79h9.61v10.06h-9.39c-13.41,0-23.89.56-31.41,1.68-7.53,1.12-12.78,3.17-15.76,6.15-2.98,2.98-4.47,7.15-4.47,12.52,0,6.71,2.31,12.15,6.93,16.32,4.62,4.17,10.88,6.26,18.78,6.26,6.41,0,12.03-1.53,16.88-4.58,4.84-3.05,8.68-7.27,11.51-12.63,2.83-5.37,4.25-11.48,4.25-18.33v-25.49c0-9.98-2.01-17.25-6.04-21.8-4.02-4.55-10.43-6.82-19.23-6.82-5.67,0-11.14.75-16.43,2.24-5.29,1.49-10.92,3.88-16.88,7.15-1.64.89-3.1,1.19-4.36.89-1.27-.3-2.24-.89-2.91-1.79-.67-.89-1.12-1.97-1.34-3.24-.22-1.26-.04-2.49.56-3.69.59-1.19,1.64-2.16,3.13-2.91,6.26-3.43,12.63-6,19.12-7.71,6.48-1.71,12.78-2.57,18.89-2.57,8.79,0,16.06,1.49,21.8,4.47,5.74,2.98,9.98,7.45,12.74,13.42,2.76,5.96,4.14,13.64,4.14,23.03v63.94c0,2.24-.52,3.95-1.56,5.14-1.04,1.19-2.61,1.79-4.7,1.79s-3.73-.6-4.92-1.79c-1.19-1.19-1.79-2.91-1.79-5.14v-20.57h2.24c-1.34,5.81-3.73,10.81-7.15,14.98-3.43,4.17-7.68,7.38-12.74,9.61-5.07,2.24-10.73,3.35-16.99,3.35Z"/>
    </g>
    <g>
      <path class="cls-3" d="m261.89,2083.64h30.73c3.9,0,7.06,3.16,7.06,7.06v69.36c0,3.9-3.16,7.06-7.06,7.06h-30.73c-3.9,0-7.06-3.16-7.06-7.06v-69.36c0-1.87.74-3.67,2.07-5,1.32-1.32,3.12-2.07,4.99-2.07Zm0-95.92h30.73c3.9,0,7.06,3.16,7.06,7.06v69.34c0,3.9-3.16,7.06-7.06,7.06h-30.73c-3.9,0-7.06-3.16-7.06-7.06v-69.34c0-3.9,3.16-7.06,7.06-7.06Z"/>
      <path class="cls-3" d="m507.16,2055.52v44.12c0,48.61-40.12,66.98-67.08,67.48h-49.44c-3.9,0-7.06-3.16-7.06-7.06v-30.73c0-3.9,3.16-7.06,7.06-7.06h48.57c8.72-.42,23.06-3.96,23.06-22.63v-44.47c-.2-4.63-1.38-9.16-3.47-13.3-2.46-4.55-6.68-9.2-19.26-9.2-22.41,0-44.54-.02-61.36-.05-1.87,0-3.67.74-5,2.07-1.33,1.32-2.07,3.12-2.07,5v120.38c0,3.9-3.16,7.06-7.06,7.06h-30.73c-3.9,0-7.06-3.16-7.06-7.06v-165.32c0-1.88.75-3.68,2.07-5,1.33-1.32,3.13-2.07,5.01-2.06l15.39.04s44.83.1,90.8.1c24.86,0,40.04,10.16,48.4,18.67,18.64,19,19.22,44.89,19.2,49.04Z"/>
      <path class="cls-3" d="m540.82,2083.64h30.73c3.9,0,7.06,3.16,7.06,7.06v69.36c0,3.9-3.16,7.06-7.06,7.06h-30.73c-3.9,0-7.06-3.16-7.06-7.06v-69.36c0-1.87.74-3.67,2.07-5,1.32-1.32,3.12-2.07,4.99-2.07Zm0-95.92h30.73c3.9,0,7.06,3.16,7.06,7.06v69.34c0,3.9-3.16,7.06-7.06,7.06h-30.73c-3.9,0-7.06-3.16-7.06-7.06v-69.34c0-3.9,3.16-7.06,7.06-7.06Z"/>
      <path class="cls-3" d="m709.27,1988.88c46.15,7.48,78.83,49.15,75.08,95.75-3.75,46.6-42.67,82.51-89.42,82.51s-85.67-35.91-89.42-82.51c-3.75-46.61,28.92-88.27,75.08-95.75,2.01-.33,4.07.23,5.62,1.55,1.56,1.32,2.46,3.25,2.46,5.29v31.68c-.04,3.2-2.23,5.96-5.34,6.73-19.61,5.24-33.26,22.99-33.29,43.29,0,34.97,40.24,60.72,76.84,33.4.57-.42,1.08-.93,1.5-1.5,24.11-32.53,6.57-67.66-22.05-75.22-3.03-.74-5.17-3.44-5.21-6.56v-31.83c0-2.05.92-3.98,2.49-5.3,1.57-1.31,3.64-1.87,5.65-1.53h0Z"/>
      <path class="cls-3" d="m855.95,1994.76v165.3c0,3.9-3.16,7.06-7.06,7.06h-30.73c-3.9,0-7.06-3.16-7.06-7.06v-165.28c0-3.9,3.16-7.06,7.06-7.06h30.73c3.89,0,7.05,3.15,7.06,7.04Zm133.11-4.97c1.32,1.32,2.07,3.12,2.07,4.99v165.29c0,3.9-3.16,7.06-7.06,7.06h-30.73c-3.9,0-7.06-3.16-7.06-7.06v-78.93c0-1.59-1.06-2.98-2.59-3.41-1.53-.42-3.15.22-3.97,1.58l-35.2,58.44c-.64,1.06-1.79,1.7-3.02,1.7s-2.38-.65-3.02-1.7l-29.04-47.78c-.67-1.11-1.03-2.38-1.03-3.67v-71.77c0-1.58,1.05-2.97,2.58-3.4,1.53-.43,3.15.21,3.97,1.57l23.35,38.41c.64,1.06,1.79,1.7,3.02,1.7s2.38-.65,3.02-1.7l36.12-59.97c1.28-2.12,3.57-3.42,6.05-3.42h37.54c1.87,0,3.67.74,5,2.07Z"/>
      <path class="cls-3" d="m1186.86,2164.14c-1.33,1.87-3.48,2.99-5.77,2.98h-32.59c-2.99,0-5.66-1.89-6.66-4.71l-4.75-13.42c-1-2.82-3.67-4.71-6.66-4.71h-36.72c-2.29,0-4.44-1.11-5.77-2.99-1.32-1.87-1.66-4.27-.89-6.43l10.87-30.73c1-2.82,3.67-4.71,6.66-4.71h5c2.29,0,4.44-1.11,5.77-2.99,1.32-1.87,1.66-4.27.89-6.43l-6.61-18.7c-1-2.82-3.67-4.71-6.66-4.71s-5.66,1.89-6.66,4.71l-9.94,28.12h.02l-15.86,44.85h-.02l-6.41,18.13c-1,2.82-3.67,4.71-6.66,4.71h-32.59c-2.29,0-4.44-1.11-5.77-2.99-1.32-1.87-1.66-4.27-.89-6.43l58.45-165.28c1-2.82,3.67-4.71,6.66-4.71h39.35c2.99,0,5.66,1.89,6.66,4.71l58.45,165.28c.77,2.16.43,4.56-.89,6.44Z"/>
      <path class="cls-3" d="m1392.6,2109.39c0,42.36-34.03,57.73-56.9,57.73l-113.95.2c-1.87,0-3.67-.74-5-2.06-1.33-1.32-2.07-3.12-2.08-4.99l-.05-30.72c0-1.87.74-3.67,2.06-5,1.32-1.33,3.12-2.07,4.99-2.08l113.76-.2c12.32-.51,12.3-7.43,12.3-11.45,0-4.79-2.17-10.75-9.93-11.07l-20.27.03c-1.87,0-3.67-.74-5-2.06-1.33-1.32-2.07-3.12-2.07-5v-30.67c0-3.9,3.16-7.06,7.06-7.06h19.95c5.73-.3,24.05-.13,38.51,12.9,7.58,6.83,16.61,19.58,16.62,41.5Zm1.24-114.62v30.73c0,3.9-3.16,7.06-7.06,7.06h-115.44c-3.98.2-11.84.75-11.84,11.42,0,6.19,2.02,7.62,4.88,8.96,2.6,1.13,5.37,1.82,8.2,2.04h18.36c3.9,0,7.06,3.16,7.06,7.06v30.7c0,3.9-3.16,7.06-7.05,7.06l-18.37.02c-9.44-.2-18.74-2.35-27.31-6.31-19.46-9.17-30.63-27.22-30.63-49.54s10.38-39.93,29.22-49.47c8.33-4.16,17.47-6.48,26.78-6.8h116.14c3.9,0,7.06,3.16,7.06,7.06Z"/>
      <path class="cls-3" d="m1690.5,1994.78v30.73c0,3.9-3.16,7.06-7.06,7.06h-120.43c-1.87,0-3.67.74-4.99,2.07-1.32,1.33-2.07,3.12-2.07,5v75.58c0,3.9,3.16,7.06,7.06,7.06h120.43c3.9,0,7.06,3.16,7.06,7.06v30.73c0,3.9-3.16,7.06-7.06,7.06h-165.28c-3.9,0-7.06-3.16-7.06-7.06v-165.28c0-3.9,3.16-7.06,7.06-7.06h165.28c3.9,0,7.06,3.16,7.06,7.06Zm-115.03,105.07c-3.9,0-7.06-3.16-7.06-7.06v-30.73c0-3.9,3.16-7.06,7.06-7.06h107.97c3.9,0,7.06,3.16,7.06,7.06v30.73c0,3.9-3.16,7.06-7.06,7.06h-107.97Z"/>
      <path class="cls-3" d="m1761.82,2075.35v84.71c0,3.9-3.16,7.06-7.06,7.06h-30.73c-3.9,0-7.06-3.16-7.06-7.06v-165.28c0-3.9,3.16-7.06,7.06-7.06h30.72c3.9,0,7.06,3.16,7.06,7.06v80.57Zm133.93-80.57v165.28c0,3.9-3.16,7.06-7.06,7.06h-39.81c-2.23,0-4.33-1.05-5.66-2.84l-67.54-90.48c-.91-1.22-1.4-2.7-1.41-4.22v-62c0-1.52.97-2.87,2.42-3.35,1.44-.48,3.03.02,3.94,1.24l63.91,85.6c.91,1.22,2.5,1.72,3.94,1.24,1.44-.48,2.42-1.83,2.42-3.35v-94.18c0-3.9,3.16-7.06,7.06-7.06h30.73c3.9,0,7.06,3.16,7.06,7.06Z"/>
      <path class="cls-3" d="m2190.88,2109.39c0,42.36-34.03,57.73-56.9,57.73l-113.95.2c-1.87,0-3.67-.74-5-2.06-1.33-1.32-2.07-3.12-2.08-4.99l-.05-30.72c0-1.87.74-3.67,2.06-5,1.32-1.33,3.12-2.07,4.99-2.08l113.76-.2c12.32-.51,12.3-7.43,12.3-11.45,0-4.79-2.17-10.75-9.93-11.07l-20.27.03c-1.87,0-3.67-.74-5-2.06-1.33-1.32-2.07-3.12-2.07-5v-30.67c0-3.9,3.16-7.06,7.06-7.06h19.95c5.73-.3,24.05-.13,38.51,12.9,7.58,6.83,16.61,19.58,16.62,41.5Zm1.24-114.62v30.73c0,3.9-3.16,7.06-7.06,7.06h-115.44c-3.98.2-11.84.75-11.84,11.42,0,6.19,2.02,7.62,4.88,8.96,2.6,1.13,5.37,1.82,8.2,2.04h18.36c3.9,0,7.06,3.16,7.06,7.06v30.7c0,3.9-3.16,7.06-7.05,7.06l-18.37.02c-9.44-.2-18.74-2.35-27.31-6.31-19.46-9.17-30.62-27.22-30.62-49.54s10.38-39.93,29.22-49.47c8.33-4.16,17.47-6.48,26.78-6.8h116.14c3.9,0,7.06,3.16,7.06,7.06Z"/>
      <path class="cls-3" d="m2398.19,1994.78v30.73c0,3.9-3.16,7.06-7.06,7.06h-120.43c-1.87,0-3.67.74-4.99,2.07-1.32,1.33-2.07,3.12-2.07,5v75.58c0,3.9,3.16,7.06,7.06,7.06h120.43c3.9,0,7.06,3.16,7.06,7.06v30.73c0,3.9-3.16,7.06-7.06,7.06h-165.28c-3.9,0-7.06-3.16-7.06-7.06v-165.28c0-3.9,3.16-7.06,7.06-7.06h165.28c3.9,0,7.06,3.16,7.06,7.06Zm-115.03,105.07c-3.9,0-7.06-3.16-7.06-7.06v-30.73c0-3.9,3.16-7.06,7.06-7.06h107.97c3.9,0,7.06,3.16,7.06,7.06v30.73c0,3.9-3.16,7.06-7.06,7.06h-107.97Z"/>
      <path class="cls-3" d="m2469.52,2075.35v84.71c0,3.9-3.16,7.06-7.06,7.06h-30.73c-3.9,0-7.06-3.16-7.06-7.06v-165.28c0-3.9,3.16-7.06,7.06-7.06h30.72c3.9,0,7.06,3.16,7.06,7.06v80.57Zm131.87-85.57c1.33,1.32,2.07,3.12,2.07,4.99v165.28c0,3.9-3.16,7.06-7.06,7.06h-39.81c-2.23,0-4.33-1.05-5.66-2.84l-67.54-90.48c-.91-1.22-1.4-2.7-1.41-4.22v-62c0-1.52.97-2.87,2.42-3.35,1.44-.48,3.03.02,3.94,1.24l63.9,85.6c.91,1.22,2.5,1.72,3.94,1.24,1.44-.48,2.42-1.83,2.42-3.35v-94.18c0-3.9,3.16-7.06,7.06-7.06h30.73c1.87,0,3.67.74,5,2.07Zm-98.99-13.01c-.96.96-2.36,1.33-3.67.97-1.31-.37-2.32-1.41-2.64-2.73-.32-1.32.1-2.71,1.1-3.63l8.56-8.25c2.22-2.45,5.54-3.59,8.79-3.03,3.12.84,5.59,3.23,6.54,6.32l1.56,4.09c.48,1.26.99,1.62,1.16,1.67s.85-.07,1.88-1.05l9.1-8.56c1.51-1.42,3.88-1.35,5.3.16s1.35,3.88-.16,5.3l-9.1,8.56c-1.83,1.88-4.31,2.99-6.94,3.09-.59,0-1.19-.07-1.77-.2-3.1-.86-5.55-3.23-6.5-6.31l-1.56-4.09c-.48-1.26-1.01-1.62-1.16-1.67-.15-.04-.88.08-1.95,1.11l-8.56,8.25h0Z"/>
      <path class="cls-3" d="m2799.1,2164.14c-1.33,1.87-3.48,2.99-5.77,2.98h-32.59c-2.99,0-5.66-1.89-6.66-4.71l-4.75-13.42c-1-2.82-3.67-4.71-6.66-4.71h-36.72c-2.29,0-4.44-1.11-5.77-2.99-1.32-1.87-1.66-4.27-.89-6.43l10.87-30.73c1-2.82,3.67-4.71,6.66-4.71h5c2.29,0,4.44-1.11,5.77-2.99,1.32-1.87,1.66-4.27.89-6.43l-6.61-18.7c-1-2.82-3.67-4.71-6.66-4.71s-5.66,1.89-6.66,4.71l-9.94,28.12h.02l-15.86,44.85h-.02l-6.41,18.13c-1,2.82-3.67,4.71-6.66,4.71h-32.59c-2.29,0-4.44-1.11-5.77-2.99-1.32-1.87-1.66-4.27-.89-6.43l58.45-165.28c1-2.82,3.67-4.71,6.66-4.71h39.35c2.99,0,5.66,1.89,6.66,4.71l58.45,165.28c.77,2.16.43,4.56-.89,6.44Z"/>
      <path class="cls-3" d="m3004.84,2109.39c0,42.36-34.03,57.73-56.9,57.73l-113.95.2c-1.87,0-3.67-.74-5-2.06-1.33-1.32-2.07-3.12-2.08-4.99l-.05-30.72c0-1.87.74-3.67,2.06-5,1.32-1.33,3.12-2.07,4.99-2.08l113.76-.2c12.32-.51,12.3-7.43,12.3-11.45,0-4.79-2.17-10.75-9.93-11.07l-20.27.03c-1.87,0-3.67-.74-5-2.06s-2.07-3.12-2.07-5v-30.67c0-3.9,3.16-7.06,7.06-7.06h19.95c5.73-.3,24.05-.13,38.51,12.9,7.58,6.83,16.61,19.58,16.62,41.5Zm1.24-114.62v30.73c0,3.9-3.16,7.06-7.06,7.06h-115.44c-3.98.2-11.84.75-11.84,11.42,0,6.19,2.02,7.62,4.88,8.96,2.6,1.13,5.37,1.82,8.2,2.04h18.36c3.9,0,7.06,3.16,7.06,7.06v30.7c0,3.9-3.16,7.06-7.05,7.06l-18.37.02c-9.44-.2-18.74-2.35-27.31-6.31-19.46-9.17-30.62-27.22-30.62-49.54s10.38-39.93,29.22-49.47c8.33-4.16,17.47-6.48,26.78-6.8h116.14c3.9,0,7.06,3.16,7.06,7.06Z"/>
    </g>
  </g>
</svg>